<svg width="6rem" height="4.7rem" viewBox="0 0 60 47" fill="none" xmlns="http://www.w3.org/2000/svg"><path d="M26.726 33.575c0-6.865-7.21-13.222-16.696-9.916.748-9.224 8.919-15.95 16.298-17.494l.398-.084V1.52l-.553.059c-7.675.822-13.916 4.071-18.236 9.104-4.319 5.03-6.69 11.812-6.69 19.653 0 8.878 5.946 15.26 14 15.26 6.596 0 11.48-5.105 11.48-12.02Zm32.04 0c0-6.865-7.21-13.222-16.696-9.916.748-9.224 8.919-15.95 16.298-17.494l.398-.084V1.52l-.553.059c-7.675.822-13.916 4.071-18.236 9.104-4.319 5.03-6.69 11.812-6.69 19.653 0 8.878 5.946 15.26 14 15.26 6.596 0 11.48-5.105 11.48-12.02Z" stroke="currentColor" vector-effect="non-scaling-stroke"></path></svg>