
<svg width="160" height="29" viewBox="0 0 100 29" fill="none" xmlns="http://www.w3.org/2000/svg">
<path d="M54.1817 18.4201C54.1817 21.5172 50.3276 21.3334 50.3276 21.3334H46.4736V15.7371H50.3276C54.2939 15.7105 54.1817 18.4201 54.1817 18.4201ZM46.4736 7.2023H49.4104C52.46 7.3634 52.3449 9.6339 52.3449 9.6339C52.3449 12.4555 48.9728 12.5015 48.9728 12.5015H46.4736V7.2023ZM53.4688 13.602C53.4688 13.602 56.1068 12.4779 56.0833 9.4963C56.0833 9.4963 56.4845 4.6099 50.0104 4.0139H42.8266V24.4988H51.061C51.061 24.4988 57.9412 24.5193 57.9412 18.7189C57.9411 18.7189 58.1038 14.7716 53.4688 13.602ZM34.8773 0H65.1226V28.5013H34.8773V0ZM19.3041 18.4201C19.3041 21.5172 15.45 21.3334 15.45 21.3334H11.5957V15.7371H15.45C19.4166 15.7105 19.3041 18.4201 19.3041 18.4201ZM11.5957 7.2023H14.5331C17.5828 7.3634 17.4674 9.6339 17.4674 9.6339C17.4674 12.4555 14.0955 12.5015 14.0955 12.5015H11.5957V7.2023ZM18.5915 13.602C18.5915 13.602 21.2299 12.4779 21.2062 9.4963C21.2062 9.4963 21.6071 4.6099 15.133 4.0139H7.9489V24.4988H16.1838C16.1838 24.4988 23.0639 24.5193 23.0639 18.7189C23.0639 18.7189 23.226 14.7716 18.5915 13.602ZM0 0H30.2453V28.5013H0V0ZM93.8301 5.4825V9.2671C93.8301 9.2671 90.1359 6.9969 86.0537 6.9512C86.0537 6.9512 78.4376 6.8017 78.0943 14.2517C78.0943 14.2517 77.8192 21.103 85.9619 21.4934C85.9619 21.4934 89.3784 21.9049 94.0133 18.9493V22.8688C94.0133 22.8688 87.796 26.5627 80.5936 23.7176C80.5936 23.7176 74.5391 21.5067 74.3085 14.2517C74.3085 14.2517 74.0567 6.7898 82.1315 4.3128C82.1315 4.3128 84.2878 3.4873 88.1628 3.8542C88.1629 3.8541 90.4789 4.0832 93.8301 5.4825ZM69.7547 28.5013H100V0H69.7547V28.5013Z" fill="black"/>
</svg>
