
<svg xmlns="http://www.w3.org/2000/svg" xmlns:xlink="http://www.w3.org/1999/xlink"  height="15" width="160" viewBox="0 0 412 29" version="1.1">
<defs>
<clipPath id="clip1">
  <path d="M 72 0 L 101 0 L 101 29 L 72 29 Z M 72 0 "/>
</clipPath>
<clipPath id="clip2">
  <path d="M 86.257812 28.675781 C 94.339844 28.675781 100.894531 22.117188 100.894531 14.03125 C 100.894531 5.945312 94.339844 -0.613281 86.257812 -0.613281 C 78.179688 -0.613281 71.625 5.945312 71.625 14.03125 C 71.625 22.117188 78.179688 28.675781 86.257812 28.675781 "/>
</clipPath>
</defs>
<g id="surface1">
<g clip-path="url(#clip1)" clip-rule="nonzero">
<g clip-path="url(#clip2)" clip-rule="nonzero">
<path style=" stroke:none;fill-rule:nonzero;fill:rgb(89.411765%,10.980392%,16.078431%);fill-opacity:1;" d="M 86.679688 15.417969 L 86.898438 15.464844 L 86.832031 15.671875 L 86.859375 15.6875 L 87.179688 15.3125 L 87.164062 15.285156 L 86.679688 15.386719 Z M 86.714844 14.824219 L 86.746094 14.839844 L 87.023438 14.539062 L 87.007812 14.511719 L 86.601562 14.578125 L 86.601562 14.609375 L 86.777344 14.652344 Z M 85.792969 17.191406 L 85.464844 17.191406 L 85.453125 17.222656 L 85.585938 17.28125 L 85.515625 17.402344 L 85.539062 17.425781 L 85.800781 17.222656 Z M 86.492188 16.640625 L 86.078125 16.65625 L 86.074219 16.6875 L 86.242188 16.753906 L 86.160156 16.914062 L 86.1875 16.933594 L 86.503906 16.671875 Z M 86.824219 16.277344 L 87.050781 16.3125 L 87 16.535156 L 87.027344 16.550781 L 87.335938 16.136719 L 87.320312 16.113281 L 86.820312 16.246094 Z M 85.730469 17.917969 L 85.722656 17.949219 L 85.855469 18.007812 L 85.785156 18.128906 L 85.8125 18.152344 L 86.070312 17.949219 L 86.0625 17.921875 Z M 87.789062 17.945312 L 88.007812 17.703125 L 87.992188 17.675781 L 87.667969 17.730469 L 87.667969 17.765625 L 87.804688 17.796875 L 87.757812 17.929688 Z M 87.949219 15.863281 L 88.328125 15.34375 L 88.308594 15.316406 L 87.691406 15.496094 L 87.695312 15.527344 L 87.984375 15.566406 L 87.921875 15.851562 Z M 86.757812 17.34375 L 86.34375 17.339844 L 86.335938 17.375 L 86.503906 17.445312 L 86.414062 17.601562 L 86.441406 17.625 L 86.769531 17.371094 Z M 87.511719 14.519531 L 87.796875 14.597656 L 87.695312 14.871094 L 87.71875 14.886719 L 88.167969 14.421875 L 88.152344 14.394531 L 87.515625 14.488281 Z M 87.324219 17.367188 L 87.65625 16.976562 L 87.640625 16.949219 L 87.136719 17.054688 L 87.136719 17.085938 L 87.359375 17.132812 L 87.292969 17.351562 Z M 88.355469 13.398438 L 88.378906 13.417969 L 88.640625 13.214844 L 88.628906 13.1875 L 88.300781 13.1875 L 88.292969 13.21875 L 88.425781 13.273438 Z M 87.457031 13.949219 L 87.484375 13.972656 L 87.890625 13.65625 L 87.878906 13.625 L 87.363281 13.625 L 87.355469 13.65625 L 87.570312 13.75 Z M 89.148438 16.503906 L 89.148438 16.535156 L 89.324219 16.578125 L 89.265625 16.75 L 89.289062 16.765625 L 89.570312 16.464844 L 89.558594 16.433594 Z M 90.375 13.601562 L 90.402344 13.621094 L 90.664062 13.417969 L 90.652344 13.390625 L 90.324219 13.390625 L 90.316406 13.421875 L 90.449219 13.476562 Z M 87.089844 17.984375 L 86.761719 17.980469 L 86.757812 18.011719 L 86.882812 18.070312 L 86.816406 18.191406 L 86.839844 18.214844 L 87.101562 18.011719 Z M 89.453125 13.449219 L 89.480469 13.46875 L 89.804688 13.214844 L 89.796875 13.1875 L 89.382812 13.1875 L 89.375 13.21875 L 89.539062 13.289062 Z M 88.824219 15.640625 L 89.046875 15.683594 L 88.984375 15.90625 L 89.015625 15.921875 L 89.339844 15.523438 L 89.324219 15.496094 L 88.820312 15.609375 Z M 89.140625 12.707031 L 90.816406 12.710938 C 90.816406 12.710938 91.34375 12.910156 92.039062 13.1875 C 92.359375 13.316406 92.527344 13.605469 92.5 13.933594 C 92.5 13.933594 92.773438 14.210938 92.929688 14.382812 C 93.109375 14.59375 93.132812 14.886719 92.988281 15.078125 C 92.847656 15.261719 92.644531 15.308594 92.558594 15.320312 L 92.542969 15.289062 C 92.652344 15.179688 92.605469 15.003906 92.511719 14.863281 C 92.40625 14.714844 92.316406 14.6875 92.210938 14.75 C 92.164062 14.78125 92.105469 14.824219 92.105469 14.824219 L 92.367188 15.238281 L 92.359375 15.269531 C 92.148438 15.328125 91.863281 15.28125 91.730469 15.113281 C 91.722656 15.113281 91.722656 15.113281 90.441406 15.113281 L 90.441406 15.144531 L 91.15625 15.277344 L 91.179688 15.324219 L 88.714844 18.222656 L 88.738281 18.246094 L 89.574219 17.496094 L 89.578125 18.148438 L 89.5 18.347656 L 89.578125 18.804688 L 89.550781 19.003906 C 89.550781 19.003906 90.3125 19.65625 90.320312 19.65625 C 90.320312 19.65625 90.332031 19.664062 90.339844 19.667969 C 90.347656 19.671875 90.359375 19.675781 90.371094 19.683594 C 90.378906 19.691406 90.394531 19.695312 90.40625 19.703125 C 90.417969 19.710938 90.433594 19.722656 90.449219 19.730469 C 90.460938 19.738281 90.472656 19.75 90.488281 19.761719 C 90.503906 19.773438 90.515625 19.785156 90.527344 19.800781 C 90.539062 19.8125 90.554688 19.828125 90.566406 19.839844 C 90.578125 19.855469 90.589844 19.871094 90.597656 19.886719 C 90.609375 19.898438 90.617188 19.917969 90.628906 19.929688 C 90.636719 19.949219 90.644531 19.960938 90.652344 19.976562 C 90.660156 19.992188 90.667969 20.007812 90.671875 20.023438 C 90.675781 20.035156 90.679688 20.046875 90.683594 20.0625 C 90.691406 20.070312 90.691406 20.082031 90.695312 20.09375 C 90.699219 20.113281 90.703125 20.125 90.703125 20.125 L 90.738281 20.125 C 90.738281 20.125 90.746094 20.113281 90.75 20.09375 C 90.753906 20.085938 90.757812 20.074219 90.757812 20.058594 C 90.761719 20.042969 90.765625 20.027344 90.765625 20.007812 L 90.765625 19.976562 C 90.761719 19.96875 90.761719 19.957031 90.761719 19.945312 C 90.757812 19.925781 90.75 19.902344 90.746094 19.882812 C 90.738281 19.859375 90.726562 19.835938 90.714844 19.8125 C 90.703125 19.792969 90.6875 19.773438 90.671875 19.75 C 90.65625 19.734375 90.636719 19.714844 90.617188 19.699219 C 90.597656 19.683594 90.578125 19.667969 90.558594 19.65625 C 90.535156 19.648438 90.515625 19.636719 90.496094 19.632812 C 90.488281 19.628906 90.480469 19.625 90.472656 19.625 C 90.566406 19.601562 90.664062 19.582031 90.757812 19.558594 C 90.757812 19.558594 90.757812 19.558594 90.757812 19.5625 C 90.765625 19.5625 90.777344 19.570312 90.789062 19.578125 C 90.800781 19.582031 90.8125 19.589844 90.824219 19.597656 C 90.839844 19.605469 90.851562 19.613281 90.863281 19.625 C 90.882812 19.632812 90.890625 19.644531 90.90625 19.65625 C 90.917969 19.667969 90.933594 19.679688 90.945312 19.691406 C 90.960938 19.707031 90.972656 19.71875 90.984375 19.734375 C 90.996094 19.75 91.007812 19.761719 91.019531 19.777344 C 91.027344 19.792969 91.039062 19.808594 91.046875 19.824219 C 91.054688 19.839844 91.066406 19.855469 91.070312 19.871094 C 91.078125 19.886719 91.085938 19.902344 91.089844 19.914062 C 91.097656 19.929688 91.101562 19.941406 91.105469 19.953125 C 91.109375 19.964844 91.113281 19.976562 91.117188 19.984375 C 91.121094 20.003906 91.125 20.015625 91.125 20.015625 L 91.15625 20.019531 C 91.15625 20.019531 91.164062 20.007812 91.167969 19.988281 C 91.171875 19.980469 91.175781 19.96875 91.179688 19.953125 C 91.183594 19.9375 91.183594 19.917969 91.183594 19.898438 L 91.183594 19.871094 C 91.183594 19.859375 91.179688 19.851562 91.179688 19.839844 C 91.179688 19.816406 91.167969 19.796875 91.164062 19.773438 C 91.15625 19.75 91.144531 19.730469 91.132812 19.707031 C 91.121094 19.683594 91.105469 19.664062 91.089844 19.644531 C 91.074219 19.625 91.054688 19.609375 91.039062 19.59375 C 91.015625 19.574219 90.996094 19.5625 90.976562 19.550781 C 90.957031 19.542969 90.9375 19.53125 90.917969 19.527344 C 92.265625 19.234375 93.3125 19.035156 93.3125 19.035156 C 94.675781 19.84375 94.589844 19.792969 94.875 19.953125 C 95.394531 20.242188 95.371094 21.089844 94.386719 21.089844 C 93.648438 21.089844 92.28125 21.21875 91.445312 21.378906 L 92.183594 20.710938 L 92.160156 20.6875 C 92.160156 20.6875 91.429688 21.214844 90.566406 21.648438 C 90.097656 21.835938 89.390625 22.144531 88.660156 22.46875 L 89.738281 21.449219 L 89.714844 21.425781 C 89.714844 21.425781 88.339844 22.535156 87.363281 23.050781 C 86.78125 23.316406 86.273438 23.546875 85.992188 23.675781 C 85.597656 23.859375 85.285156 23.90625 84.847656 23.753906 C 84.144531 23.503906 83.871094 23.40625 83.277344 23.179688 C 82.933594 23.046875 82.90625 22.5625 83.277344 22.445312 C 83.4375 22.390625 83.855469 22.257812 84.136719 22.167969 C 84.257812 22.222656 84.382812 22.277344 84.507812 22.332031 C 84.703125 22.421875 84.902344 22.507812 85.089844 22.589844 C 85.183594 22.628906 85.273438 22.667969 85.359375 22.707031 C 85.378906 22.714844 85.398438 22.722656 85.421875 22.734375 C 85.433594 22.738281 85.441406 22.742188 85.453125 22.746094 L 85.46875 22.753906 L 85.472656 22.753906 L 85.476562 22.757812 C 85.519531 22.78125 85.542969 22.800781 85.574219 22.824219 C 85.632812 22.875 85.671875 22.929688 85.691406 22.988281 C 85.710938 23.046875 85.714844 23.097656 85.714844 23.144531 C 85.710938 23.1875 85.703125 23.222656 85.695312 23.246094 C 85.6875 23.269531 85.6875 23.28125 85.6875 23.28125 L 85.722656 23.296875 C 85.722656 23.296875 85.726562 23.285156 85.738281 23.261719 C 85.75 23.234375 85.761719 23.199219 85.769531 23.148438 C 85.773438 23.097656 85.773438 23.035156 85.753906 22.96875 C 85.734375 22.898438 85.695312 22.828125 85.632812 22.765625 C 85.601562 22.734375 85.5625 22.699219 85.527344 22.679688 L 85.519531 22.675781 L 85.511719 22.667969 L 85.496094 22.660156 C 85.484375 22.65625 85.476562 22.648438 85.46875 22.644531 C 85.445312 22.632812 85.425781 22.621094 85.40625 22.609375 C 85.324219 22.5625 85.238281 22.515625 85.152344 22.464844 C 84.976562 22.363281 84.789062 22.253906 84.601562 22.148438 C 84.183594 21.910156 83.769531 21.671875 83.480469 21.507812 C 83.476562 21.503906 83.476562 21.503906 83.476562 21.503906 C 83.476562 21.503906 84.929688 21.046875 86.789062 20.535156 L 87.085938 20.667969 L 87.097656 20.648438 L 87.101562 20.640625 L 86.925781 20.5 L 86.464844 20.128906 L 86.238281 20.050781 L 86.085938 19.632812 L 85.882812 19.519531 L 85.679688 18.589844 L 85.648438 18.597656 L 85.730469 19.609375 L 85.152344 19.933594 L 85.152344 18.597656 L 85.121094 18.589844 L 84.953125 20.003906 L 84.175781 20.152344 L 84.4375 18.621094 L 84.40625 18.613281 L 83.929688 20.179688 L 83.167969 20.230469 L 83.71875 18.597656 L 83.6875 18.582031 L 82.875 20.25 L 82.871094 20.25 L 82.121094 20.296875 L 82.996094 18.570312 L 82.96875 18.554688 L 81.769531 20.332031 L 80.96875 20.457031 L 82.269531 18.542969 L 82.242188 18.519531 L 80.054688 21.066406 L 79.9375 20.984375 L 81.898438 17.910156 L 84.898438 16.789062 C 84.898438 16.789062 85.097656 16.699219 85.214844 16.652344 C 85.273438 16.625 85.332031 16.601562 85.398438 16.570312 C 85.429688 16.554688 85.460938 16.535156 85.492188 16.515625 C 85.523438 16.5 85.550781 16.480469 85.582031 16.457031 C 85.636719 16.414062 85.695312 16.371094 85.742188 16.320312 L 85.777344 16.285156 C 85.789062 16.269531 85.800781 16.257812 85.8125 16.246094 C 85.835938 16.21875 85.855469 16.191406 85.875 16.167969 C 85.894531 16.140625 85.910156 16.113281 85.929688 16.085938 C 85.945312 16.058594 85.960938 16.03125 85.976562 16.003906 C 85.988281 15.980469 86 15.953125 86.015625 15.925781 C 86.023438 15.902344 86.035156 15.875 86.046875 15.851562 C 86.0625 15.804688 86.078125 15.757812 86.089844 15.714844 C 86.101562 15.675781 86.105469 15.636719 86.113281 15.609375 C 86.117188 15.578125 86.121094 15.558594 86.125 15.539062 C 86.125 15.523438 86.125 15.515625 86.125 15.515625 L 86.089844 15.507812 C 86.089844 15.507812 86.089844 15.519531 86.085938 15.535156 C 86.082031 15.550781 86.078125 15.574219 86.070312 15.601562 C 86.0625 15.628906 86.054688 15.664062 86.039062 15.699219 C 86.027344 15.738281 86.007812 15.78125 85.988281 15.828125 C 85.976562 15.847656 85.964844 15.871094 85.953125 15.894531 C 85.941406 15.917969 85.925781 15.941406 85.910156 15.96875 C 85.894531 15.988281 85.878906 16.015625 85.859375 16.039062 C 85.839844 16.0625 85.824219 16.085938 85.804688 16.109375 C 85.78125 16.132812 85.761719 16.15625 85.738281 16.175781 L 85.703125 16.210938 L 85.667969 16.242188 C 85.621094 16.28125 85.566406 16.320312 85.511719 16.355469 C 85.484375 16.371094 85.453125 16.386719 85.425781 16.402344 C 85.394531 16.414062 85.371094 16.429688 85.339844 16.441406 C 85.28125 16.464844 85.21875 16.484375 85.160156 16.507812 C 85.039062 16.550781 84.929688 16.589844 84.832031 16.625 C 84.738281 16.660156 84.65625 16.6875 84.601562 16.707031 L 84.410156 16.316406 L 84.796875 15.972656 L 84.777344 15.949219 L 83.738281 16.585938 L 83.496094 16.097656 L 84.902344 15.054688 L 84.878906 15.023438 L 82.738281 16.304688 L 82.542969 15.789062 L 84.558594 14.441406 L 84.542969 14.414062 L 81.945312 15.839844 L 81.820312 15.355469 L 84.019531 13.957031 L 84.003906 13.929688 L 81.3125 15.300781 L 81.234375 14.726562 L 83.453125 13.53125 L 83.441406 13.5 L 80.695312 14.644531 L 80.683594 14.085938 L 82.921875 13.210938 L 82.914062 13.175781 L 80.191406 13.921875 L 80.222656 13.308594 L 82.292969 12.835938 L 82.285156 12.800781 L 79.636719 13.164062 L 79.722656 12.636719 L 81.671875 12.425781 L 81.671875 12.394531 L 78.949219 12.4375 L 78.992188 11.992188 L 81.160156 11.976562 L 81.164062 11.945312 L 77.265625 11.660156 L 77.257812 11.621094 L 77.890625 11.402344 L 77.890625 11.371094 L 76.277344 10.753906 L 76.277344 10.722656 L 76.925781 10.667969 L 76.929688 10.636719 L 75.535156 9.773438 L 75.546875 9.726562 L 76.523438 9.78125 L 76.535156 9.75 L 75.410156 8.695312 L 75.421875 8.664062 L 75.953125 8.765625 L 75.96875 8.738281 L 75.441406 8.074219 L 75.113281 7.132812 L 75.144531 7.117188 L 75.652344 7.753906 L 76.792969 8.410156 L 76.816406 8.386719 L 76.078125 7.304688 L 75.804688 6.09375 L 75.835938 6.082031 L 76.433594 6.976562 L 77.585938 7.914062 L 77.609375 7.890625 L 76.90625 6.609375 L 76.660156 5.042969 L 76.699219 5.035156 L 77.390625 6.367188 L 78.835938 7.570312 L 78.863281 7.546875 L 77.867188 5.949219 L 77.640625 4.03125 L 77.671875 4.019531 L 78.292969 5.722656 L 80.34375 7.570312 L 82.929688 8.890625 L 85.769531 12.839844 L 86.871094 13.769531 L 86.898438 13.742188 L 86.414062 13.113281 L 86.421875 13.113281 L 86.414062 13.113281 L 87.550781 12.820312 L 87.550781 12.785156 L 86.5625 12.726562 L 86.558594 12.691406 L 88.007812 12.433594 L 88.003906 12.402344 L 86.195312 12.265625 L 86.195312 12.230469 L 88.5 11.84375 L 89.417969 12.058594 L 89.429688 12.027344 L 88.554688 11.628906 L 87.125 11.65625 L 87.121094 11.625 L 88.644531 11.335938 L 89.589844 11.660156 L 89.605469 11.628906 L 88.746094 11.082031 L 87.730469 11.042969 L 87.730469 11.003906 L 88.867188 10.828125 L 89.863281 11.296875 L 89.878906 11.265625 L 89.058594 10.496094 L 88.167969 10.492188 L 88.164062 10.457031 L 89.25 10.210938 L 90.214844 11.003906 L 90.238281 10.980469 L 89.496094 9.898438 L 88.6875 9.746094 L 88.691406 9.714844 L 89.714844 9.652344 L 90.632812 10.773438 L 90.660156 10.753906 L 90 9.359375 L 89.117188 9.070312 L 89.121094 9.035156 L 90.25 9.128906 L 91.105469 10.597656 L 91.132812 10.585938 L 90.566406 8.859375 L 89.457031 8.460938 L 89.464844 8.429688 L 90.804688 8.667969 L 91.550781 10.445312 L 91.585938 10.4375 L 91.097656 8.457031 L 89.90625 7.78125 L 89.921875 7.75 L 91.335938 8.285156 L 92.011719 10.269531 L 92.042969 10.261719 L 91.621094 8.097656 L 90.332031 7.15625 L 90.351562 7.125 L 91.855469 7.949219 L 92.441406 10.035156 L 92.476562 10.027344 L 92.109375 7.792969 L 90.753906 6.59375 L 90.773438 6.566406 L 92.359375 7.648438 L 92.816406 9.773438 L 92.847656 9.765625 L 92.617188 7.507812 L 91.265625 6.042969 L 91.289062 6.015625 L 92.855469 7.355469 L 93.199219 9.417969 L 93.234375 9.414062 L 93.082031 7.25 L 91.804688 5.578125 L 91.828125 5.554688 L 93.332031 7.128906 L 93.570312 8.914062 L 93.605469 8.910156 L 93.527344 7.023438 L 92.359375 5.234375 L 92.386719 5.210938 L 93.738281 6.925781 L 93.917969 8.207031 L 93.953125 8.203125 L 93.890625 6.835938 L 93.058594 4.976562 L 93.085938 4.960938 L 94.121094 6.71875 L 94.214844 7.441406 L 94.246094 7.4375 L 94.296875 6.617188 L 93.867188 4.867188 L 93.898438 4.855469 L 94.492188 6.324219 L 94.527344 6.324219 L 94.890625 4.859375 L 94.925781 4.867188 L 94.804688 6.308594 L 94.839844 6.316406 L 95.839844 4.875 L 95.867188 4.890625 L 95.21875 6.195312 L 95.242188 6.21875 L 96.773438 5.125 L 96.789062 5.152344 L 94.457031 8.304688 C 94.457031 8.304688 93.699219 10.324219 93.457031 11 C 93.40625 11.132812 93.324219 11.222656 93.195312 11.273438 C 93.121094 11.304688 91.300781 12.03125 91.300781 12.03125 L 90.804688 12.472656 L 89.132812 12.667969 Z M 86.578125 0 C 78.65625 0 72.238281 6.425781 72.238281 14.351562 C 72.238281 22.277344 78.65625 28.703125 86.578125 28.703125 C 94.5 28.703125 100.921875 22.277344 100.921875 14.351562 C 100.921875 6.425781 94.5 0 86.578125 0 M 88.6875 14.683594 L 88.964844 14.742188 L 88.878906 15.007812 L 88.90625 15.023438 L 89.3125 14.558594 L 89.296875 14.53125 L 88.691406 14.648438 Z M 89.816406 15.855469 L 89.953125 15.890625 L 89.90625 16.023438 L 89.933594 16.039062 L 90.15625 15.796875 L 90.144531 15.769531 L 89.820312 15.824219 Z M 87.636719 20.382812 C 87.652344 20.390625 87.664062 20.398438 87.679688 20.410156 C 87.691406 20.417969 87.703125 20.429688 87.71875 20.4375 C 87.734375 20.453125 87.75 20.460938 87.761719 20.476562 C 87.765625 20.480469 87.769531 20.480469 87.769531 20.484375 C 87.78125 20.496094 87.789062 20.503906 87.800781 20.515625 C 87.8125 20.53125 87.824219 20.546875 87.832031 20.558594 C 87.84375 20.574219 87.855469 20.589844 87.863281 20.605469 C 87.871094 20.621094 87.882812 20.636719 87.886719 20.652344 C 87.894531 20.664062 87.902344 20.679688 87.90625 20.695312 C 87.914062 20.710938 87.917969 20.722656 87.921875 20.734375 C 87.929688 20.746094 87.933594 20.753906 87.933594 20.765625 C 87.941406 20.785156 87.945312 20.796875 87.945312 20.796875 L 87.976562 20.796875 C 87.976562 20.796875 87.984375 20.785156 87.988281 20.765625 C 87.992188 20.757812 87.996094 20.746094 87.996094 20.730469 C 88 20.714844 88.003906 20.695312 88 20.679688 C 88 20.667969 88 20.660156 88 20.648438 C 88 20.640625 88 20.628906 87.996094 20.617188 C 87.992188 20.597656 87.984375 20.574219 87.980469 20.550781 C 87.96875 20.53125 87.960938 20.507812 87.949219 20.488281 C 87.941406 20.472656 87.929688 20.460938 87.921875 20.445312 L 87.902344 20.425781 C 87.886719 20.40625 87.867188 20.390625 87.847656 20.375 C 87.828125 20.359375 87.808594 20.34375 87.789062 20.332031 C 87.765625 20.324219 87.746094 20.3125 87.722656 20.308594 C 87.714844 20.304688 87.703125 20.300781 87.695312 20.300781 C 87.6875 20.296875 87.683594 20.296875 87.675781 20.296875 C 87.671875 20.296875 87.667969 20.296875 87.664062 20.296875 C 87.648438 20.292969 87.632812 20.292969 87.617188 20.292969 C 87.601562 20.292969 87.585938 20.292969 87.578125 20.296875 C 87.554688 20.296875 87.546875 20.300781 87.546875 20.300781 L 87.542969 20.332031 L 87.542969 20.335938 C 87.542969 20.335938 87.550781 20.339844 87.570312 20.347656 C 87.578125 20.351562 87.589844 20.359375 87.601562 20.363281 C 87.613281 20.371094 87.625 20.375 87.636719 20.382812 M 88.9375 20.90625 C 88.902344 20.917969 88.863281 20.925781 88.820312 20.941406 C 88.742188 20.964844 88.652344 20.988281 88.550781 21.019531 C 88.46875 21.042969 88.382812 21.070312 88.292969 21.097656 C 88.246094 21.109375 88.199219 21.125 88.152344 21.140625 L 88.007812 21.1875 C 87.808594 21.257812 87.597656 21.332031 87.386719 21.402344 C 87.253906 21.449219 87.121094 21.503906 86.992188 21.550781 C 86.917969 21.578125 86.847656 21.605469 86.773438 21.632812 C 86.707031 21.660156 86.644531 21.683594 86.582031 21.707031 C 86.554688 21.71875 86.523438 21.730469 86.492188 21.742188 C 86.425781 21.769531 86.359375 21.796875 86.296875 21.824219 L 86.242188 21.84375 C 86.144531 21.886719 86.054688 21.925781 85.976562 21.957031 C 85.941406 21.972656 85.902344 21.988281 85.875 22.003906 C 85.78125 22.039062 85.730469 22.0625 85.730469 22.0625 L 85.722656 22.066406 L 85.742188 22.117188 L 85.753906 22.113281 C 85.753906 22.113281 85.804688 22.097656 85.898438 22.066406 C 85.929688 22.054688 85.964844 22.039062 86.003906 22.027344 C 86.082031 22 86.171875 21.964844 86.277344 21.929688 L 86.351562 21.898438 C 86.410156 21.878906 86.46875 21.855469 86.53125 21.835938 L 86.617188 21.804688 C 86.679688 21.78125 86.746094 21.757812 86.8125 21.734375 C 86.882812 21.707031 86.953125 21.679688 87.027344 21.65625 C 87.15625 21.605469 87.289062 21.558594 87.425781 21.511719 C 87.632812 21.4375 87.84375 21.359375 88.042969 21.292969 C 88.132812 21.257812 88.230469 21.222656 88.324219 21.191406 C 88.390625 21.167969 88.453125 21.148438 88.515625 21.125 L 88.578125 21.105469 C 88.679688 21.070312 88.769531 21.039062 88.84375 21.011719 C 88.890625 20.996094 88.925781 20.984375 88.960938 20.972656 L 89.113281 20.914062 L 89.097656 20.863281 Z M 86.15625 21.390625 L 86.273438 21.351562 C 86.425781 21.300781 86.578125 21.253906 86.722656 21.203125 C 86.78125 21.183594 86.832031 21.164062 86.886719 21.144531 L 86.929688 21.132812 L 87.113281 21.070312 C 87.191406 21.042969 87.261719 21.019531 87.316406 21 C 87.34375 20.992188 87.367188 20.980469 87.390625 20.972656 C 87.457031 20.949219 87.496094 20.933594 87.496094 20.933594 L 87.507812 20.929688 L 87.492188 20.878906 L 87.480469 20.882812 C 87.480469 20.882812 87.441406 20.890625 87.371094 20.90625 L 87.316406 20.921875 C 87.253906 20.9375 87.175781 20.953125 87.085938 20.976562 L 86.898438 21.027344 C 86.851562 21.039062 86.800781 21.054688 86.753906 21.070312 L 86.6875 21.089844 C 86.554688 21.132812 86.40625 21.179688 86.234375 21.234375 C 86.109375 21.277344 85.992188 21.320312 85.875 21.363281 L 85.785156 21.394531 L 85.742188 21.410156 C 85.617188 21.453125 85.5 21.496094 85.398438 21.539062 C 85.355469 21.554688 85.3125 21.570312 85.277344 21.585938 L 85.246094 21.601562 L 85.125 21.648438 C 85.0625 21.675781 85.023438 21.691406 85.023438 21.691406 L 85.011719 21.695312 L 85.03125 21.746094 C 85.03125 21.746094 85.082031 21.730469 85.148438 21.710938 C 85.171875 21.703125 85.199219 21.695312 85.230469 21.683594 L 85.316406 21.660156 C 85.351562 21.648438 85.390625 21.636719 85.429688 21.625 C 85.5 21.601562 85.578125 21.574219 85.664062 21.550781 C 85.714844 21.53125 85.769531 21.515625 85.824219 21.5 C 85.929688 21.464844 86.042969 21.425781 86.15625 21.390625 M 88.492188 17.257812 L 88.492188 17.289062 L 88.667969 17.332031 L 88.609375 17.503906 L 88.636719 17.519531 L 88.914062 17.21875 L 88.902344 17.191406 Z M 88.195312 16.839844 L 88.554688 16.304688 L 88.539062 16.28125 L 87.925781 16.480469 L 87.929688 16.515625 L 88.21875 16.539062 L 88.167969 16.828125 Z M 90.105469 14.902344 L 89.695312 14.941406 L 89.691406 14.972656 L 89.863281 15.03125 L 89.789062 15.195312 L 89.816406 15.210938 L 90.117188 14.933594 Z M 88.191406 19.488281 L 87.34375 18.449219 L 87.300781 18.46875 L 87.515625 19.703125 L 87.960938 20.222656 C 87.960938 20.222656 87.976562 20.226562 87.984375 20.234375 C 87.996094 20.238281 88.007812 20.242188 88.015625 20.25 C 88.027344 20.253906 88.042969 20.261719 88.054688 20.269531 C 88.066406 20.277344 88.082031 20.285156 88.097656 20.292969 C 88.109375 20.300781 88.121094 20.316406 88.136719 20.324219 C 88.148438 20.335938 88.164062 20.347656 88.179688 20.359375 C 88.191406 20.371094 88.203125 20.386719 88.214844 20.402344 C 88.226562 20.414062 88.242188 20.429688 88.25 20.445312 C 88.261719 20.460938 88.269531 20.476562 88.28125 20.492188 C 88.289062 20.507812 88.300781 20.519531 88.304688 20.535156 C 88.3125 20.550781 88.320312 20.566406 88.324219 20.582031 C 88.332031 20.59375 88.335938 20.605469 88.339844 20.617188 C 88.34375 20.628906 88.347656 20.640625 88.351562 20.652344 C 88.355469 20.667969 88.363281 20.679688 88.363281 20.679688 L 88.394531 20.679688 C 88.394531 20.679688 88.398438 20.671875 88.40625 20.652344 C 88.410156 20.644531 88.414062 20.628906 88.414062 20.613281 C 88.417969 20.597656 88.421875 20.582031 88.417969 20.5625 L 88.417969 20.535156 C 88.417969 20.523438 88.414062 20.511719 88.414062 20.503906 C 88.410156 20.480469 88.402344 20.460938 88.394531 20.4375 C 88.386719 20.414062 88.378906 20.394531 88.363281 20.371094 C 88.351562 20.347656 88.335938 20.328125 88.320312 20.308594 C 88.304688 20.292969 88.285156 20.273438 88.265625 20.257812 C 88.246094 20.242188 88.222656 20.230469 88.203125 20.21875 C 88.179688 20.210938 88.164062 20.199219 88.140625 20.191406 C 88.128906 20.191406 88.121094 20.1875 88.109375 20.183594 C 88.121094 20.179688 88.132812 20.179688 88.144531 20.175781 C 88.226562 20.15625 88.308594 20.132812 88.390625 20.113281 C 88.394531 20.113281 88.398438 20.117188 88.402344 20.117188 C 88.414062 20.121094 88.425781 20.125 88.433594 20.132812 C 88.445312 20.140625 88.457031 20.144531 88.46875 20.152344 C 88.484375 20.160156 88.496094 20.167969 88.511719 20.179688 C 88.527344 20.1875 88.539062 20.199219 88.554688 20.210938 C 88.566406 20.222656 88.582031 20.230469 88.59375 20.246094 C 88.609375 20.257812 88.621094 20.273438 88.632812 20.285156 C 88.644531 20.300781 88.65625 20.3125 88.667969 20.328125 C 88.679688 20.34375 88.6875 20.359375 88.695312 20.375 C 88.707031 20.390625 88.714844 20.40625 88.722656 20.421875 C 88.726562 20.433594 88.738281 20.449219 88.742188 20.464844 C 88.75 20.480469 88.753906 20.492188 88.757812 20.503906 C 88.761719 20.511719 88.765625 20.523438 88.769531 20.535156 C 88.773438 20.554688 88.777344 20.566406 88.777344 20.566406 L 88.8125 20.566406 C 88.8125 20.566406 88.816406 20.554688 88.824219 20.535156 C 88.824219 20.527344 88.832031 20.515625 88.832031 20.5 C 88.835938 20.484375 88.835938 20.464844 88.835938 20.449219 L 88.835938 20.417969 C 88.832031 20.410156 88.832031 20.398438 88.832031 20.386719 C 88.828125 20.367188 88.820312 20.34375 88.8125 20.320312 C 88.804688 20.300781 88.796875 20.277344 88.78125 20.257812 C 88.769531 20.234375 88.753906 20.214844 88.738281 20.195312 C 88.71875 20.175781 88.703125 20.15625 88.679688 20.144531 C 88.664062 20.128906 88.640625 20.113281 88.621094 20.101562 C 88.597656 20.09375 88.578125 20.082031 88.558594 20.078125 C 88.554688 20.078125 88.550781 20.074219 88.546875 20.074219 C 88.777344 20.015625 89.011719 19.960938 89.246094 19.902344 L 88.488281 19.480469 Z M 89.605469 14 L 89.820312 14.089844 L 89.707031 14.292969 L 89.734375 14.3125 L 90.140625 13.996094 L 90.125 13.96875 L 89.613281 13.964844 Z M 82.148438 9.300781 L 81.1875 9.792969 L 81.132812 9.507812 L 81.089844 9.511719 L 81.082031 9.984375 L 81.121094 10.003906 L 82.171875 9.339844 Z M 83.070312 10.460938 L 81.726562 11.191406 L 81.671875 10.90625 L 81.628906 10.910156 L 81.621094 11.386719 L 81.65625 11.40625 L 83.09375 10.5 Z M 82.628906 9.867188 L 81.355469 10.539062 L 81.304688 10.253906 L 81.261719 10.261719 L 81.257812 10.734375 L 81.289062 10.75 L 82.652344 9.90625 Z M 84.617188 12.191406 L 83.65625 12.683594 L 83.605469 12.402344 L 83.5625 12.410156 L 83.554688 12.875 L 83.589844 12.894531 L 84.640625 12.230469 Z M 84.09375 11.617188 L 82.933594 12.222656 L 82.882812 11.9375 L 82.839844 11.945312 L 82.832031 12.414062 L 82.867188 12.4375 L 84.121094 11.65625 Z M 83.578125 11.058594 L 82.257812 11.746094 L 82.207031 11.460938 L 82.160156 11.464844 L 82.15625 11.9375 L 82.195312 11.957031 L 83.597656 11.097656 Z M 80.457031 10.332031 L 80.46875 10.277344 L 77.511719 9.464844 L 76.179688 8.378906 L 76.140625 8.414062 L 77.375 9.664062 Z M 80.539062 9.726562 L 80.558594 9.675781 L 78.054688 8.863281 L 76.816406 7.699219 L 76.777344 7.738281 L 77.890625 9.050781 Z M 88.546875 13.785156 L 88.757812 13.878906 L 88.644531 14.078125 L 88.667969 14.101562 L 89.074219 13.785156 L 89.066406 13.757812 L 88.550781 13.753906 Z M 77.511719 10.933594 L 78.601562 11.25 L 80.757812 11.449219 L 80.765625 11.390625 L 77.523438 10.878906 Z M 77.789062 7.210938 L 77.75 7.242188 L 78.65625 8.492188 L 80.847656 9.21875 L 80.867188 9.164062 L 78.839844 8.328125 Z M 85.054688 12.792969 L 84.367188 13.121094 L 84.3125 12.859375 L 84.269531 12.859375 L 84.261719 13.3125 L 84.300781 13.328125 L 85.078125 12.828125 Z M 80.496094 10.8125 L 76.398438 9.96875 L 76.382812 10.019531 L 77.445312 10.410156 L 80.484375 10.871094 Z M 81.699219 8.933594 L 81.726562 8.878906 L 79.828125 7.96875 L 78.675781 6.433594 L 78.632812 6.460938 L 79.664062 8.144531 Z M 89.707031 20.71875 C 89.707031 20.71875 89.726562 20.71875 89.761719 20.710938 C 89.773438 20.710938 89.785156 20.707031 89.800781 20.707031 C 89.828125 20.703125 89.867188 20.695312 89.90625 20.6875 C 89.972656 20.675781 90.039062 20.664062 90.105469 20.648438 C 90.167969 20.636719 90.234375 20.621094 90.300781 20.605469 L 90.339844 20.597656 C 90.414062 20.582031 90.492188 20.5625 90.5625 20.546875 C 90.640625 20.527344 90.707031 20.507812 90.761719 20.492188 C 90.800781 20.484375 90.832031 20.472656 90.859375 20.464844 C 90.875 20.460938 90.886719 20.457031 90.902344 20.453125 C 90.933594 20.441406 90.953125 20.433594 90.953125 20.433594 L 90.960938 20.433594 L 90.953125 20.382812 L 90.941406 20.382812 C 90.941406 20.382812 90.921875 20.382812 90.886719 20.386719 C 90.875 20.390625 90.859375 20.390625 90.84375 20.394531 C 90.816406 20.394531 90.78125 20.402344 90.742188 20.40625 C 90.683594 20.414062 90.613281 20.425781 90.539062 20.4375 C 90.464844 20.453125 90.386719 20.46875 90.308594 20.484375 C 90.167969 20.519531 90.011719 20.5625 89.882812 20.601562 C 89.84375 20.613281 89.808594 20.628906 89.777344 20.636719 L 89.746094 20.648438 C 89.714844 20.660156 89.695312 20.667969 89.695312 20.667969 L 89.683594 20.667969 L 89.695312 20.722656 Z M 91.441406 19.949219 C 91.441406 19.949219 91.46875 19.945312 91.511719 19.941406 C 91.527344 19.9375 91.542969 19.9375 91.5625 19.933594 C 91.597656 19.929688 91.644531 19.925781 91.695312 19.917969 C 91.859375 19.894531 92.0625 19.859375 92.246094 19.824219 L 92.292969 19.816406 C 92.378906 19.800781 92.460938 19.785156 92.539062 19.765625 C 92.578125 19.757812 92.617188 19.75 92.652344 19.742188 C 92.703125 19.730469 92.75 19.722656 92.792969 19.710938 C 92.84375 19.703125 92.886719 19.691406 92.925781 19.683594 L 92.972656 19.667969 C 93.015625 19.660156 93.039062 19.652344 93.039062 19.652344 L 93.050781 19.648438 L 93.042969 19.597656 L 93.03125 19.597656 C 93.03125 19.597656 93.003906 19.601562 92.960938 19.605469 L 92.917969 19.609375 C 92.878906 19.613281 92.832031 19.617188 92.777344 19.625 L 92.765625 19.628906 C 92.691406 19.636719 92.605469 19.648438 92.519531 19.660156 C 92.429688 19.675781 92.328125 19.695312 92.234375 19.714844 L 92.226562 19.714844 C 92.046875 19.75 91.847656 19.792969 91.679688 19.832031 C 91.628906 19.839844 91.589844 19.855469 91.550781 19.863281 C 91.535156 19.867188 91.515625 19.871094 91.5 19.875 C 91.457031 19.886719 91.433594 19.894531 91.433594 19.894531 L 91.421875 19.898438 L 91.433594 19.949219 Z M 89.953125 19.789062 C 89.960938 19.796875 89.976562 19.804688 89.988281 19.808594 C 90 19.816406 90.015625 19.828125 90.027344 19.835938 C 90.039062 19.84375 90.054688 19.859375 90.070312 19.867188 C 90.074219 19.875 90.082031 19.882812 90.089844 19.886719 C 90.097656 19.894531 90.105469 19.898438 90.109375 19.90625 C 90.121094 19.917969 90.132812 19.933594 90.148438 19.945312 C 90.15625 19.960938 90.171875 19.976562 90.179688 19.992188 C 90.191406 20.007812 90.199219 20.023438 90.207031 20.039062 C 90.214844 20.054688 90.226562 20.066406 90.234375 20.082031 C 90.238281 20.097656 90.246094 20.113281 90.25 20.128906 C 90.257812 20.140625 90.261719 20.15625 90.265625 20.164062 C 90.269531 20.179688 90.277344 20.1875 90.277344 20.199219 C 90.285156 20.21875 90.285156 20.230469 90.285156 20.230469 L 90.320312 20.230469 C 90.320312 20.230469 90.324219 20.21875 90.332031 20.203125 C 90.335938 20.191406 90.339844 20.179688 90.339844 20.164062 C 90.34375 20.148438 90.347656 20.132812 90.347656 20.113281 L 90.347656 20.082031 C 90.34375 20.074219 90.34375 20.0625 90.339844 20.054688 C 90.339844 20.03125 90.332031 20.007812 90.324219 19.988281 C 90.316406 19.964844 90.308594 19.941406 90.296875 19.921875 C 90.285156 19.898438 90.269531 19.878906 90.253906 19.859375 C 90.25 19.855469 90.246094 19.851562 90.242188 19.847656 C 90.226562 19.832031 90.214844 19.816406 90.199219 19.804688 C 90.179688 19.789062 90.15625 19.777344 90.140625 19.765625 C 90.117188 19.753906 90.097656 19.742188 90.074219 19.738281 C 90.0625 19.734375 90.054688 19.730469 90.046875 19.730469 C 90.039062 19.726562 90.03125 19.726562 90.023438 19.726562 C 90.019531 19.722656 90.019531 19.722656 90.015625 19.722656 C 90 19.71875 89.984375 19.71875 89.96875 19.71875 C 89.953125 19.71875 89.941406 19.71875 89.929688 19.722656 C 89.90625 19.726562 89.898438 19.726562 89.898438 19.726562 L 89.894531 19.753906 L 89.894531 19.761719 C 89.894531 19.761719 89.902344 19.765625 89.921875 19.773438 C 89.929688 19.777344 89.9375 19.785156 89.953125 19.789062 M 91.535156 14.8125 C 91.539062 14.820312 91.542969 14.832031 91.542969 14.839844 C 91.546875 14.847656 91.546875 14.859375 91.550781 14.867188 C 91.558594 14.871094 91.5625 14.878906 91.566406 14.886719 C 91.570312 14.894531 91.574219 14.898438 91.574219 14.902344 C 91.582031 14.910156 91.585938 14.914062 91.589844 14.917969 C 91.601562 14.933594 91.613281 14.941406 91.613281 14.941406 L 91.632812 14.921875 C 91.632812 14.921875 91.632812 14.914062 91.628906 14.894531 C 91.628906 14.890625 91.628906 14.886719 91.625 14.882812 L 91.625 14.867188 C 91.625 14.855469 91.625 14.84375 91.628906 14.828125 C 91.628906 14.816406 91.632812 14.804688 91.636719 14.789062 C 91.636719 14.785156 91.640625 14.777344 91.644531 14.769531 C 91.648438 14.765625 91.648438 14.757812 91.652344 14.75 C 91.660156 14.738281 91.667969 14.726562 91.675781 14.71875 C 91.679688 14.714844 91.679688 14.710938 91.691406 14.703125 L 91.703125 14.691406 L 91.710938 14.6875 C 91.722656 14.679688 91.734375 14.671875 91.75 14.667969 C 91.761719 14.660156 91.777344 14.660156 91.792969 14.65625 C 91.796875 14.652344 91.804688 14.65625 91.8125 14.652344 C 91.820312 14.652344 91.828125 14.652344 91.832031 14.652344 C 91.839844 14.652344 91.84375 14.65625 91.851562 14.65625 C 91.859375 14.65625 91.863281 14.65625 91.871094 14.660156 C 91.886719 14.660156 91.894531 14.664062 91.902344 14.667969 C 91.910156 14.667969 91.914062 14.671875 91.917969 14.671875 C 91.921875 14.675781 91.925781 14.679688 91.929688 14.683594 C 91.949219 14.691406 91.957031 14.695312 91.957031 14.695312 L 91.984375 14.675781 C 91.984375 14.675781 91.980469 14.664062 91.972656 14.644531 C 91.972656 14.640625 91.96875 14.636719 91.964844 14.632812 C 91.960938 14.625 91.957031 14.621094 91.953125 14.613281 C 91.945312 14.609375 91.941406 14.601562 91.933594 14.597656 C 91.925781 14.585938 91.921875 14.582031 91.910156 14.578125 C 91.902344 14.574219 91.894531 14.566406 91.886719 14.5625 C 91.878906 14.558594 91.867188 14.554688 91.855469 14.550781 C 91.84375 14.542969 91.835938 14.542969 91.824219 14.539062 C 91.8125 14.539062 91.796875 14.535156 91.785156 14.535156 C 91.761719 14.535156 91.734375 14.539062 91.707031 14.546875 C 91.683594 14.550781 91.660156 14.566406 91.636719 14.582031 L 91.628906 14.585938 L 91.617188 14.597656 L 91.605469 14.605469 C 91.601562 14.613281 91.589844 14.625 91.582031 14.636719 C 91.5625 14.660156 91.554688 14.683594 91.542969 14.707031 C 91.539062 14.730469 91.53125 14.753906 91.535156 14.777344 C 91.535156 14.789062 91.535156 14.800781 91.535156 14.8125 M 91.59375 13.851562 L 91.597656 13.859375 L 91.597656 13.871094 L 91.609375 13.894531 C 91.613281 13.90625 91.628906 13.925781 91.640625 13.941406 C 91.644531 13.949219 91.652344 13.957031 91.660156 13.960938 C 91.667969 13.96875 91.671875 13.972656 91.675781 13.980469 C 91.691406 13.988281 91.703125 13.996094 91.714844 14.003906 L 91.726562 14.007812 C 91.757812 14.019531 91.789062 14.027344 91.816406 14.027344 C 91.824219 14.027344 91.828125 14.027344 91.835938 14.027344 C 91.851562 14.023438 91.867188 14.023438 91.882812 14.019531 L 91.90625 14.011719 L 91.929688 14 C 91.945312 13.988281 91.984375 13.960938 92 13.9375 C 92.015625 13.917969 92.027344 13.890625 92.035156 13.863281 L 92.035156 13.851562 C 92.039062 13.84375 92.039062 13.835938 92.039062 13.828125 C 92.039062 13.816406 92.039062 13.804688 92.039062 13.796875 C 92.039062 13.78125 92.03125 13.769531 92.027344 13.757812 L 92.027344 13.746094 C 92.011719 13.722656 92.003906 13.710938 92.003906 13.710938 L 92 13.703125 L 91.960938 13.71875 L 91.960938 13.726562 C 91.960938 13.726562 91.957031 13.738281 91.957031 13.757812 C 91.957031 13.761719 91.957031 13.761719 91.953125 13.769531 C 91.953125 13.773438 91.953125 13.78125 91.949219 13.789062 C 91.949219 13.792969 91.945312 13.800781 91.941406 13.804688 C 91.941406 13.808594 91.9375 13.8125 91.9375 13.816406 L 91.929688 13.824219 C 91.929688 13.828125 91.929688 13.828125 91.925781 13.832031 C 91.921875 13.835938 91.921875 13.835938 91.921875 13.839844 C 91.917969 13.84375 91.910156 13.847656 91.902344 13.851562 C 91.898438 13.855469 91.898438 13.859375 91.890625 13.859375 L 91.886719 13.863281 L 91.882812 13.863281 L 91.867188 13.871094 C 91.859375 13.875 91.847656 13.875 91.828125 13.875 C 91.816406 13.875 91.804688 13.871094 91.792969 13.867188 C 91.789062 13.867188 91.785156 13.863281 91.78125 13.863281 C 91.777344 13.859375 91.773438 13.859375 91.773438 13.859375 C 91.769531 13.855469 91.765625 13.851562 91.761719 13.847656 C 91.761719 13.847656 91.757812 13.847656 91.757812 13.847656 C 91.757812 13.84375 91.753906 13.839844 91.753906 13.839844 C 91.75 13.835938 91.746094 13.835938 91.746094 13.828125 L 91.734375 13.8125 L 91.734375 13.808594 C 91.730469 13.800781 91.726562 13.796875 91.726562 13.785156 C 91.722656 13.78125 91.722656 13.777344 91.722656 13.769531 L 91.722656 13.75 C 91.722656 13.75 91.726562 13.746094 91.726562 13.738281 C 91.726562 13.738281 91.726562 13.734375 91.726562 13.730469 C 91.730469 13.726562 91.730469 13.722656 91.730469 13.71875 C 91.730469 13.71875 91.734375 13.714844 91.734375 13.710938 L 91.742188 13.695312 C 91.746094 13.691406 91.746094 13.6875 91.75 13.683594 C 91.753906 13.679688 91.753906 13.675781 91.753906 13.675781 C 91.773438 13.660156 91.78125 13.648438 91.78125 13.648438 L 91.789062 13.640625 L 91.765625 13.597656 L 91.757812 13.597656 C 91.757812 13.597656 91.742188 13.597656 91.71875 13.605469 L 91.707031 13.609375 C 91.695312 13.613281 91.683594 13.621094 91.671875 13.628906 C 91.664062 13.636719 91.65625 13.644531 91.648438 13.652344 C 91.640625 13.65625 91.636719 13.664062 91.632812 13.667969 C 91.628906 13.671875 91.628906 13.675781 91.625 13.679688 C 91.605469 13.707031 91.597656 13.730469 91.59375 13.753906 C 91.589844 13.769531 91.589844 13.785156 91.589844 13.800781 C 91.585938 13.816406 91.589844 13.828125 91.59375 13.84375 Z M 92.761719 14.582031 C 92.769531 14.589844 92.773438 14.597656 92.777344 14.605469 C 92.785156 14.613281 92.789062 14.621094 92.792969 14.628906 C 92.804688 14.644531 92.8125 14.660156 92.820312 14.675781 C 92.828125 14.695312 92.835938 14.710938 92.839844 14.730469 C 92.84375 14.75 92.847656 14.765625 92.847656 14.785156 C 92.847656 14.796875 92.847656 14.804688 92.847656 14.8125 C 92.851562 14.824219 92.847656 14.832031 92.847656 14.84375 C 92.847656 14.863281 92.839844 14.878906 92.835938 14.898438 C 92.832031 14.90625 92.828125 14.914062 92.824219 14.925781 L 92.8125 14.953125 L 92.839844 14.96875 L 92.855469 14.941406 C 92.863281 14.933594 92.867188 14.921875 92.871094 14.910156 C 92.878906 14.890625 92.886719 14.871094 92.890625 14.851562 C 92.894531 14.839844 92.894531 14.828125 92.894531 14.816406 C 92.898438 14.808594 92.898438 14.796875 92.898438 14.785156 C 92.898438 14.761719 92.898438 14.742188 92.894531 14.71875 C 92.894531 14.699219 92.886719 14.675781 92.878906 14.65625 C 92.875 14.632812 92.867188 14.613281 92.855469 14.59375 C 92.851562 14.582031 92.847656 14.574219 92.839844 14.5625 C 92.835938 14.554688 92.828125 14.542969 92.824219 14.535156 C 92.8125 14.519531 92.796875 14.5 92.78125 14.484375 L 92.777344 14.480469 C 92.644531 14.355469 92.511719 14.230469 92.378906 14.105469 L 92.285156 14.21875 C 92.433594 14.324219 92.578125 14.4375 92.722656 14.546875 C 92.738281 14.558594 92.75 14.570312 92.761719 14.582031 M 85.636719 14.558594 L 85.621094 14.453125 L 85.578125 14.449219 L 85.535156 14.722656 L 85.570312 14.746094 L 86.078125 14.390625 L 86.054688 14.351562 Z M 85.445312 13.355469 L 84.957031 13.570312 L 84.914062 13.371094 L 84.871094 13.371094 L 84.851562 13.75 L 84.886719 13.769531 L 85.464844 13.390625 Z M 85.75 15.125 L 85.738281 15.023438 L 85.695312 15.019531 L 85.648438 15.292969 L 85.683594 15.316406 L 86.054688 15.046875 L 86.03125 15.011719 Z M 85.988281 13.785156 L 85.394531 14.046875 L 85.375 13.878906 L 85.332031 13.878906 L 85.292969 14.21875 L 85.328125 14.246094 L 86.011719 13.824219 Z M 92.667969 20.0625 C 92.597656 20.074219 92.527344 20.082031 92.460938 20.09375 C 92.390625 20.105469 92.320312 20.117188 92.261719 20.128906 C 92.222656 20.136719 92.183594 20.144531 92.148438 20.152344 C 92.121094 20.15625 92.097656 20.160156 92.074219 20.164062 L 91.996094 20.179688 C 91.964844 20.1875 91.933594 20.191406 91.90625 20.199219 C 91.839844 20.210938 91.78125 20.222656 91.730469 20.234375 C 91.703125 20.242188 91.675781 20.246094 91.65625 20.25 L 91.550781 20.273438 L 91.5625 20.328125 L 91.667969 20.316406 C 91.691406 20.3125 91.714844 20.308594 91.746094 20.304688 C 91.796875 20.300781 91.855469 20.292969 91.921875 20.285156 C 91.972656 20.277344 92.027344 20.269531 92.089844 20.257812 L 92.136719 20.253906 C 92.179688 20.246094 92.226562 20.242188 92.277344 20.234375 C 92.355469 20.21875 92.4375 20.210938 92.523438 20.199219 C 92.578125 20.1875 92.628906 20.183594 92.683594 20.175781 C 92.738281 20.164062 92.792969 20.160156 92.847656 20.152344 L 92.890625 20.144531 L 93.089844 20.113281 C 93.179688 20.101562 93.261719 20.085938 93.339844 20.074219 C 93.375 20.066406 93.410156 20.0625 93.449219 20.054688 C 93.507812 20.046875 93.558594 20.035156 93.609375 20.027344 C 93.640625 20.023438 93.671875 20.015625 93.699219 20.011719 L 93.804688 19.992188 L 93.796875 19.941406 L 93.785156 19.941406 C 93.785156 19.941406 93.75 19.941406 93.691406 19.945312 L 93.660156 19.949219 C 93.597656 19.953125 93.523438 19.957031 93.433594 19.96875 C 93.398438 19.972656 93.355469 19.976562 93.316406 19.980469 C 93.238281 19.988281 93.160156 19.996094 93.074219 20.007812 L 92.875 20.035156 C 92.835938 20.039062 92.667969 20.0625 92.667969 20.0625 M 83.871094 17.730469 L 83.867188 17.761719 L 83.996094 17.816406 L 83.925781 17.941406 L 83.953125 17.960938 L 84.214844 17.761719 L 84.203125 17.730469 Z M 84.496094 23.019531 L 84.027344 22.8125 L 84.480469 22.578125 L 84.46875 22.546875 L 83.785156 22.738281 C 83.757812 22.742188 83.734375 22.765625 83.726562 22.792969 C 83.710938 22.839844 83.738281 22.890625 83.78125 22.90625 L 83.792969 22.90625 L 84.457031 23.121094 C 84.566406 23.15625 84.675781 23.195312 84.785156 23.234375 L 85.121094 23.347656 L 85.132812 23.316406 L 84.816406 23.167969 C 84.707031 23.117188 84.601562 23.066406 84.496094 23.019531 M 84.796875 17.730469 L 84.792969 17.761719 L 84.921875 17.816406 L 84.851562 17.941406 L 84.878906 17.960938 L 85.140625 17.761719 L 85.128906 17.730469 Z M 84.796875 17.730469 "/>
</g>
</g>
<path style=" stroke:none;fill-rule:nonzero;fill:rgb(6.666667%,5.882353%,5.098039%);fill-opacity:1;" d="M 9.851562 0.429688 L 8.132812 0.429688 C 4.457031 0.429688 3.128906 2.109375 1.722656 5.632812 L 0.394531 8.957031 L 0 8.957031 L 0 0.0429688 L 24.238281 0.0429688 L 24.238281 8.957031 L 23.847656 8.957031 L 22.519531 5.632812 C 21.113281 2.109375 19.820312 0.429688 16.109375 0.429688 L 14.386719 0.429688 L 14.386719 23.003906 C 14.386719 24.765625 14.9375 26.445312 17.632812 26.875 L 18.609375 27.03125 L 18.609375 27.425781 L 5.628906 27.425781 L 5.628906 27.03125 L 6.609375 26.875 C 9.300781 26.445312 9.851562 24.765625 9.851562 23.003906 Z M 32.570312 0.0429688 L 32.570312 11.816406 C 33.3125 10.5625 35.539062 8.136719 38.628906 8.136719 C 41.675781 8.136719 44.878906 9.820312 44.878906 15.140625 L 44.878906 24.648438 C 44.878906 25.664062 45.273438 26.484375 46.566406 26.835938 L 47.308594 27.03125 L 47.308594 27.425781 L 38.15625 27.425781 L 38.15625 27.03125 L 38.902344 26.835938 C 40.1875 26.484375 40.582031 25.664062 40.582031 24.648438 L 40.582031 15.53125 C 40.582031 11.933594 38.507812 10.640625 36.476562 10.640625 C 35.070312 10.640625 33.660156 11.382812 32.570312 12.246094 L 32.570312 24.648438 C 32.570312 25.664062 32.960938 26.484375 34.25 26.835938 L 34.992188 27.03125 L 34.992188 27.425781 L 25.84375 27.425781 L 25.84375 27.03125 L 26.585938 26.835938 C 27.875 26.484375 28.265625 25.664062 28.265625 24.648438 L 28.265625 2.816406 C 28.265625 1.800781 27.875 0.980469 26.585938 0.628906 L 25.84375 0.429688 L 25.84375 0.0429688 Z M 57.550781 8.136719 C 62.476562 8.136719 65.253906 11.425781 65.253906 15.300781 L 65.253906 15.492188 L 52.9375 15.492188 C 52.898438 15.921875 52.898438 16.390625 52.898438 16.550781 C 52.898438 21.59375 55.59375 25.234375 59.855469 25.234375 C 62.59375 25.234375 64.507812 23.433594 65.214844 21.867188 L 65.5625 22.027344 C 65.253906 23.707031 62.710938 28.007812 57.550781 28.007812 C 51.996094 28.007812 48.636719 23.824219 48.636719 17.996094 C 48.636719 12.832031 51.996094 8.136719 57.550781 8.136719 M 52.9375 15.0625 L 60.871094 15.0625 L 60.871094 13.8125 C 60.871094 11.191406 60.132812 8.570312 57.507812 8.570312 C 54.695312 8.570312 53.40625 11.148438 52.9375 15.0625 "/>
<path style=" stroke:none;fill-rule:nonzero;fill:rgb(6.666667%,5.882353%,5.098039%);fill-opacity:1;" d="M 111.734375 24.101562 C 111.734375 25.933594 112.304688 27.519531 115.105469 28.085938 L 116.121094 28.289062 L 116.121094 28.496094 L 102.636719 28.496094 L 102.636719 28.289062 L 103.652344 28.085938 C 106.453125 27.519531 107.023438 25.933594 107.023438 24.101562 L 107.023438 4.472656 C 107.023438 2.644531 106.453125 1.019531 103.652344 0.449219 L 102.636719 0.246094 L 102.636719 0.046875 L 116.121094 0.046875 L 116.121094 0.246094 L 115.105469 0.449219 C 112.304688 1.019531 111.734375 2.644531 111.734375 4.472656 Z M 144.386719 5.976562 L 144.386719 29.101562 L 144.105469 29.101562 L 123.429688 4.71875 L 123.554688 19.753906 C 123.59375 26.585938 125.746094 27.476562 128.222656 28.128906 L 128.871094 28.289062 L 128.871094 28.496094 L 117.867188 28.496094 L 117.867188 28.289062 L 118.515625 28.128906 C 120.953125 27.519531 123.191406 26.542969 123.191406 19.753906 L 123.191406 4.515625 L 122.699219 3.988281 C 120.546875 1.628906 119.167969 0.65625 116.933594 0.246094 L 116.933594 0.046875 L 126.804688 0.046875 C 127.820312 1.875 129.28125 3.664062 132.53125 7.523438 L 144.144531 21.261719 L 144.023438 6.628906 C 143.984375 1.753906 142.195312 0.734375 139.675781 0.371094 L 138.742188 0.246094 L 138.742188 0.046875 L 164.292969 0.046875 C 174.851562 0.046875 180.253906 6.710938 180.253906 14.144531 C 180.253906 21.585938 174.851562 28.496094 164.292969 28.496094 L 150.074219 28.496094 L 150.074219 28.289062 L 151.046875 28.128906 C 153.933594 27.640625 154.460938 25.972656 154.460938 24.101562 L 154.460938 5.976562 C 154.460938 1.628906 152.226562 0.246094 149.425781 0.246094 C 146.621094 0.246094 144.386719 1.628906 144.386719 5.976562 M 163.4375 28.289062 C 170.992188 28.289062 174.972656 22.925781 174.972656 14.269531 C 174.972656 5.609375 170.625 0.246094 163.070312 0.246094 L 159.171875 0.246094 L 159.171875 24.066406 C 159.171875 26.417969 159.703125 28.289062 162.546875 28.289062 Z M 195.320312 28.289062 C 199.871094 28.289062 202.269531 26.988281 204.21875 23.65625 L 206.125 20.449219 L 206.328125 20.449219 L 206.328125 28.496094 L 181.226562 28.496094 L 181.226562 28.289062 L 182.242188 28.128906 C 185.042969 27.679688 185.613281 25.933594 185.613281 24.101562 L 185.613281 4.355469 C 185.613281 2.441406 185.042969 1.023438 182.242188 0.453125 L 181.226562 0.246094 L 181.226562 0.046875 L 205.234375 0.046875 L 205.234375 8.09375 L 205.027344 8.09375 L 203.121094 4.636719 C 201.210938 1.140625 198.574219 0.246094 193.65625 0.246094 L 190.324219 0.246094 L 190.324219 13.699219 L 192.355469 13.660156 C 196.703125 13.582031 198.164062 13.375 199.542969 8.988281 L 199.992188 7.5625 L 200.195312 7.5625 L 200.195312 20.039062 L 199.992188 20.039062 L 199.542969 18.65625 C 198.125 14.230469 196.742188 14.066406 192.355469 13.984375 L 190.324219 13.945312 L 190.324219 24.1875 C 190.324219 26.625 191.21875 28.289062 194.101562 28.289062 Z M 221.925781 0.046875 C 228.300781 0.046875 232.769531 3.542969 232.769531 8.539062 C 232.769531 13.582031 228.300781 17.074219 221.925781 17.074219 L 220.179688 17.074219 L 220.179688 16.832031 L 220.261719 16.832031 C 224.890625 16.832031 227.609375 13.621094 227.609375 8.539062 C 227.609375 3.457031 224.890625 0.246094 220.261719 0.246094 L 218.800781 0.246094 L 218.800781 23.699219 C 218.800781 26.746094 219.570312 27.433594 222.898438 28.128906 L 223.671875 28.289062 L 223.671875 28.496094 L 209.660156 28.496094 L 209.660156 28.289062 L 210.675781 28.085938 C 213.476562 27.519531 214.046875 25.933594 214.046875 24.101562 L 214.046875 4.433594 C 214.046875 2.609375 213.476562 1.023438 210.675781 0.453125 L 209.660156 0.246094 L 209.660156 0.046875 Z M 248 28.289062 C 252.550781 28.289062 254.945312 26.988281 256.894531 23.65625 L 258.804688 20.449219 L 259.007812 20.449219 L 259.007812 28.496094 L 233.90625 28.496094 L 233.90625 28.289062 L 234.921875 28.128906 C 237.726562 27.679688 238.292969 25.933594 238.292969 24.101562 L 238.292969 4.355469 C 238.292969 2.441406 237.726562 1.023438 234.921875 0.453125 L 233.90625 0.246094 L 233.90625 0.046875 L 257.910156 0.046875 L 257.910156 8.09375 L 257.707031 8.09375 L 255.796875 4.636719 C 253.890625 1.140625 251.25 0.246094 246.335938 0.246094 L 243.003906 0.246094 L 243.003906 13.699219 L 245.035156 13.660156 C 249.382812 13.582031 250.839844 13.375 252.226562 8.988281 L 252.671875 7.5625 L 252.875 7.5625 L 252.875 20.039062 L 252.671875 20.039062 L 252.226562 18.65625 C 250.800781 14.230469 249.421875 14.066406 245.035156 13.984375 L 243.003906 13.945312 L 243.003906 24.1875 C 243.003906 26.625 243.894531 28.289062 246.78125 28.289062 Z M 288.535156 5.976562 L 288.535156 29.101562 L 288.253906 29.101562 L 267.578125 4.71875 L 267.699219 19.753906 C 267.738281 26.585938 269.890625 27.476562 272.371094 28.128906 L 273.019531 28.289062 L 273.019531 28.496094 L 262.011719 28.496094 L 262.011719 28.289062 L 262.660156 28.128906 C 265.101562 27.519531 267.332031 26.542969 267.332031 19.753906 L 267.332031 4.515625 L 266.847656 3.988281 C 264.691406 1.628906 263.3125 0.65625 261.078125 0.246094 L 261.078125 0.046875 L 270.945312 0.046875 C 271.960938 1.875 273.425781 3.664062 276.671875 7.523438 L 288.292969 21.261719 L 288.167969 6.628906 C 288.128906 1.753906 286.34375 0.734375 283.824219 0.371094 L 282.886719 0.246094 L 282.886719 0.046875 L 308.4375 0.046875 C 318.996094 0.046875 324.398438 6.710938 324.398438 14.144531 C 324.398438 21.585938 318.996094 28.496094 308.4375 28.496094 L 294.222656 28.496094 L 294.222656 28.289062 L 295.199219 28.128906 C 298.082031 27.640625 298.609375 25.972656 298.609375 24.101562 L 298.609375 5.976562 C 298.609375 1.628906 296.371094 0.246094 293.570312 0.246094 C 290.769531 0.246094 288.535156 1.628906 288.535156 5.976562 M 307.582031 28.289062 C 315.140625 28.289062 319.117188 22.925781 319.117188 14.269531 C 319.117188 5.609375 314.773438 0.246094 307.21875 0.246094 L 303.320312 0.246094 L 303.320312 24.066406 C 303.320312 26.417969 303.847656 28.289062 306.6875 28.289062 Z M 339.46875 28.289062 C 344.015625 28.289062 346.414062 26.988281 348.359375 23.65625 L 350.273438 20.449219 L 350.476562 20.449219 L 350.476562 28.496094 L 325.375 28.496094 L 325.375 28.289062 L 326.390625 28.128906 C 329.191406 27.679688 329.757812 25.933594 329.757812 24.101562 L 329.757812 4.355469 C 329.757812 2.441406 329.191406 1.023438 326.390625 0.453125 L 325.375 0.246094 L 325.375 0.046875 L 349.375 0.046875 L 349.375 8.09375 L 349.175781 8.09375 L 347.265625 4.636719 C 345.355469 1.140625 342.714844 0.246094 337.804688 0.246094 L 334.472656 0.246094 L 334.472656 13.699219 L 336.503906 13.660156 C 340.851562 13.582031 342.3125 13.375 343.691406 8.988281 L 344.140625 7.5625 L 344.339844 7.5625 L 344.339844 20.039062 L 344.140625 20.039062 L 343.691406 18.65625 C 342.269531 14.230469 340.890625 14.066406 336.503906 13.984375 L 334.472656 13.945312 L 334.472656 24.1875 C 334.472656 26.625 335.363281 28.289062 338.25 28.289062 Z M 379.675781 7.441406 C 379.636719 2.199219 377.847656 0.734375 375.332031 0.371094 L 374.398438 0.246094 L 374.398438 0.046875 L 385.320312 0.046875 L 385.320312 0.246094 L 384.386719 0.371094 C 381.871094 0.734375 380.042969 2.199219 380.042969 7.441406 L 380.042969 29.101562 L 379.757812 29.101562 L 359.085938 4.71875 L 359.207031 19.753906 C 359.246094 26.585938 361.402344 27.476562 363.875 28.128906 L 364.527344 28.289062 L 364.527344 28.496094 L 353.519531 28.496094 L 353.519531 28.289062 L 354.171875 28.128906 C 356.605469 27.519531 358.839844 26.542969 358.839844 19.753906 L 358.839844 4.515625 L 358.351562 3.988281 C 356.199219 1.628906 354.820312 0.65625 352.585938 0.246094 L 352.585938 0.046875 L 362.457031 0.046875 C 363.46875 1.875 364.933594 3.664062 368.183594 7.523438 L 379.796875 21.261719 Z M 397.101562 0.246094 L 395.3125 0.246094 C 391.496094 0.246094 389.914062 2.199219 388.449219 5.855469 L 387.066406 9.3125 L 386.867188 9.3125 L 386.867188 0.046875 L 412.046875 0.046875 L 412.046875 9.3125 L 411.84375 9.3125 L 410.464844 5.855469 C 409.003906 2.199219 407.457031 0.246094 403.601562 0.246094 L 401.8125 0.246094 L 401.8125 24.101562 C 401.8125 25.933594 402.382812 27.679688 405.183594 28.128906 L 406.199219 28.289062 L 406.199219 28.496094 L 392.710938 28.496094 L 392.710938 28.289062 L 393.726562 28.128906 C 396.53125 27.679688 397.101562 25.933594 397.101562 24.101562 Z M 397.101562 0.246094 "/>
</g>
</svg>
