
<svg xmlns="http://www.w3.org/2000/svg" width="52" height="67" viewBox="0 0 52 67"><g><g transform="rotate(15 26.5 32.5)"><g><path fill="#ffa800" d="M20.198 1.05c-.42.168-.671.42-1.007.755-.167.168-.419.588-.503.923-.168.252-.252.504-.336.756-.251.755-.503 1.51-.67 2.18-.252.924-.504 1.763-.756 2.686-.503 1.678-1.007 3.44-1.51 5.118-1.007 3.44-2.098 6.88-3.105 10.405-1.007 3.44-2.013 6.964-2.853 10.488-.42 1.678-.839 3.356-1.258 5.118-.252 1.09-.504 2.098-.671 3.188l-.504 2.77c-.168 1.006-.335 2.013-.503 2.936a23.725 23.725 0 0 0-.252 3.44c0 2.014.336 4.111.84 6.041.922-1.594 1.677-3.188 2.264-4.866.252-.84.588-1.762.756-2.685.251-.923.335-1.93.503-2.853.587-3.608 1.426-7.132 2.35-10.656.419-1.762.922-3.608 1.426-5.37.42-1.594.923-3.272 1.426-4.867 1.007-3.607 2.182-7.216 3.273-10.823.67-2.266 1.342-4.447 2.013-6.713v.084c.504 1.594 1.007 3.272 1.51 4.867.504 1.846 1.091 3.691 1.595 5.537.503 1.762.923 3.524 1.426 5.37a495.522 495.522 0 0 1 2.685 10.656c.42 1.678.755 3.357 1.175 5.119.335 1.594.755 3.188 1.175 4.782.251 1.175.587 2.35.839 3.524a94.24 94.24 0 0 1 1.258 6.713c.168 1.426.587 2.852.923 4.195.336 1.259.671 2.517 1.09 3.692.253-.923.42-1.846.504-2.769.084-.839.084-1.678.084-2.517 0-1.427-.168-2.77-.42-4.112-.167-.839-.251-1.678-.419-2.433-.168-.923-.335-1.762-.503-2.685-.336-1.51-.672-3.104-1.007-4.615 0 .084.084.252.084.336-.336-1.594-.755-3.272-1.091-4.867-.336-1.846-.755-3.691-1.175-5.537-.839-3.776-1.594-7.552-2.433-11.327-.42-1.763-.755-3.525-1.175-5.287-.42-1.678-.755-3.44-1.258-5.118-.504-1.762-.923-3.524-1.427-5.286-.251-.839-.503-1.594-.67-2.433-.085-.336-.252-.755-.336-1.09l-.252-.756c-.252-.84-1.007-1.594-1.846-1.762-.168 0-.336-.084-.503-.084-.252-.252-.504-.252-.756-.168z"/><path fill="none" stroke="#ffa800" stroke-miterlimit="20" d="M20.198 1.05c-.42.168-.671.42-1.007.755-.167.168-.419.588-.503.923-.168.252-.252.504-.336.756-.251.755-.503 1.51-.67 2.18-.252.924-.504 1.763-.756 2.686-.503 1.678-1.007 3.44-1.51 5.118-1.007 3.44-2.098 6.88-3.105 10.405-1.007 3.44-2.013 6.964-2.853 10.488-.42 1.678-.839 3.356-1.258 5.118-.252 1.09-.504 2.098-.671 3.188l-.504 2.77c-.168 1.006-.335 2.013-.503 2.936a23.725 23.725 0 0 0-.252 3.44c0 2.014.336 4.111.84 6.041.922-1.594 1.677-3.188 2.264-4.866.252-.84.588-1.762.756-2.685.251-.923.335-1.93.503-2.853.587-3.608 1.426-7.132 2.35-10.656.419-1.762.922-3.608 1.426-5.37.42-1.594.923-3.272 1.426-4.867 1.007-3.607 2.182-7.216 3.273-10.823.67-2.266 1.342-4.447 2.013-6.713v.084c.504 1.594 1.007 3.272 1.51 4.867.504 1.846 1.091 3.691 1.595 5.537.503 1.762.923 3.524 1.426 5.37a495.522 495.522 0 0 1 2.685 10.656c.42 1.678.755 3.357 1.175 5.119.335 1.594.755 3.188 1.175 4.782.251 1.175.587 2.35.839 3.524a94.24 94.24 0 0 1 1.258 6.713c.168 1.426.587 2.852.923 4.195.336 1.259.671 2.517 1.09 3.692.253-.923.42-1.846.504-2.769.084-.839.084-1.678.084-2.517 0-1.427-.168-2.77-.42-4.112-.167-.839-.251-1.678-.419-2.433-.168-.923-.335-1.762-.503-2.685-.336-1.51-.672-3.104-1.007-4.615 0 .084.084.252.084.336-.336-1.594-.755-3.272-1.091-4.867-.336-1.846-.755-3.691-1.175-5.537-.839-3.776-1.594-7.552-2.433-11.327-.42-1.763-.755-3.525-1.175-5.287-.42-1.678-.755-3.44-1.258-5.118-.504-1.762-.923-3.524-1.427-5.286-.251-.839-.503-1.594-.67-2.433-.085-.336-.252-.755-.336-1.09l-.252-.756c-.252-.84-1.007-1.594-1.846-1.762-.168 0-.336-.084-.503-.084-.252-.252-.504-.252-.756-.168z"/></g><g><path fill="#ffa800" d="M22.97 35.954c-.838.084-1.677.084-2.516.168-.923.084-1.846.335-2.77.503-1.593.42-3.188 1.007-4.614 1.762 1.594.42 3.188.671 4.866.84 1.762.167 3.524 0 5.286-.085.756-.083 1.427-.084 2.182-.084.671-.083 1.427-.167 2.098-.251 1.846-.336 3.692-.923 5.454-1.678-1.762-.504-3.525-.923-5.37-1.091-.923-.084-1.93-.168-2.853-.168-.588 0-1.175 0-1.762.084z"/><path fill="none" stroke="#ffa800" stroke-miterlimit="20" d="M22.97 35.954c-.838.084-1.677.084-2.516.168-.923.084-1.846.335-2.77.503-1.593.42-3.188 1.007-4.614 1.762 1.594.42 3.188.671 4.866.84 1.762.167 3.524 0 5.286-.085.756-.083 1.427-.084 2.182-.084.671-.083 1.427-.167 2.098-.251 1.846-.336 3.692-.923 5.454-1.678-1.762-.504-3.525-.923-5.37-1.091-.923-.084-1.93-.168-2.853-.168-.588 0-1.175 0-1.762.084z"/></g><g><path fill="#ffa800" d="M45.131 38.1c-.839 1.594-1.51 3.188-2.014 4.95-.251.84-.42 1.678-.503 2.518-.084 1.006-.084 2.013-.084 3.104 0 .923 0 1.93.084 2.853.084.923.252 1.762.42 2.6.335 1.679.923 3.19 1.762 4.7.839-1.51 1.342-3.105 1.762-4.783.419-1.846.503-3.692.587-5.622v-2.685c-.084-.839-.168-1.762-.42-2.6-.335-1.679-.923-3.357-1.594-5.035z"/><path fill="none" stroke="#ffa800" stroke-miterlimit="20" d="M45.131 38.1c-.839 1.594-1.51 3.188-2.014 4.95-.251.84-.42 1.678-.503 2.518-.084 1.006-.084 2.013-.084 3.104 0 .923 0 1.93.084 2.853.084.923.252 1.762.42 2.6.335 1.679.923 3.19 1.762 4.7.839-1.51 1.342-3.105 1.762-4.783.419-1.846.503-3.692.587-5.622v-2.685c-.084-.839-.168-1.762-.42-2.6-.335-1.679-.923-3.357-1.594-5.035z"/></g><g><path fill="#ffa800" d="M45.713 21.07c.923 0 1.846.336 2.517.923.42.335.756.671 1.007 1.175.336.587.588 1.174.588 1.762.084 1.09-.252 2.265-1.007 3.104-.588.671-1.594 1.175-2.517.923a5.825 5.825 0 0 1-1.091-.42c-.84.168-1.678.084-2.35-.587-.419-.335-.587-.923-.755-1.426-.168-.671-.251-1.343-.083-2.014.167-.671.335-1.259.755-1.846.335-.42.755-.839 1.258-1.09.588-.336 1.175-.504 1.678-.504zm-.084 4.195s.084 0 0 0c.01.006.021.01.032.015a.093.093 0 0 1 .052-.015h-.084zm.032.015c-.038.024-.054.07-.116.07-.083.167-.251.25-.335.419-.084.251-.252.503-.336.755-.084.252-.168.42-.168.671v.252c.084.084.168.252.252.335.084 0 .084.084.168.084l1.259-.503c0-.084.084-.084.084-.084.083-.084.083-.168.167-.336.084-.167.084-.251.084-.335-.084-.168-.084-.336-.084-.504-.084-.084-.084-.252-.167-.335-.084 0-.085-.084-.168-.168-.084-.084-.168-.084-.252-.168-.079-.079-.231-.083-.388-.153zm.64 2.167c-.084 0-.084.084-.084.084z"/><path fill="none" stroke="#ffa800" stroke-miterlimit="20" d="M45.713 21.07c.923 0 1.846.336 2.517.923.42.335.756.671 1.007 1.175.336.587.588 1.174.588 1.762.084 1.09-.252 2.265-1.007 3.104-.588.671-1.594 1.175-2.517.923a5.825 5.825 0 0 1-1.091-.42c-.84.168-1.678.084-2.35-.587-.419-.335-.587-.923-.755-1.426-.168-.671-.251-1.343-.083-2.014.167-.671.335-1.259.755-1.846.335-.42.755-.839 1.258-1.09.588-.336 1.175-.504 1.678-.504zm-.084 4.195s.084 0 0 0c.01.006.021.01.032.015a.093.093 0 0 1 .052-.015h-.084zm.032.015c-.038.024-.054.07-.116.07-.083.167-.251.25-.335.419-.084.251-.252.503-.336.755-.084.252-.168.42-.168.671v.252c.084.084.168.252.252.335.084 0 .084.084.168.084l1.259-.503c0-.084.084-.084.084-.084.083-.084.083-.168.167-.336.084-.167.084-.251.084-.335-.084-.168-.084-.336-.084-.504-.084-.084-.084-.252-.167-.335-.084 0-.085-.084-.168-.168-.084-.084-.168-.084-.252-.168-.079-.079-.231-.083-.388-.153zm.64 2.167c-.084 0-.084.084-.084.084z"/></g></g></g></svg>