<svg xmlns="http://www.w3.org/2000/svg" xmlns:xlink="http://www.w3.org/1999/xlink" preserveAspectRatio="xMidYMid meet" version="1.0" viewBox="0.0 0.0 500.0 500.0" zoomAndPan="magnify" style="fill: rgb(0, 0, 0);" role="img" aria-label="Modern Bold Swiss Elements 3 Quarter Concentric Circles"><g id="__id954_srrlrpzut7"><path d="M250,335.4c-47.1,0-85.4-38.3-85.4-85.4s38.3-85.4,85.4-85.4s85.4,38.3,85.4,85.4h-26.2 c0-32.6-26.5-59.2-59.2-59.2c-32.6,0-59.2,26.5-59.2,59.2s26.5,59.2,59.2,59.2V335.4z M250,364c-62.9,0-114-51.2-114-114 s51.2-114,114-114s114,51.2,114,114h26.2c0-77.3-62.9-140.3-140.3-140.3c-77.3,0-140.3,62.9-140.3,140.3 c0,77.3,62.9,140.3,140.3,140.3V364z M250,418.9c-93.1,0-168.9-75.8-168.9-168.9c0-93.1,75.8-168.9,168.9-168.9 c93.1,0,168.9,75.8,168.9,168.9h26.2c0-107.6-87.5-195.1-195.1-195.1C142.4,54.9,54.9,142.4,54.9,250 c0,107.6,87.5,195.1,195.1,195.1V418.9z M250,473.8c-59.8,0-116-23.3-158.2-65.5S26.2,309.8,26.2,250S49.5,134,91.8,91.8 S190.2,26.2,250,26.2s116,23.3,158.2,65.5s65.5,98.5,65.5,158.2H500c0-66.8-26-129.6-73.2-176.8S316.8,0,250,0S120.4,26,73.2,73.2 S0,183.2,0,250s26,129.6,73.2,176.8S183.2,500,250,500V473.8z" style="fill: rgb(255, 189, 89);"></path></g></svg>