
<svg xmlns="http://www.w3.org/2000/svg" width="80" height="71" viewBox="0 0 80 71"><g><g transform="rotate(-22.98 41 36.5)"><g><path fill="#ffa800" d="M27.09-.23c.642 0 1.192 0 1.834.092l2.2.275c1.468.275 3.026.642 4.493 1.008 1.467.459 2.842.917 4.31 1.376.458.183 1.008.275 1.467.458 2.842.825 5.684 1.375 8.618 1.925 1.559.276 3.21.55 4.768.917l2.2.55c.734.092 1.56.367 2.293.459h.366s.092-.092.184-.092c.091 0 .091-.091.183-.091.275-.092.459-.092.734-.092.641.092 1.1.642 1.467 1.192.366.642.733 1.283 1.008 2.017.275.55.55 1.192.825 1.834l.825 1.925c1.192 2.66 2.384 5.318 3.576 8.069.642 1.375 1.284 2.75 1.834 4.126.55 1.283 1.1 2.567 1.742 3.759.092.183.184.367.367.55.092.275.275.458.275.733.092.55-.367 1.009-.734 1.376-.458.367-1.008.642-1.558 1.008-1.192.734-2.2 1.559-3.301 2.384a156.584 156.584 0 0 0-6.143 4.768c-2.292 2.017-4.676 3.943-7.06 5.868-1.284 1.009-2.567 2.017-3.76 3.117-1.191 1.009-2.383 2.11-3.575 3.118-1.375 1.283-2.75 2.567-4.034 3.85a22.885 22.885 0 0 0-2.11 2.11c-.733.916-1.558 1.741-2.291 2.567-.55.641-1.009 1.283-1.559 1.925-.459.55-.917 1.192-1.375 1.742-.459.55-.826 1.1-1.284 1.65-.367.459-.733.917-1.192 1.376-.183.275-.367.367-.642.55-.275.183-.55.183-.917.275-.641.092-1.283-.367-1.65-.825-.183-.092-.275-.275-.367-.459-.825-1.283-1.467-2.567-2.2-3.85-.734-1.284-1.376-2.568-2.017-3.851-.275-.55-.642-1.192-.917-1.742-2.934-5.502-5.96-10.911-8.894-16.412l-2.2-4.126c-.275-.642-.642-1.192-1.009-1.834-.275-.55-.55-1.1-.917-1.65-.917-1.468-1.742-2.843-2.659-4.218-.79-1.23-1.498-2.545-2.2-3.864v.013l-.04-.086-.003-.005c-.627-1.345-1.253-2.69-1.791-4.035 2.109 1.925 4.034 4.034 5.685 6.418 1.375 2.109 2.75 4.218 4.034 6.418 1.467 2.66 2.934 5.226 4.4 7.885 1.56 2.843 3.21 5.593 4.769 8.436.733 1.192 1.467 2.384 2.108 3.667a152.035 152.035 0 0 1 2.2 3.943c.734 1.375 1.468 2.75 2.201 4.034.275.642.642 1.192 1.009 1.834.183.366.367.642.55 1.008.183-.275.367-.458.55-.733.275-.367.55-.642.825-1.009.367-.55.826-1.008 1.192-1.559.367-.366.734-.825 1.1-1.283.367-.459.734-.825 1.1-1.284.826-.917 1.651-1.925 2.568-2.842.642-.642 1.192-1.284 1.834-1.926l.917-.916c.642-.642 1.375-1.376 2.109-2.018.458-.458.916-.825 1.375-1.283 1.192-1.009 2.384-2.109 3.667-3.118l7.702-6.326a375.885 375.885 0 0 1 7.06-5.593c1.192-.917 2.384-1.834 3.576-2.659a20.768 20.768 0 0 1 1.834-1.192c.458-.275 1.008-.458 1.467-.733v-.092l-.275-.55c-.275-.459-.459-.917-.734-1.375-.458-.826-.825-1.743-1.192-2.568l-1.925-4.126-1.926-4.126-1.925-3.85c-.642-1.284-1.1-2.66-1.742-3.943-.092-.183-.184-.275-.275-.458-.092.091-.184.091-.275.091-.642.092-1.284 0-1.926-.091-.733-.092-1.375-.276-2.109-.459-1.375-.367-2.842-.55-4.217-.825-2.843-.459-5.593-.917-8.344-1.467-1.467-.275-2.842-.642-4.31-1.009-1.466-.366-2.841-.733-4.308-1.1a36.8 36.8 0 0 0-4.585-.825c-.733-.092-1.375-.092-2.109-.183-.366 0-.733-.092-1.1-.092-.275 0-.55-.092-.825-.092h-.092c-.183 0-.367.092-.55.184-1.008.55-1.925 1.1-2.842 1.742-.734.458-1.376.916-2.017 1.467a230.835 230.835 0 0 0-7.335 5.96c-2.293 2.016-4.951 3.483-7.794 4.675.367-.642.825-1.192 1.192-1.833a34.717 34.717 0 0 1 2.842-3.576c1.009-1.1 2.201-2.109 3.393-3.118 2.384-2.017 4.86-4.034 7.335-5.868.275-.275.642-.458.917-.641.275-.092.55-.275.825-.459.55-.367 1.1-.733 1.65-1.008.55-.275 1.009-.55 1.559-.642.367-.092.825-.184 1.192-.184.183 0 .367 0 .825-.458zM6.002 25.442l.05.093c0 .001 0 .003.002.005-.025-.025-.052-.048-.052-.098z"/><path fill="none" stroke="#ffa800" stroke-miterlimit="20" d="M27.09-.23c.642 0 1.192 0 1.834.092l2.2.275c1.468.275 3.026.642 4.493 1.008 1.467.459 2.842.917 4.31 1.376.458.183 1.008.275 1.467.458 2.842.825 5.684 1.375 8.618 1.925 1.559.276 3.21.55 4.768.917l2.2.55c.734.092 1.56.367 2.293.459h.366s.092-.092.184-.092c.091 0 .091-.091.183-.091.275-.092.459-.092.734-.092.641.092 1.1.642 1.467 1.192.366.642.733 1.283 1.008 2.017.275.55.55 1.192.825 1.834l.825 1.925c1.192 2.66 2.384 5.318 3.576 8.069.642 1.375 1.284 2.75 1.834 4.126.55 1.283 1.1 2.567 1.742 3.759.092.183.184.367.367.55.092.275.275.458.275.733.092.55-.367 1.009-.734 1.376-.458.367-1.008.642-1.558 1.008-1.192.734-2.2 1.559-3.301 2.384a156.584 156.584 0 0 0-6.143 4.768c-2.292 2.017-4.676 3.943-7.06 5.868-1.284 1.009-2.567 2.017-3.76 3.117-1.191 1.009-2.383 2.11-3.575 3.118-1.375 1.283-2.75 2.567-4.034 3.85a22.885 22.885 0 0 0-2.11 2.11c-.733.916-1.558 1.741-2.291 2.567-.55.641-1.009 1.283-1.559 1.925-.459.55-.917 1.192-1.375 1.742-.459.55-.826 1.1-1.284 1.65-.367.459-.733.917-1.192 1.376-.183.275-.367.367-.642.55-.275.183-.55.183-.917.275-.641.092-1.283-.367-1.65-.825-.183-.092-.275-.275-.367-.459-.825-1.283-1.467-2.567-2.2-3.85-.734-1.284-1.376-2.568-2.017-3.851-.275-.55-.642-1.192-.917-1.742-2.934-5.502-5.96-10.911-8.894-16.412l-2.2-4.126c-.275-.642-.642-1.192-1.009-1.834-.275-.55-.55-1.1-.917-1.65-.917-1.468-1.742-2.843-2.659-4.218-.79-1.23-1.498-2.545-2.2-3.864v.013l-.04-.086s0 0 0 0l-.003-.005c-.627-1.345-1.253-2.69-1.791-4.035 2.109 1.925 4.034 4.034 5.685 6.418 1.375 2.109 2.75 4.218 4.034 6.418 1.467 2.66 2.934 5.226 4.4 7.885 1.56 2.843 3.21 5.593 4.769 8.436.733 1.192 1.467 2.384 2.108 3.667a152.035 152.035 0 0 1 2.2 3.943c.734 1.375 1.468 2.75 2.201 4.034.275.642.642 1.192 1.009 1.834.183.366.367.642.55 1.008.183-.275.367-.458.55-.733.275-.367.55-.642.825-1.009.367-.55.826-1.008 1.192-1.559.367-.366.734-.825 1.1-1.283.367-.459.734-.825 1.1-1.284.826-.917 1.651-1.925 2.568-2.842.642-.642 1.192-1.284 1.834-1.926l.917-.916c.642-.642 1.375-1.376 2.109-2.018.458-.458.916-.825 1.375-1.283 1.192-1.009 2.384-2.109 3.667-3.118l7.702-6.326a375.885 375.885 0 0 1 7.06-5.593c1.192-.917 2.384-1.834 3.576-2.659a20.768 20.768 0 0 1 1.834-1.192c.458-.275 1.008-.458 1.467-.733v-.092l-.275-.55c-.275-.459-.459-.917-.734-1.375-.458-.826-.825-1.743-1.192-2.568l-1.925-4.126-1.926-4.126-1.925-3.85c-.642-1.284-1.1-2.66-1.742-3.943-.092-.183-.184-.275-.275-.458-.092.091-.184.091-.275.091-.642.092-1.284 0-1.926-.091-.733-.092-1.375-.276-2.109-.459-1.375-.367-2.842-.55-4.217-.825-2.843-.459-5.593-.917-8.344-1.467-1.467-.275-2.842-.642-4.31-1.009-1.466-.366-2.841-.733-4.308-1.1a36.8 36.8 0 0 0-4.585-.825c-.733-.092-1.375-.092-2.109-.183-.366 0-.733-.092-1.1-.092-.275 0-.55-.092-.825-.092h-.092c-.183 0-.367.092-.55.184-1.008.55-1.925 1.1-2.842 1.742-.734.458-1.376.916-2.017 1.467a230.835 230.835 0 0 0-7.335 5.96c-2.293 2.016-4.951 3.483-7.794 4.675.367-.642.825-1.192 1.192-1.833a34.717 34.717 0 0 1 2.842-3.576c1.009-1.1 2.201-2.109 3.393-3.118 2.384-2.017 4.86-4.034 7.335-5.868.275-.275.642-.458.917-.641.275-.092.55-.275.825-.459.55-.367 1.1-.733 1.65-1.008.55-.275 1.009-.55 1.559-.642.367-.092.825-.184 1.192-.184.183 0 .367 0 .825-.458zM6.002 25.442l.05.093c0 .001 0 .003.002.005-.025-.025-.052-.048-.052-.098z"/></g><g><path fill="#ffa800" d="M10.31 14.26c-1.192.55-2.293 1.009-3.393 1.742-.55.367-1.1.734-1.65 1.284a1.314 1.314 0 0 0-.367.917c0 .366.183.733.458 1.008.459.459 1.009.642 1.56.825 2.475.734 5.042 1.376 7.61 2.017 1.1.276 2.291.55 3.392.826.916.183 1.833.458 2.75.641 1.559.275 3.118.55 4.676.917.826.184 1.742.275 2.568.459 4.676.733 9.443 1.467 14.12 2.292 4.767.825 9.535 1.559 14.211 2.384 5.043.917 9.994 1.742 15.037 2.659.733.183 1.559.275 2.292.458 1.009.184 2.017.367 3.117.55 1.834.275 3.76.275 5.593.367h-.091c.366 0 .733 0 1.1.092h.092s.091 0 .091.091v.184c.092-.092.184-.183.184-.275 0-.184-.184-.275-.275-.367-.184-.183-.55-.275-.734-.458-.275-.184-.642-.275-.917-.459-.55-.183-1.1-.458-1.558-.642a24.236 24.236 0 0 0-3.668-1.1c-1.1-.275-2.2-.458-3.3-.642-1.376-.275-2.751-.458-4.127-.733-4.584-.825-9.077-1.65-13.661-2.384-4.86-.825-9.81-1.65-14.762-2.384l-14.578-2.2c-.367-.092-.825-.184-1.192-.184-.825-.183-1.742-.275-2.567-.458-.917-.184-1.926-.367-2.843-.55-1.467-.367-2.842-.642-4.309-1.009l-3.576-.825c-.733-.184-1.558-.367-2.292-.55-.275-.092-.642-.184-.917-.275-.458-.092-1.008-.275-1.559-.367.459-.55 1.009-1.1 1.467-1.65.734-.917 1.376-1.56 2.018-2.201z"/><path fill="none" stroke="#ffa800" stroke-miterlimit="20" d="M10.31 14.26c-1.192.55-2.293 1.009-3.393 1.742-.55.367-1.1.734-1.65 1.284a1.314 1.314 0 0 0-.367.917c0 .366.183.733.458 1.008.459.459 1.009.642 1.56.825 2.475.734 5.042 1.376 7.61 2.017 1.1.276 2.291.55 3.392.826.916.183 1.833.458 2.75.641 1.559.275 3.118.55 4.676.917.826.184 1.742.275 2.568.459 4.676.733 9.443 1.467 14.12 2.292 4.767.825 9.535 1.559 14.211 2.384 5.043.917 9.994 1.742 15.037 2.659.733.183 1.559.275 2.292.458 1.009.184 2.017.367 3.117.55 1.834.275 3.76.275 5.593.367h-.091c.366 0 .733 0 1.1.092h.092v0s.091 0 .091.091v.184c.092-.092.184-.183.184-.275 0-.184-.184-.275-.275-.367-.184-.183-.55-.275-.734-.458-.275-.184-.642-.275-.917-.459-.55-.183-1.1-.458-1.558-.642a24.236 24.236 0 0 0-3.668-1.1c-1.1-.275-2.2-.458-3.3-.642-1.376-.275-2.751-.458-4.127-.733-4.584-.825-9.077-1.65-13.661-2.384-4.86-.825-9.81-1.65-14.762-2.384l-14.578-2.2c-.367-.092-.825-.184-1.192-.184-.825-.183-1.742-.275-2.567-.458-.917-.184-1.926-.367-2.843-.55-1.467-.367-2.842-.642-4.309-1.009l-3.576-.825c-.733-.184-1.558-.367-2.292-.55-.275-.092-.642-.184-.917-.275-.458-.092-1.008-.275-1.559-.367.459-.55 1.009-1.1 1.467-1.65.734-.917 1.376-1.56 2.018-2.201z"/></g><g><path fill="#ffa800" d="M40.47 5.09h.367c.367.092.55.183.825.367.276.275.55.55.734.825.275.367.458.825.642 1.192.275.55.458 1.1.733 1.65 1.009 2.2 1.834 4.493 2.66 6.785.824 2.384 1.65 4.768 2.383 7.152.367 1.192.734 2.384 1.1 3.667.092.642.275 1.192.459 1.742l.275 1.1c.183.734.091 1.376-.275 2.018-.275.55-.459 1.008-.734 1.558-.275.55-.642 1.009-1.008 1.56-.642.824-1.192 1.833-1.834 2.75-.55.825-1.009 1.65-1.559 2.475-.733 1.192-1.375 2.293-2.109 3.484-.55.917-1.192 1.834-1.742 2.843-.641 1.1-1.375 2.2-2.017 3.392-.733 1.192-1.375 2.384-2.017 3.576-1.284 2.384-2.475 4.676-3.759 6.968a31.592 31.592 0 0 1-1.834 2.934c-.917 1.192-1.834 2.292-2.75 3.393.458-1.1.916-2.2 1.467-3.301.55-1.009 1.008-2.109 1.558-3.21.55-1.008 1.1-2.108 1.65-3.116.55-1.1 1.1-2.11 1.651-3.21 1.284-2.292 2.567-4.676 3.85-6.968a233.325 233.325 0 0 0 3.76-6.418c1.284-2.2 2.476-4.401 3.85-6.51.184-.183.276-.366.368-.55a.1.1 0 0 0-.043.008c.259-.44.512-.952.684-1.383.184-.459.367-1.009.55-1.467v-.367c-.183-.642-.366-1.192-.55-1.742-.275-.642-.458-1.284-.641-1.925-.184-.55-.459-1.192-.642-1.834-.275-.642-.459-1.375-.734-2.017-.366-1.192-.733-2.384-1.192-3.576-.366-1.192-.825-2.292-1.283-3.484-.367-1.1-.825-2.2-1.284-3.301-.458-1.1-.917-2.109-1.467-3.117-.092-.184-.275-.459-.367-.642-.183.183-.366.275-.55.458a20.942 20.942 0 0 0-2.017 2.017c-.275.367-.642.734-1.008 1.1l-5.227 5.502c-.916 1.008-1.833 1.925-2.75 2.842-.367.459-.734.917-1.192 1.284-.275.183-.642.55-.917.733-.092.092-.183.092-.275.184v.458c0 .825 0 1.742.092 2.567.091 1.1.183 2.11.275 3.21.183 1.925.458 3.942.641 5.867.276 2.568.642 5.043 1.009 7.519.367 2.384.825 4.768 1.192 7.243.183 1.284.367 2.476.55 3.76.092 1.191.275 2.383.275 3.575 0 1.284-.183 2.567-.367 3.851-.091.55-.275 1.192-.366 1.742-.184.642-.275 1.192-.459 1.834-.091-.092-.091-.184-.091-.275-.367-1.65-.826-3.393-1.1-5.135-.184-1.283-.367-2.567-.46-3.85-.09-1.284-.274-2.476-.458-3.76-.091-1.1-.275-2.292-.458-3.392-.275-1.192-.458-2.476-.642-3.668a204.108 204.108 0 0 1-1.925-15.037c-.092-1.283-.275-2.658-.367-3.942v-1.925-.459-.917c0-.367.183-.825.458-1.1l.275-.275 2.476-2.476 2.567-2.567c.825-.917 1.742-1.742 2.568-2.659.916-.917 1.833-1.925 2.75-2.842l1.467-1.467c.459-.55 1.009-1.1 1.559-1.559.642-.55 1.283-1.008 2.109-1.284.275-.091.55-.091.641-.458zm6.602 28.24s0-.06.05-.084a9.385 9.385 0 0 1-.05.084zm-6.51-24.39c0 .093.092.184.092.184z"/><path fill="none" stroke="#ffa800" stroke-miterlimit="20" d="M40.47 5.09h.367c.367.092.55.183.825.367.276.275.55.55.734.825.275.367.458.825.642 1.192.275.55.458 1.1.733 1.65 1.009 2.2 1.834 4.493 2.66 6.785.824 2.384 1.65 4.768 2.383 7.152.367 1.192.734 2.384 1.1 3.667.092.642.275 1.192.459 1.742l.275 1.1c.183.734.091 1.376-.275 2.018-.275.55-.459 1.008-.734 1.558-.275.55-.642 1.009-1.008 1.56-.642.824-1.192 1.833-1.834 2.75-.55.825-1.009 1.65-1.559 2.475-.733 1.192-1.375 2.293-2.109 3.484-.55.917-1.192 1.834-1.742 2.843-.641 1.1-1.375 2.2-2.017 3.392-.733 1.192-1.375 2.384-2.017 3.576-1.284 2.384-2.475 4.676-3.759 6.968a31.592 31.592 0 0 1-1.834 2.934c-.917 1.192-1.834 2.292-2.75 3.393.458-1.1.916-2.2 1.467-3.301.55-1.009 1.008-2.109 1.558-3.21.55-1.008 1.1-2.108 1.65-3.116.55-1.1 1.1-2.11 1.651-3.21 1.284-2.292 2.567-4.676 3.85-6.968a233.325 233.325 0 0 0 3.76-6.418c1.284-2.2 2.476-4.401 3.85-6.51.184-.183.276-.366.368-.55a.1.1 0 0 0-.043.008c.259-.44.512-.952.684-1.383.184-.459.367-1.009.55-1.467v-.367c-.183-.642-.366-1.192-.55-1.742-.275-.642-.458-1.284-.641-1.925-.184-.55-.459-1.192-.642-1.834-.275-.642-.459-1.375-.734-2.017-.366-1.192-.733-2.384-1.192-3.576-.366-1.192-.825-2.292-1.283-3.484-.367-1.1-.825-2.2-1.284-3.301-.458-1.1-.917-2.109-1.467-3.117-.092-.184-.275-.459-.367-.642-.183.183-.366.275-.55.458a20.942 20.942 0 0 0-2.017 2.017c-.275.367-.642.734-1.008 1.1l-5.227 5.502c-.916 1.008-1.833 1.925-2.75 2.842-.367.459-.734.917-1.192 1.284-.275.183-.642.55-.917.733-.092.092-.183.092-.275.184v.458c0 .825 0 1.742.092 2.567.091 1.1.183 2.11.275 3.21.183 1.925.458 3.942.641 5.867.276 2.568.642 5.043 1.009 7.519.367 2.384.825 4.768 1.192 7.243.183 1.284.367 2.476.55 3.76.092 1.191.275 2.383.275 3.575 0 1.284-.183 2.567-.367 3.851-.091.55-.275 1.192-.366 1.742-.184.642-.275 1.192-.459 1.834-.091-.092-.091-.184-.091-.275-.367-1.65-.826-3.393-1.1-5.135-.184-1.283-.367-2.567-.46-3.85-.09-1.284-.274-2.476-.458-3.76-.091-1.1-.275-2.292-.458-3.392-.275-1.192-.458-2.476-.642-3.668a204.108 204.108 0 0 1-1.925-15.037c-.092-1.283-.275-2.658-.367-3.942v-1.925-.459-.917c0-.367.183-.825.458-1.1l.275-.275 2.476-2.476 2.567-2.567c.825-.917 1.742-1.742 2.568-2.659.916-.917 1.833-1.925 2.75-2.842l1.467-1.467c.459-.55 1.009-1.1 1.559-1.559.642-.55 1.283-1.008 2.109-1.284.275-.091.55-.091.641-.458zm6.602 28.24s0-.06.05-.084a9.385 9.385 0 0 1-.05.084zm-6.51-24.39c0 .093.092.184.092.184z"/></g></g></g></svg>