
<svg width="97" height="135" viewBox="0 0 97 135" fill="none" xmlns="http://www.w3.org/2000/svg">
<path d="M46.8295 21.8294C46.7488 21.8085 46.6174 21.8176 46.4352 21.8567C46.2582 21.8755 46.0659 21.9119 45.8583 21.9659C45.6761 22.0049 45.4939 22.044 45.3117 22.083C45.1294 22.122 44.9778 22.1259 44.8568 22.0946C44.6551 22.0426 44.4839 21.9553 44.3434 21.833C44.223 21.7158 44.1941 21.5362 44.2566 21.2942C44.3087 21.0925 44.4489 20.9243 44.6774 20.7896C44.9259 20.6601 45.2048 20.5385 45.5139 20.4246C45.823 20.3108 46.1295 20.207 46.4334 20.1134C46.7373 20.0197 46.9706 19.9078 47.1333 19.7777C47.1763 19.4445 47.3023 18.8315 47.5113 17.9388C47.7203 17.046 47.9807 16.0374 48.2925 14.913C48.6297 13.7736 49.005 12.6118 49.4183 11.4275C49.8519 10.2485 50.302 9.21356 50.7686 8.32277C51.2607 7.41702 51.7687 6.7413 52.2926 6.29562C52.8164 5.84994 53.3549 5.80608 53.908 6.16404C54.3316 6.27342 54.681 6.50349 54.9562 6.85426C55.2366 7.18486 55.4484 7.57304 55.5915 8.01881C55.7398 8.4444 55.8172 8.89471 55.8237 9.36974C55.8503 9.84998 55.8167 10.2716 55.723 10.6347C55.6709 10.8365 55.5632 11.0453 55.3998 11.2613C55.2618 11.4624 55.0718 11.5317 54.8298 11.4692L54.739 11.4457C54.7188 11.4405 54.7012 11.4252 54.6863 11.3999C54.5199 10.0444 54.3069 9.161 54.0473 8.74971C53.8131 8.32346 53.5333 8.24046 53.2079 8.50071C52.9026 8.76617 52.5626 9.29159 52.1877 10.077C51.8329 10.8676 51.4645 11.7945 51.0824 12.8577C50.7055 13.9008 50.3205 15.017 49.9273 16.2065C49.5393 17.3758 49.1722 18.4644 48.8259 19.4724C49.2554 19.4757 49.6142 19.4607 49.9025 19.4276C50.2109 19.3997 50.4891 19.3639 50.7371 19.3203C50.9902 19.2566 51.2206 19.1977 51.4282 19.1437C51.641 19.0696 51.8687 19.0208 52.1114 18.9974C52.5871 18.9051 53.1006 18.8332 53.6517 18.7819C54.2283 18.7156 54.7586 18.7449 55.2427 18.8699C55.0917 19.4549 54.8558 19.9104 54.5349 20.2363C54.2342 20.5675 53.8812 20.8099 53.4758 20.9634C53.0905 21.1221 52.6705 21.2073 52.2156 21.219C51.766 21.2105 51.3088 21.1893 50.8442 21.1554C50.3998 21.1267 49.9755 21.1032 49.5714 21.085C49.1673 21.0667 48.8084 21.0816 48.4948 21.1297C48.2168 22.4565 48.0006 23.6271 47.8462 24.6416C47.7121 25.6613 47.5864 26.5648 47.4692 27.3521C47.3721 28.1447 47.2604 28.869 47.1341 29.5249C47.0332 30.1658 46.8717 30.7912 46.6497 31.4009C46.6133 31.5421 46.5612 31.7438 46.4935 32.006C46.4512 32.2533 46.3786 32.4927 46.2757 32.7244C46.1931 32.9612 46.0678 33.1548 45.8999 33.3051C45.7372 33.4352 45.5247 33.4664 45.2625 33.3987C45.0204 33.3362 44.8519 33.2389 44.7569 33.1068C44.6671 32.9545 44.6463 32.7017 44.6945 32.3484C44.9954 30.6832 45.2513 29.2754 45.4622 28.125C45.6986 26.9595 45.8955 25.9884 46.0531 25.2114C46.2159 24.4143 46.3546 23.7939 46.4691 23.3501L46.8285 21.9582C46.8493 21.8775 46.8497 21.8346 46.8295 21.8294ZM54.1741 20.0786L54.2366 19.8366C54.2887 19.6349 54.3958 19.5119 54.5578 19.4677C54.74 19.4286 54.932 19.4352 55.1337 19.4873C55.2951 19.5289 55.4411 19.5882 55.5719 19.665C55.7079 19.7216 55.7902 19.8612 55.8188 20.0837C55.8012 20.4019 55.7524 20.8412 55.6723 21.4014C55.5974 21.9415 55.5169 22.5447 55.431 23.2111C55.345 23.8774 55.2486 24.5841 55.1418 25.3311C55.0604 26.0631 54.9766 26.7623 54.8907 27.4287C54.8301 28.08 54.7851 28.6709 54.7558 29.2012C54.7264 29.7316 54.7384 30.1435 54.7917 30.4369C55.2312 28.4848 55.724 26.8262 56.2701 25.461C56.8214 24.0757 57.4638 23.0044 58.1973 22.247C58.9561 21.4747 59.8236 21.0317 60.7997 20.9179C61.8012 20.7892 62.9516 21.0001 64.2511 21.5508C64.8764 21.7123 65.1031 22.1258 64.9312 22.7915C64.8635 23.0537 64.6452 23.191 64.2762 23.2033C63.9125 23.1955 63.5136 23.157 63.0796 23.088C62.6508 22.9988 62.2294 22.9223 61.8156 22.8585C61.4017 22.7947 61.0832 22.82 60.86 22.9345C60.0296 23.1504 59.3538 23.643 58.8325 24.4121C58.3313 25.1864 57.8718 26.1328 57.4539 27.2513C57.036 28.3699 56.6197 29.6072 56.205 30.9632C55.8157 32.3043 55.3253 33.6623 54.7336 35.0372C54.6815 35.239 54.5618 35.3694 54.3743 35.4286C54.1869 35.4878 53.9722 35.4861 53.7301 35.4236C53.5082 35.3664 53.2994 35.2586 53.1035 35.1005C52.9278 34.9475 52.8055 34.7546 52.7366 34.5216L54.1741 20.0786ZM63.3991 31.0456C63.2931 31.0397 63.134 31.0309 62.9218 31.0192C62.7097 31.0074 62.4953 30.9628 62.2786 30.8854C62.0619 30.8079 61.8859 30.6979 61.7506 30.5554C61.5951 30.4076 61.5486 30.2127 61.6111 29.9707C61.6475 29.8295 61.7038 29.7364 61.78 29.6915C61.8561 29.6467 61.9804 29.5819 62.1529 29.4973C62.6904 29.2488 63.1834 28.8812 63.6318 28.3945C64.1055 27.8929 64.5569 27.3532 64.9858 26.7754C65.4199 26.1774 65.8615 25.5921 66.3105 25.0196C66.785 24.432 67.2816 23.9255 67.8002 23.5C68.3189 23.0745 68.9023 22.7732 69.5505 22.5963C70.1986 22.4194 70.9336 22.4478 71.7554 22.6815C72.0984 22.77 72.4608 22.9497 72.8427 23.2204C73.2247 23.4912 73.5607 23.8146 73.8509 24.1908C74.1463 24.5468 74.3655 24.9476 74.5086 25.3934C74.6518 25.8392 74.6634 26.294 74.5436 26.758C74.6028 26.9454 74.4421 27.1513 74.0614 27.3758C73.7008 27.6054 73.2215 27.8367 72.6235 28.0696C72.0307 28.2823 71.362 28.497 70.6176 28.7136C69.8985 28.9152 69.2048 29.1019 68.5365 29.2736C67.8682 29.4453 67.2809 29.5949 66.7746 29.7224C66.2683 29.8499 65.929 29.9559 65.7565 30.0405C65.6036 30.2162 65.463 30.4273 65.3348 30.6739C65.2065 30.9205 65.091 31.1596 64.9882 31.3913C64.9107 31.608 64.8358 31.8146 64.7636 32.0111C64.7167 32.1926 64.6803 32.3338 64.6542 32.4347C64.5553 32.818 64.4257 33.2364 64.2656 33.6899C64.1256 34.1486 64.0312 34.5976 63.9824 35.0369C63.9589 35.4611 64.0418 35.8483 64.2311 36.1984C64.4256 36.5284 64.8356 36.7741 65.4609 36.9355C66.1266 37.1074 66.7936 37.1075 67.4619 36.9358C68.1354 36.7439 68.7868 36.471 69.4161 36.1171C70.0454 35.7631 70.6347 35.3559 71.1839 34.8952C71.7534 34.4398 72.262 34.0117 72.7097 33.6109C73.1828 33.1951 73.5922 32.8597 73.9377 32.6047C74.2833 32.3496 74.5469 32.2455 74.7284 32.2924C74.9301 32.3445 75.1315 32.4395 75.3326 32.5775C75.559 32.7005 75.6384 32.8931 75.5707 33.1554C75.4769 33.5185 75.2137 33.9131 74.7809 34.3393C74.3683 34.7706 73.847 35.2062 73.217 35.6461C72.6073 36.0911 71.9168 36.5153 71.1456 36.9186C70.3999 37.307 69.657 37.6424 68.9171 37.9247C68.1824 38.1869 67.476 38.381 66.798 38.5072C66.1251 38.6132 65.5567 38.6063 65.0927 38.4865C64.185 38.2521 63.5564 37.8531 63.2071 37.2896C62.8577 36.726 62.6681 36.0853 62.6382 35.3676C62.6286 34.655 62.71 33.923 62.8825 33.1714C63.0804 32.4049 63.2526 31.6963 63.3991 31.0456ZM71.0759 24.3134C70.733 24.2249 70.3256 24.3026 69.8538 24.5466C69.3872 24.7704 68.9199 25.0801 68.452 25.4756C68.0095 25.8563 67.6122 26.2701 67.2601 26.7171C66.9334 27.1491 66.7283 27.5265 66.645 27.8493C66.9476 27.9274 67.4099 27.9284 68.032 27.8524C68.6795 27.7613 69.3299 27.6173 69.9833 27.4202C70.6366 27.2231 71.2246 26.9876 71.7471 26.7137C72.2697 26.4398 72.5753 26.1314 72.6638 25.7885C72.7107 25.607 72.6791 25.4374 72.5692 25.2799C72.4592 25.1225 72.3138 24.9773 72.1329 24.8446C71.9722 24.717 71.7962 24.607 71.6049 24.5146C71.4136 24.4222 71.2373 24.3551 71.0759 24.3134ZM75.852 34.2608C75.7459 34.2549 75.5868 34.2461 75.3747 34.2344C75.1626 34.2226 74.9482 34.178 74.7315 34.1006C74.5148 34.0231 74.3388 33.9131 74.2035 33.7706C74.048 33.6229 74.0014 33.428 74.0639 33.1859C74.1004 33.0447 74.1567 32.9517 74.2328 32.9068C74.309 32.8619 74.4333 32.7972 74.6057 32.7126C75.1433 32.4641 75.6362 32.0965 76.0846 31.6098C76.5584 31.1081 77.0098 30.5684 77.4387 29.9906C77.8728 29.3926 78.3143 28.8074 78.7634 28.2348C79.2379 27.6472 79.7344 27.1407 80.2531 26.7152C80.7718 26.2897 81.3552 25.9885 82.0033 25.8116C82.6515 25.6346 83.3865 25.663 84.2083 25.8967C84.5512 25.9853 84.9137 26.1649 85.2956 26.4357C85.6775 26.7064 86.0136 27.0299 86.3038 27.406C86.5992 27.762 86.8184 28.1629 86.9615 28.6086C87.1046 29.0544 87.1163 29.5093 86.9965 29.9732C87.0557 30.1606 86.8949 30.3666 86.5142 30.591C86.1537 30.8207 85.6744 31.052 85.0764 31.2848C84.4835 31.4976 83.8149 31.7122 83.0704 31.9288C82.3514 32.1305 81.6577 32.3171 80.9894 32.4888C80.321 32.6606 79.7338 32.8101 79.2275 32.9376C78.7212 33.0651 78.3818 33.1711 78.2094 33.2557C78.0564 33.4314 77.9159 33.6425 77.7876 33.8891C77.6594 34.1358 77.5439 34.3749 77.441 34.6065C77.3636 34.8232 77.2887 35.0298 77.2165 35.2263C77.1696 35.4079 77.1331 35.5491 77.1071 35.6499C77.0081 36.0332 76.8786 36.4516 76.7185 36.9051C76.5785 37.3639 76.4841 37.8129 76.4352 38.2521C76.4118 38.6764 76.4947 39.0635 76.684 39.4137C76.8785 39.7436 77.2884 39.9893 77.9138 40.1507C78.5794 40.3226 79.2464 40.3227 79.9148 40.151C80.5883 39.9591 81.2397 39.6862 81.869 39.3323C82.4983 38.9784 83.0875 38.5711 83.6368 38.1104C84.2062 37.655 84.7148 37.2269 85.1626 36.8261C85.6357 36.4103 86.0451 36.0749 86.3906 35.8199C86.7362 35.5648 86.9997 35.4608 87.1813 35.5076C87.383 35.5597 87.5844 35.6547 87.7855 35.7927C88.0119 35.9157 88.0913 36.1084 88.0235 36.3706C87.9298 36.7337 87.6665 37.1283 87.2338 37.5545C86.8211 37.9859 86.2999 38.4215 85.6699 38.8613C85.0601 39.3063 84.3697 39.7305 83.5985 40.1339C82.8527 40.5223 82.1099 40.8576 81.37 41.1399C80.6353 41.4021 79.9289 41.5962 79.2508 41.7224C78.578 41.8284 78.0096 41.8215 77.5456 41.7017C76.6379 41.4673 76.0093 41.0684 75.66 40.5048C75.3106 39.9412 75.121 39.3006 75.0911 38.5828C75.0814 37.8703 75.1629 37.1382 75.3354 36.3867C75.5333 35.6201 75.7055 34.9115 75.852 34.2608ZM83.5288 27.5287C83.1858 27.4401 82.7785 27.5178 82.3067 27.7618C81.8401 27.9856 81.3728 28.2953 80.9049 28.6909C80.4624 29.0715 80.065 29.4853 79.7129 29.9323C79.3862 30.3644 79.1812 30.7418 79.0979 31.0645C79.4005 31.1426 79.8628 31.1437 80.4849 31.0676C81.1324 30.9766 81.7828 30.8325 82.4361 30.6354C83.0895 30.4383 83.6774 30.2028 84.2 29.929C84.7226 29.6551 85.0281 29.3467 85.1167 29.0037C85.1635 28.8222 85.132 28.6527 85.022 28.4952C84.9121 28.3377 84.7667 28.1926 84.5858 28.0598C84.4251 27.9322 84.2491 27.8222 84.0578 27.7298C83.8665 27.6374 83.6901 27.5703 83.5288 27.5287Z" fill="#585858"/>
<path d="M64.7583 58.2823C64.4071 58.7168 64.056 59.1513 63.7047 59.5857C63.333 60.0754 62.9819 60.5099 62.6102 60.9995C62.2385 61.4891 61.8462 62.0339 61.454 62.5787C61.1789 62.9786 60.9593 63.3992 60.6842 63.7992C59.9759 64.8543 59.3232 65.93 58.6149 66.9851C57.9476 67.9298 57.3563 68.84 56.689 69.7848C55.9251 70.8192 55.0851 71.8882 54.3212 72.9226C53.1155 74.295 51.9096 75.6674 50.7038 77.0398C50.2765 77.5088 49.8697 77.9226 49.3868 78.3709C48.5528 79.2537 47.6631 80.1158 46.829 80.9986C45.7052 82.1504 44.4702 83.2609 43.2908 84.3921C42.7875 84.8955 42.2635 85.4542 41.7251 85.8818C41.0695 86.4543 40.4141 87.0268 39.7585 87.5993C38.8133 88.4408 37.868 89.2823 36.9432 90.0686C35.7492 91.0688 34.5756 92.0138 33.3816 93.0139C32.767 93.4761 32.0764 93.9728 31.4619 94.435C30.7712 94.9316 30.1362 95.449 29.466 95.8905C28.6437 96.401 27.8771 96.9322 27.0343 97.4979C26.4402 97.9049 25.8461 98.3119 25.2725 98.6638C23.8006 99.5607 22.2525 100.492 20.7806 101.389C19.1008 102.334 17.4562 103.355 15.7765 104.301C14.4772 105.073 13.1428 105.77 11.788 106.522C13.2896 103.502 14.7562 100.406 16.1467 97.3447C16.4687 96.6483 16.7351 95.9312 17.0571 95.2348C17.221 94.7935 17.4406 94.3729 17.6045 93.9317C17.6455 93.8213 17.742 93.7317 17.8035 93.5662C18.0026 93.2007 18.1109 92.7388 18.2544 92.3527C18.6437 91.3047 19.08 89.9602 18.457 88.9127C18.1206 88.2855 17.4039 87.8309 16.69 87.8795C15.9204 87.9075 15.2913 88.2387 14.8581 88.8938C14.7 89.1489 14.6531 89.4454 14.5507 89.7212C14.5038 90.0176 14.3809 90.3486 14.2784 90.6244C14.0325 91.2863 13.7514 91.8724 13.5055 92.5343C13.5465 92.424 13.567 92.3688 13.608 92.2585C12.2526 95.3957 10.8211 98.5675 9.29894 101.643C9.12039 101.953 8.92132 102.319 8.74277 102.629C8.54372 102.994 8.36528 103.305 8.16624 103.67C7.76815 104.401 7.36995 105.132 6.91628 105.842C5.95333 107.242 4.9699 108.697 4.06255 110.118C3.90449 110.373 3.74654 110.628 3.58848 110.883C3.58848 110.883 3.56794 110.938 3.51235 110.918C3.20802 111.056 2.95923 111.214 2.65489 111.352C2.50273 111.421 2.40615 111.511 2.25398 111.58C2.02573 111.683 1.75661 111.897 1.56346 112.077C1.30882 112.421 1.01318 112.877 1.20326 113.387C1.28805 113.669 1.39334 113.897 1.57471 114.09C1.75608 114.282 2.03405 114.386 2.25641 114.468C2.30611 114.675 2.37622 114.827 2.44641 114.978C2.502 114.999 2.48148 115.054 2.53707 115.075C2.69795 115.323 2.93499 115.537 3.19245 115.695C3.4499 115.853 3.65171 115.991 3.95015 116.039C4.41536 116.149 4.88643 116.073 5.35753 115.997C5.77304 115.9 6.18858 115.804 6.62458 115.652C8.25153 115.189 9.82285 114.706 11.3942 114.223C13.4776 113.553 15.5612 112.883 17.6446 112.213C17.7002 112.234 17.7207 112.179 17.7763 112.2C19.4529 111.944 21.1501 111.633 22.8472 111.322C26.3176 110.665 29.7879 110.008 33.2993 109.242C34.0542 109.083 34.809 108.924 35.564 108.765C35.9795 108.668 36.319 108.606 36.7345 108.509C37.074 108.447 37.3782 108.309 37.6825 108.171C37.9108 108.067 38.145 107.778 38.2825 107.578C38.4816 107.212 38.59 106.75 38.4701 106.392C38.28 105.882 38.0284 105.537 37.5691 105.241C37.0893 105 36.4719 104.959 35.9306 104.883C34.6958 104.801 33.5109 104.926 32.3053 105.106C30.7047 105.327 29.1743 105.7 27.5678 106.108C24.0711 107.006 20.6651 108 17.1829 109.029C16.5392 109.229 15.9715 109.395 15.3277 109.595C13.4228 109.954 11.518 110.314 9.61308 110.673C10.5671 110.149 11.5211 109.624 12.4751 109.1C15.5097 107.403 18.4886 105.685 21.4325 103.891C22.9806 102.96 24.5491 101.973 26.1176 100.986C27.5896 100.09 28.9914 99.0411 30.4282 98.0684C31.0018 97.7165 31.4846 97.2682 32.0787 96.8612C32.942 96.2403 33.7498 95.5988 34.6131 94.978C35.2276 94.5158 35.7865 94.033 36.3455 93.5502C37.1737 92.8535 38.078 92.1223 38.9062 91.4257C39.3686 91.0325 39.8309 90.6393 40.2377 90.2255C41.1069 89.4185 42.0317 88.6322 42.9009 87.8252C44.1359 86.7148 45.3563 85.4733 46.5357 84.3422C46.9425 83.9284 47.4254 83.4801 47.8322 83.0662C48.4731 82.3628 49.1697 81.68 49.8107 80.9765C50.5277 80.2386 51.2446 79.5006 51.9821 78.7074C52.3889 78.2936 52.7607 77.804 53.1675 77.3902C53.946 76.4868 54.7039 75.6384 55.4824 74.735C55.9097 74.266 56.2054 73.8109 56.5771 73.3213C57.2444 72.3765 57.9468 71.5076 58.6141 70.5628C59.0063 70.018 59.3985 69.4733 59.7351 68.9078C60.7596 67.3425 61.784 65.7771 62.8085 64.2118C63.2826 63.4464 63.6661 62.5845 63.9735 61.7571C64.0964 61.4261 64.1639 61.0745 64.2868 60.7436C64.3747 60.3368 64.4625 59.9301 64.5504 59.5233C64.6939 59.1372 64.726 58.7097 64.7583 58.2823Z" fill="#585858"/>
</svg>
