<svg class="sc-xh5ra9-7 eQCopZ" xmlns="http://www.w3.org/2000/svg" width="344" height="266" viewBox="0 0 172 133"><path fill="#eeeef0" d="M72.192.384c-8.182-.34-16.457.09-24.07 1.676.369-.087.99-.043 1.473-.343-3.565.642-6.623 1.543-10.303 2.399-3.68.857-7.108 1.842-10.786 2.699-6.256 1.457-12.375 3.256-18.63 4.712-2.576.6-4.784 1.115-6.832 2.527a6.744 6.744 0 0 0-2.259 2.397c-.462.856-.555 1.627-.765 2.611C-.304 20.26.497 21.76.793 23c.866 3.167 1.846 6.12 2.712 9.288C5.236 38.62 6.967 44.955 8.446 51.16c1.501 6.762 2.266 13.696 3.882 20.243.887 3.724 2.28 7.704 3.903 11.257.801 1.497 1.488 3.21 2.403 4.494.526.812.8 1.497 1.327 2.31.527.812 1.443 2.097 2.705 2.739l.115-.214s.116-.214-.136-.342c-.065-1.671.491-3.297.794-5.051.324-1.199.512-2.74.585-4.067.396-2.525.54-5.18.432-7.961-.13-3.338-.374-6.463-1.125-9.844-.613-3.038-1.364-6.42-1.977-9.458-1.34-5.863-2.683-11.727-4.393-17.505-.866-3.167-1.732-6.334-2.966-9.415-.569-1.926-1.392-3.98-1.847-6.12 1.956-.643 4.164-1.157 6.371-1.67 2.324-.729 4.785-1.115 7.108-1.843 5.151-1.2 10.418-2.613 15.316-3.942 5.268-1.413 10.419-2.612 15.412-4.711A105.798 105.798 0 0 0 72.192.384zM144.72 34.708c.305 4.216.607 8.432 1.506 12.558.193 1.983.468 3.716.918 5.78.559 4.294 1.714 8.5 2.868 12.704 1.238 3.958 2.136 8.083 3.035 12.208.816 4.376 1.97 8.58 2.787 12.956.45 2.063.725 3.797 1.174 5.86-.082.249.092.578.01.827-1.016.508-2.288.938-3.304 1.446-2.966 1.277-5.931 2.553-8.724 4.16-5.336 2.463-10.16 5.086-15.322 7.879-2.37 1.187-4.741 2.374-6.938 3.89-2.535 1.685-4.813 3.45-7.175 5.463-1.94 1.597-3.707 3.52-5.646 5.116-2.023 1.844-3.697 4.346-5.72 6.19 0 0-.082.25-.338.17.43.41 1.876.308 2.471.218 1.108.07 2.041-.189 2.893-.2a86.732 86.732 0 0 0 7.56-1.498c5.265-1.387 10.692-3.273 15.259-5.976 4.486-2.453 8.97-4.906 13.374-7.11 4.062-2.036 8.383-3.99 12.447-6.025 1.272-.429 2.628-1.107 3.643-1.616 2.288-.938 4.412-1.377 6.526-2.644 2.033-1.016 3.286-3.1 3.688-5.173.32-1.824-.037-3.31-.23-5.292-.275-1.734-.634-3.22-.99-4.705-1.267-6.437-2.87-12.705-4.476-18.973-1.062-3.628-1.868-7.176-2.932-10.803-1.063-3.627-2.208-7.005-3.866-10.543-1.31-2.88-3.215-5.67-5.203-8.21-1.208-1.474-2.418-2.949-3.709-4.174-1.721-1.634-3.525-3.019-5.585-4.483zM132.553 16.26c-2.731 2.193-5.93 4.663-8.661 6.855-1.134.957-2.732 2.192-3.865 3.149 1.472-2.289 3.21-4.452 4.683-6.74.668-.681.87-1.083 1.536-1.763-1.662.708-3.525 1.818-5.124 3.053-1.133.958-2.53 1.79-3.664 2.747-2.266 1.914-4.796 3.704-7.062 5.62-5.464 4.383-10.398 9.016-15.535 14.052-9.14 9.115-18.342 17.702-27.545 26.29-4.267 3.953-8.534 7.908-12.6 11.46-2.469 2.316-5.402 4.91-7.87 7.227-2.466 2.317-4.732 4.232-7.2 6.548-.668.68-1.335 1.36-1.8 1.637-.668.68-1.738 2.164-2.405 2.844-.805 1.609-1.674 2.69-1.75 4.147l-.415 2.787c-.277 1.86.642 3.287 1.498 4.19 1.386 1.148 3.375 1.092 5.44-.42 1.864-1.11 3.663-2.746 5.463-4.384 7.857-5.245 15.384-11.14 22.32-17.815 10.135-9.141 20.005-18.41 30.076-28.079 6.068-5.59 11.871-11.307 17.94-16.896l9.403-8.99c1.801-1.637 3.803-3.678 5.602-5.314 1.334-1.36 2.733-2.192 4.067-3.551.466-.278.465-.278.667-.68l.201-.403c1.738-2.164 2.681-4.702 2.366-7.336-.39-1.18-.982-1.955-1.776-2.33-1.396.833-2.856 1.14-3.99 2.097z"></path></svg>