<svg class="sc-xh5ra9-4 dHeAoK" xmlns="http://www.w3.org/2000/svg" width="94" height="86" viewBox="0 0 47 43"><path fill="#f0f0f0" d="M17.726 17.22c1.58 3.678 3.9 6.956 6.264 10.108 1.254 1.674 2.996 2.96 4.164 4.78.45.735 1.349.89 2.029.254.68-.637 1.881-1.151 1.418-2.46a11.857 11.857 0 0 0-1.097-2.328c-2.519-4.027-4.995-8.074-7.663-11.978-1.149-1.67-2.806-2.996-4.252-4.42-.538-.485-1.27-.614-1.924-.252-.719.445-1.024 1.22-.7 2.016.524 1.438 1.152 2.88 1.76 4.28zM.477 27.463c.28.921 1.048 1.455 1.794 2.051 4.37 3.47 8.485 7.27 12.068 11.586.33.37.68.785 1.116 1.053.955.603 1.821.142 2.11-.995.155-.547-.194-1.067.13-1.694 1.012-1.9.93-1.966-.621-3.395-2.792-2.528-5.883-4.705-8.931-6.902L2.853 25.5c-.705-.51-1.45-1.106-2.278-.453-.995.733-.504 1.555-.098 2.417zM40.924-.098c-.643.935-.531 1.936-.586 2.805-.143 5.493.217 10.96.954 16.46.285 2.025 1.164 3.56 2.888 4.59 1.163.716 2.24.155 2.323-1.201.048-.444-.05-.872-.129-1.256-1-4.638-1.414-9.342-1.68-14.063-.154-2.403-.455-4.79-2.907-6.162-.146-.09-.161-.45-.283-.709-.02-.15-.207-.219-.58-.464z"></path></svg>