
<?xml version="1.0" encoding="UTF-8"?>
<svg width="59px" height="135px" viewBox="0 0 59 135" version="1.1" xmlns="http://www.w3.org/2000/svg" xmlns:xlink="http://www.w3.org/1999/xlink">
    <!-- Generator: Sketch 52.6 (67491) - http://www.bohemiancoding.com/sketch -->
    <title>lots o dots</title>
    <desc>Created with Sketch.</desc>
    <g id="Page-1" stroke="none" stroke-width="1" fill="none" fill-rule="evenodd">
        <g id="Homepage" transform="translate(-929.000000, -1343.000000)" fill="#EA8DC4">
            <g id="getting-started" transform="translate(135.000000, 1078.000000)">
                <g id="lots-o-dots" transform="translate(794.000000, 264.000000)">
                    <path d="M4.4535,133.8628 C4.4535,134.7588 3.7265,135.4868 2.8285,135.4868 C1.9325,135.4868 1.2045,134.7588 1.2045,133.8628 C1.2045,132.9658 1.9325,132.2378 2.8285,132.2378 C3.7265,132.2378 4.4535,132.9658 4.4535,133.8628" id="Fill-1"></path>
                    <path d="M13.3349,133.8628 C13.3349,134.7588 12.6069,135.4868 11.7099,135.4868 C10.8129,135.4868 10.0859,134.7588 10.0859,133.8628 C10.0859,132.9658 10.8129,132.2378 11.7099,132.2378 C12.6069,132.2378 13.3349,132.9658 13.3349,133.8628" id="Fill-3"></path>
                    <path d="M21.2157,133.8628 C21.2157,134.7588 20.4877,135.4868 19.5907,135.4868 C18.6947,135.4868 17.9667,134.7588 17.9667,133.8628 C17.9667,132.9658 18.6947,132.2378 19.5907,132.2378 C20.4877,132.2378 21.2157,132.9658 21.2157,133.8628" id="Fill-5"></path>
                    <path d="M30.0966,133.8628 C30.0966,134.7588 29.3696,135.4868 28.4726,135.4868 C27.5756,135.4868 26.8476,134.7588 26.8476,133.8628 C26.8476,132.9658 27.5756,132.2378 28.4726,132.2378 C29.3696,132.2378 30.0966,132.9658 30.0966,133.8628" id="Fill-7"></path>
                    <path d="M37.978,133.8628 C37.978,134.7588 37.25,135.4868 36.353,135.4868 C35.457,135.4868 34.729,134.7588 34.729,133.8628 C34.729,132.9658 35.457,132.2378 36.353,132.2378 C37.25,132.2378 37.978,132.9658 37.978,133.8628" id="Fill-9"></path>
                    <path d="M45.8588,133.8628 C45.8588,134.7588 45.1318,135.4868 44.2338,135.4868 C43.3378,135.4868 42.6098,134.7588 42.6098,133.8628 C42.6098,132.9658 43.3378,132.2378 44.2338,132.2378 C45.1318,132.2378 45.8588,132.9658 45.8588,133.8628" id="Fill-11"></path>
                    <path d="M54.1054,133.8628 C54.1054,134.7588 53.3784,135.4868 52.4804,135.4868 C51.5844,135.4868 50.8564,134.7588 50.8564,133.8628 C50.8564,132.9658 51.5844,132.2378 52.4804,132.2378 C53.3784,132.2378 54.1054,132.9658 54.1054,133.8628" id="Fill-13"></path>
                    <path d="M4.4535,117.6382 C4.4535,118.5352 3.7265,119.2622 2.8285,119.2622 C1.9325,119.2622 1.2045,118.5352 1.2045,117.6382 C1.2045,116.7412 1.9325,116.0132 2.8285,116.0132 C3.7265,116.0132 4.4535,116.7412 4.4535,117.6382" id="Fill-15"></path>
                    <path d="M13.3349,117.6382 C13.3349,118.5352 12.6069,119.2622 11.7099,119.2622 C10.8129,119.2622 10.0859,118.5352 10.0859,117.6382 C10.0859,116.7412 10.8129,116.0132 11.7099,116.0132 C12.6069,116.0132 13.3349,116.7412 13.3349,117.6382" id="Fill-17"></path>
                    <path d="M21.2157,117.6382 C21.2157,118.5352 20.4877,119.2622 19.5907,119.2622 C18.6947,119.2622 17.9667,118.5352 17.9667,117.6382 C17.9667,116.7412 18.6947,116.0132 19.5907,116.0132 C20.4877,116.0132 21.2157,116.7412 21.2157,117.6382" id="Fill-19"></path>
                    <path d="M30.0966,117.6382 C30.0966,118.5352 29.3696,119.2622 28.4726,119.2622 C27.5756,119.2622 26.8476,118.5352 26.8476,117.6382 C26.8476,116.7412 27.5756,116.0132 28.4726,116.0132 C29.3696,116.0132 30.0966,116.7412 30.0966,117.6382" id="Fill-21"></path>
                    <path d="M37.978,117.6382 C37.978,118.5352 37.25,119.2622 36.353,119.2622 C35.457,119.2622 34.729,118.5352 34.729,117.6382 C34.729,116.7412 35.457,116.0132 36.353,116.0132 C37.25,116.0132 37.978,116.7412 37.978,117.6382" id="Fill-23"></path>
                    <path d="M45.8588,117.6382 C45.8588,118.5352 45.1318,119.2622 44.2338,119.2622 C43.3378,119.2622 42.6098,118.5352 42.6098,117.6382 C42.6098,116.7412 43.3378,116.0132 44.2338,116.0132 C45.1318,116.0132 45.8588,116.7412 45.8588,117.6382" id="Fill-25"></path>
                    <path d="M54.4159,117.6382 C54.4159,118.5352 53.7529,119.2622 52.4809,119.2622 C51.5839,119.2622 50.8569,118.5352 50.8569,117.6382 C50.8569,116.7412 51.5839,116.0132 52.4809,116.0132 C53.8479,116.0132 54.4159,116.7412 54.4159,117.6382" id="Fill-27"></path>
                    <path d="M4.4535,125.6158 C4.4535,126.5128 3.7265,127.2408 2.8285,127.2408 C1.9325,127.2408 1.2045,126.5128 1.2045,125.6158 C1.2045,124.7198 1.9325,123.9918 2.8285,123.9918 C3.7265,123.9918 4.4535,124.7198 4.4535,125.6158" id="Fill-29"></path>
                    <path d="M13.3349,125.6158 C13.3349,126.5128 12.6069,127.2408 11.7099,127.2408 C10.8129,127.2408 10.0859,126.5128 10.0859,125.6158 C10.0859,124.7198 10.8129,123.9918 11.7099,123.9918 C12.6069,123.9918 13.3349,124.7198 13.3349,125.6158" id="Fill-31"></path>
                    <path d="M21.2157,125.6158 C21.2157,126.5128 20.4877,127.2408 19.5907,127.2408 C18.6947,127.2408 17.9667,126.5128 17.9667,125.6158 C17.9667,124.7198 18.6947,123.9918 19.5907,123.9918 C20.4877,123.9918 21.2157,124.7198 21.2157,125.6158" id="Fill-33"></path>
                    <path d="M30.0966,125.6158 C30.0966,126.5128 28.7026,127.2408 27.8056,127.2408 C26.9086,127.2408 25.8476,126.5128 25.8476,125.6158 C25.8476,124.7198 26.4376,123.9918 27.8056,123.9918 C29.1146,123.9918 30.0966,124.7198 30.0966,125.6158" id="Fill-35"></path>
                    <path d="M37.978,125.6158 C37.978,126.5128 37.25,127.2408 36.353,127.2408 C35.457,127.2408 34.729,126.5128 34.729,125.6158 C34.729,124.7198 35.457,123.9918 36.353,123.9918 C37.25,123.9918 37.978,124.7198 37.978,125.6158" id="Fill-37"></path>
                    <path d="M45.8588,125.6158 C45.8588,126.5128 45.1318,127.2408 44.2338,127.2408 C43.3378,127.2408 42.6098,126.5128 42.6098,125.6158 C42.6098,124.7198 43.3378,123.9918 44.2338,123.9918 C45.1318,123.9918 45.8588,124.7198 45.8588,125.6158" id="Fill-39"></path>
                    <path d="M54.1054,125.6158 C54.1054,126.5128 53.3784,127.2408 52.4804,127.2408 C51.5844,127.2408 50.8564,126.5128 50.8564,125.6158 C50.8564,124.7198 51.5844,123.9918 52.4804,123.9918 C53.3784,123.9918 54.1054,124.7198 54.1054,125.6158" id="Fill-41"></path>
                    <path d="M9.4975,129.7388 C9.4975,130.6358 8.2705,131.3638 7.3735,131.3638 C6.4765,131.3638 5.2485,130.6358 5.2485,129.7388 C5.2485,128.8428 5.7435,128.1148 7.3735,128.1148 C8.8355,128.1148 9.4975,128.8428 9.4975,129.7388" id="Fill-43"></path>
                    <path d="M17.3788,129.7388 C17.3788,130.6358 16.6508,131.3638 15.7538,131.3638 C14.8578,131.3638 14.1298,130.6358 14.1298,129.7388 C14.1298,128.8428 14.8578,128.1148 15.7538,128.1148 C16.6508,128.1148 17.3788,128.8428 17.3788,129.7388" id="Fill-45"></path>
                    <path d="M25.2597,129.7388 C25.2597,130.6358 24.5327,131.3638 23.6347,131.3638 C22.7387,131.3638 22.0107,130.6358 22.0107,129.7388 C22.0107,128.8428 22.7387,128.1148 23.6347,128.1148 C24.5327,128.1148 25.2597,128.8428 25.2597,129.7388" id="Fill-47"></path>
                    <path d="M34.1405,129.7388 C34.1405,130.6358 33.4135,131.3638 32.5165,131.3638 C31.6195,131.3638 30.8915,130.6358 30.8915,129.7388 C30.8915,128.8428 31.6195,128.1148 32.5165,128.1148 C33.4135,128.1148 34.1405,128.8428 34.1405,129.7388" id="Fill-49"></path>
                    <path d="M41.9784,129.7388 C41.9784,130.6358 41.0924,131.3558 40.1954,131.3558 C39.2974,131.3558 38.4124,130.6358 38.4124,129.7388 C38.4124,128.8428 39.2974,128.1228 40.1954,128.1228 C41.0924,128.1228 41.9784,128.8428 41.9784,129.7388" id="Fill-51"></path>
                    <path d="M49.9028,129.7388 C49.9028,130.6358 49.1758,131.3638 48.2778,131.3638 C47.3818,131.3638 46.6538,130.6358 46.6538,129.7388 C46.6538,128.8428 47.3818,128.1148 48.2778,128.1148 C49.1758,128.1148 49.9028,128.8428 49.9028,129.7388" id="Fill-53"></path>
                    <path d="M58.1493,129.7388 C58.1493,130.6358 57.4223,131.3638 56.5253,131.3638 C55.6283,131.3638 54.9003,130.6358 54.9003,129.7388 C54.9003,128.8428 55.6283,128.1148 56.5253,128.1148 C57.4223,128.1148 58.1493,128.8428 58.1493,129.7388" id="Fill-55"></path>
                    <path d="M9.4975,121.4156 C9.4975,122.3126 8.2705,123.0396 7.3735,123.0396 C6.4765,123.0396 5.2485,122.3126 5.2485,121.4156 C5.2485,120.5186 5.7435,119.7906 7.3735,119.7906 C8.8355,119.7906 9.4975,120.5186 9.4975,121.4156" id="Fill-57"></path>
                    <path d="M17.3788,121.4156 C17.3788,122.3126 16.6508,123.0396 15.7538,123.0396 C14.8578,123.0396 14.1298,122.3126 14.1298,121.4156 C14.1298,120.5186 14.8578,119.7906 15.7538,119.7906 C16.6508,119.7906 17.3788,120.5186 17.3788,121.4156" id="Fill-59"></path>
                    <path d="M25.2597,121.4156 C25.2597,122.3126 24.5327,123.0396 23.6347,123.0396 C22.7387,123.0396 22.0107,122.3126 22.0107,121.4156 C22.0107,120.5186 22.7387,119.7906 23.6347,119.7906 C24.5327,119.7906 25.2597,120.5186 25.2597,121.4156" id="Fill-61"></path>
                    <path d="M34.1405,121.4156 C34.1405,122.3126 33.4135,123.0396 32.5165,123.0396 C31.6195,123.0396 30.5945,122.3126 30.5945,121.4156 C30.5945,120.5186 31.6195,119.7906 32.5165,119.7906 C33.4135,119.7906 34.1405,120.5186 34.1405,121.4156" id="Fill-63"></path>
                    <path d="M41.9784,121.4156 C41.9784,122.3126 41.0924,123.0316 40.1954,123.0316 C39.2974,123.0316 38.4124,122.3126 38.4124,121.4156 C38.4124,120.5186 39.2974,119.7986 40.1954,119.7986 C41.0924,119.7986 41.9784,120.5186 41.9784,121.4156" id="Fill-65"></path>
                    <path d="M49.9028,121.4156 C49.9028,122.3126 49.1758,123.0396 48.2778,123.0396 C47.3818,123.0396 46.6538,122.3126 46.6538,121.4156 C46.6538,120.5186 47.3818,119.7906 48.2778,119.7906 C49.1758,119.7906 49.9028,120.5186 49.9028,121.4156" id="Fill-67"></path>
                    <path d="M58.1493,121.4156 C58.1493,122.3126 57.4223,123.0396 56.5253,123.0396 C55.6283,123.0396 54.9003,122.3126 54.9003,121.4156 C54.9003,120.5186 55.6283,119.7906 56.5253,119.7906 C57.4223,119.7906 58.1493,120.5186 58.1493,121.4156" id="Fill-69"></path>
                    <path d="M4.4535,101.4165 C4.4535,102.3135 3.7265,103.0415 2.8285,103.0415 C1.9325,103.0415 1.2045,102.3135 1.2045,101.4165 C1.2045,100.5195 1.9325,99.7915 2.8285,99.7915 C3.7265,99.7915 4.4535,100.5195 4.4535,101.4165" id="Fill-71"></path>
                    <path d="M13.3349,101.4165 C13.3349,102.3135 12.6069,103.0415 11.7099,103.0415 C10.8129,103.0415 10.0859,102.3135 10.0859,101.4165 C10.0859,100.5195 10.8129,99.7915 11.7099,99.7915 C12.6069,99.7915 13.3349,100.5195 13.3349,101.4165" id="Fill-73"></path>
                    <path d="M21.2157,101.4165 C21.2157,102.3135 20.4877,103.0415 19.5907,103.0415 C18.6947,103.0415 17.9667,102.3135 17.9667,101.4165 C17.9667,100.5195 18.6947,99.7915 19.5907,99.7915 C20.4877,99.7915 21.2157,100.5195 21.2157,101.4165" id="Fill-75"></path>
                    <path d="M30.0966,101.4165 C30.0966,102.3135 29.3696,103.0415 28.4726,103.0415 C27.5756,103.0415 26.8476,102.3135 26.8476,101.4165 C26.8476,100.5195 27.5756,99.7915 28.4726,99.7915 C29.3696,99.7915 30.0966,100.5195 30.0966,101.4165" id="Fill-77"></path>
                    <path d="M37.978,101.4165 C37.978,102.3135 37.25,103.0415 36.353,103.0415 C34.91,103.0415 34.328,102.3135 34.328,101.4165 C34.328,100.5195 34.958,99.7915 36.353,99.7915 C37.648,99.7915 37.978,100.5195 37.978,101.4165" id="Fill-79"></path>
                    <path d="M45.8588,101.4165 C45.8588,102.3135 45.1318,103.0415 44.2338,103.0415 C43.3378,103.0415 42.6098,102.3135 42.6098,101.4165 C42.6098,100.5195 43.3378,99.7915 44.2338,99.7915 C45.1318,99.7915 45.8588,100.5195 45.8588,101.4165" id="Fill-81"></path>
                    <path d="M54.4159,101.4165 C54.4159,102.3135 53.7529,103.0415 52.4809,103.0415 C51.5839,103.0415 50.8569,102.3135 50.8569,101.4165 C50.8569,100.5195 51.5839,99.7915 52.4809,99.7915 C53.8479,99.7915 54.4159,100.5195 54.4159,101.4165" id="Fill-83"></path>
                    <path d="M4.4535,109.3946 C4.4535,110.2916 3.7265,111.0196 2.8285,111.0196 C1.9325,111.0196 1.2045,110.2916 1.2045,109.3946 C1.2045,108.4976 1.9325,107.7696 2.8285,107.7696 C3.7265,107.7696 4.4535,108.4976 4.4535,109.3946" id="Fill-85"></path>
                    <path d="M13.3349,109.3946 C13.3349,110.2916 12.6069,111.0196 11.7099,111.0196 C10.8129,111.0196 10.0859,110.2916 10.0859,109.3946 C10.0859,108.4976 10.8129,107.7696 11.7099,107.7696 C12.6069,107.7696 13.3349,108.4976 13.3349,109.3946" id="Fill-87"></path>
                    <path d="M21.2157,109.3946 C21.2157,110.2916 20.4877,111.0196 19.5907,111.0196 C18.6947,111.0196 17.9667,110.2916 17.9667,109.3946 C17.9667,108.4976 18.6947,107.7696 19.5907,107.7696 C20.4877,107.7696 21.2157,108.4976 21.2157,109.3946" id="Fill-89"></path>
                    <path d="M30.0966,109.3946 C30.0966,110.2916 28.7026,111.0196 27.8056,111.0196 C26.9086,111.0196 25.8476,110.2916 25.8476,109.3946 C25.8476,108.4976 26.4376,107.7696 27.8056,107.7696 C29.1146,107.7696 30.0966,108.4976 30.0966,109.3946" id="Fill-91"></path>
                    <path d="M37.978,109.3946 C37.978,110.2916 37.25,111.0196 36.353,111.0196 C35.457,111.0196 34.729,110.2916 34.729,109.3946 C34.729,108.4976 35.457,107.7696 36.353,107.7696 C37.25,107.7696 37.978,108.4976 37.978,109.3946" id="Fill-93"></path>
                    <path d="M45.8588,109.3946 C45.8588,110.2916 45.1318,111.0196 44.2338,111.0196 C43.3378,111.0196 42.6098,110.2916 42.6098,109.3946 C42.6098,108.4976 43.3378,107.7696 44.2338,107.7696 C45.1318,107.7696 45.8588,108.4976 45.8588,109.3946" id="Fill-95"></path>
                    <path d="M54.1054,109.3946 C54.1054,110.2916 53.3784,111.0196 52.4804,111.0196 C51.5844,111.0196 50.8564,110.2916 50.8564,109.3946 C50.8564,108.4976 51.5844,107.7696 52.4804,107.7696 C53.3784,107.7696 54.1054,108.4976 54.1054,109.3946" id="Fill-97"></path>
                    <path d="M9.4975,113.5176 C9.4975,114.4146 8.2705,115.1426 7.3735,115.1426 C6.4765,115.1426 5.2485,114.4146 5.2485,113.5176 C5.2485,112.6206 5.7435,111.8936 7.3735,111.8936 C8.8355,111.8936 9.4975,112.6206 9.4975,113.5176" id="Fill-99"></path>
                    <path d="M17.3788,113.5176 C17.3788,114.4146 16.6508,115.1426 15.7538,115.1426 C14.8578,115.1426 14.1298,114.4146 14.1298,113.5176 C14.1298,112.6206 14.8578,111.8936 15.7538,111.8936 C16.6508,111.8936 17.3788,112.6206 17.3788,113.5176" id="Fill-101"></path>
                    <path d="M25.2597,113.5176 C25.2597,114.4146 24.5327,115.1426 23.6347,115.1426 C22.7387,115.1426 22.0107,114.4146 22.0107,113.5176 C22.0107,112.6206 22.7387,111.8936 23.6347,111.8936 C24.5327,111.8936 25.2597,112.6206 25.2597,113.5176" id="Fill-103"></path>
                    <path d="M34.1405,113.5176 C34.1405,114.4146 33.4135,115.1426 32.5165,115.1426 C31.6195,115.1426 30.8915,114.4146 30.8915,113.5176 C30.8915,112.6206 31.6195,111.8936 32.5165,111.8936 C33.4135,111.8936 34.1405,112.6206 34.1405,113.5176" id="Fill-105"></path>
                    <path d="M41.9784,113.5176 C41.9784,114.4146 41.0924,115.1346 40.1954,115.1346 C39.2974,115.1346 38.4124,114.4146 38.4124,113.5176 C38.4124,112.6206 39.2974,111.9016 40.1954,111.9016 C41.0924,111.9016 41.9784,112.6206 41.9784,113.5176" id="Fill-107"></path>
                    <path d="M49.9028,113.5176 C49.9028,114.4146 49.1758,115.1426 48.2778,115.1426 C47.3818,115.1426 46.6538,114.4146 46.6538,113.5176 C46.6538,112.6206 47.3818,111.8936 48.2778,111.8936 C49.1758,111.8936 49.9028,112.6206 49.9028,113.5176" id="Fill-109"></path>
                    <path d="M58.1493,113.5176 C58.1493,114.4146 57.4223,115.1426 56.5253,115.1426 C55.6283,115.1426 54.9003,114.4146 54.9003,113.5176 C54.9003,112.6206 55.6283,111.8936 56.5253,111.8936 C57.4223,111.8936 58.1493,112.6206 58.1493,113.5176" id="Fill-111"></path>
                    <path d="M9.4975,105.1939 C9.4975,106.0909 8.2705,106.8189 7.3735,106.8189 C6.4765,106.8189 5.2485,106.0909 5.2485,105.1939 C5.2485,104.2969 5.7435,103.5689 7.3735,103.5689 C8.8355,103.5689 9.4975,104.2969 9.4975,105.1939" id="Fill-113"></path>
                    <path d="M17.3788,105.1939 C17.3788,106.0909 16.6508,106.8189 15.7538,106.8189 C14.8578,106.8189 14.1298,106.0909 14.1298,105.1939 C14.1298,104.2969 14.8578,103.5689 15.7538,103.5689 C16.6508,103.5689 17.3788,104.2969 17.3788,105.1939" id="Fill-115"></path>
                    <path d="M25.2597,105.1939 C25.2597,106.0909 24.5327,106.8189 23.6347,106.8189 C22.7387,106.8189 22.0107,106.0909 22.0107,105.1939 C22.0107,104.2969 22.7387,103.5689 23.6347,103.5689 C24.5327,103.5689 25.2597,104.2969 25.2597,105.1939" id="Fill-117"></path>
                    <path d="M34.1405,105.1939 C34.1405,106.0909 33.4135,106.8189 32.5165,106.8189 C31.6195,106.8189 30.5945,106.0909 30.5945,105.1939 C30.5945,104.2969 31.6195,103.5689 32.5165,103.5689 C33.4135,103.5689 34.1405,104.2969 34.1405,105.1939" id="Fill-119"></path>
                    <path d="M41.9784,105.1939 C41.9784,106.0909 41.0924,106.8109 40.1954,106.8109 C39.2974,106.8109 38.4124,106.0909 38.4124,105.1939 C38.4124,104.2969 39.2974,103.5779 40.1954,103.5779 C41.0924,103.5779 41.9784,104.2969 41.9784,105.1939" id="Fill-121"></path>
                    <path d="M49.9028,105.1939 C49.9028,106.0909 49.1758,106.8189 48.2778,106.8189 C47.3818,106.8189 46.6538,106.0909 46.6538,105.1939 C46.6538,104.2969 47.3818,103.5689 48.2778,103.5689 C49.1758,103.5689 49.9028,104.2969 49.9028,105.1939" id="Fill-123"></path>
                    <path d="M58.1493,105.1939 C58.1493,106.0909 57.4223,106.8189 56.5253,106.8189 C55.6283,106.8189 54.9003,106.0909 54.9003,105.1939 C54.9003,104.2969 55.6283,103.5689 56.5253,103.5689 C57.4223,103.5689 58.1493,104.2969 58.1493,105.1939" id="Fill-125"></path>
                    <path d="M4.4535,84.6631 C4.4535,85.5601 3.7265,86.2881 2.8285,86.2881 C1.9325,86.2881 1.2045,85.5601 1.2045,84.6631 C1.2045,83.7661 1.9325,83.0391 2.8285,83.0391 C3.7265,83.0391 4.4535,83.7661 4.4535,84.6631" id="Fill-127"></path>
                    <path d="M13.3349,84.6631 C13.3349,85.5601 12.6069,86.2881 11.7099,86.2881 C10.8129,86.2881 10.0859,85.5601 10.0859,84.6631 C10.0859,83.7661 10.8129,83.0391 11.7099,83.0391 C12.6069,83.0391 13.3349,83.7661 13.3349,84.6631" id="Fill-129"></path>
                    <path d="M21.2157,84.6631 C21.2157,85.5601 20.4877,86.2881 19.5907,86.2881 C18.6947,86.2881 17.9667,85.5601 17.9667,84.6631 C17.9667,83.7661 18.6947,83.0391 19.5907,83.0391 C20.4877,83.0391 21.2157,83.7661 21.2157,84.6631" id="Fill-131"></path>
                    <path d="M30.0966,84.6631 C30.0966,85.5601 29.3696,86.2881 28.4726,86.2881 C27.5756,86.2881 26.8476,85.5601 26.8476,84.6631 C26.8476,83.7661 27.5756,83.0391 28.4726,83.0391 C29.3696,83.0391 30.0966,83.7661 30.0966,84.6631" id="Fill-133"></path>
                    <path d="M37.978,84.6631 C37.978,85.5601 37.25,86.2881 36.353,86.2881 C35.457,86.2881 34.729,85.5601 34.729,84.6631 C34.729,83.7661 35.457,83.0391 36.353,83.0391 C37.25,83.0391 37.978,83.7661 37.978,84.6631" id="Fill-135"></path>
                    <path d="M45.8588,84.6631 C45.8588,85.5601 45.1318,86.2881 44.2338,86.2881 C43.3378,86.2881 42.6098,85.5601 42.6098,84.6631 C42.6098,83.7661 43.3378,83.0391 44.2338,83.0391 C45.1318,83.0391 45.8588,83.7661 45.8588,84.6631" id="Fill-137"></path>
                    <path d="M54.4159,84.6631 C54.4159,85.5601 53.7529,86.2881 52.4809,86.2881 C51.5839,86.2881 50.8569,85.5601 50.8569,84.6631 C50.8569,83.7661 51.5839,83.0391 52.4809,83.0391 C53.8479,83.0391 54.4159,83.7661 54.4159,84.6631" id="Fill-139"></path>
                    <path d="M4.4535,92.6411 C4.4535,93.5381 3.7265,94.2661 2.8285,94.2661 C1.9325,94.2661 1.2045,93.5381 1.2045,92.6411 C1.2045,91.7441 1.9325,91.0161 2.8285,91.0161 C3.7265,91.0161 4.4535,91.7441 4.4535,92.6411" id="Fill-141"></path>
                    <path d="M13.3349,92.6411 C13.3349,93.5381 12.6069,94.2661 11.7099,94.2661 C10.8129,94.2661 10.0859,93.5381 10.0859,92.6411 C10.0859,91.7441 10.8129,91.0161 11.7099,91.0161 C12.6069,91.0161 13.3349,91.7441 13.3349,92.6411" id="Fill-143"></path>
                    <path d="M21.2157,92.6411 C21.2157,93.5381 20.4877,94.2661 19.5907,94.2661 C18.6947,94.2661 17.9667,93.5381 17.9667,92.6411 C17.9667,91.7441 18.6947,91.0161 19.5907,91.0161 C20.4877,91.0161 21.2157,91.7441 21.2157,92.6411" id="Fill-145"></path>
                    <path d="M30.0966,92.6411 C30.0966,93.5381 28.7026,94.2661 27.8056,94.2661 C26.9086,94.2661 25.8476,93.5381 25.8476,92.6411 C25.8476,91.7441 26.4376,91.0161 27.8056,91.0161 C29.1146,91.0161 30.0966,91.7441 30.0966,92.6411" id="Fill-147"></path>
                    <path d="M37.978,92.6411 C37.978,93.5381 37.25,94.2661 36.353,94.2661 C35.457,94.2661 34.729,93.5381 34.729,92.6411 C34.729,91.7441 35.457,91.0161 36.353,91.0161 C37.25,91.0161 37.978,91.7441 37.978,92.6411" id="Fill-149"></path>
                    <path d="M45.8588,92.6411 C45.8588,93.5381 45.1318,94.2661 44.2338,94.2661 C43.3378,94.2661 42.6098,93.5381 42.6098,92.6411 C42.6098,91.7441 43.3378,91.0161 44.2338,91.0161 C45.1318,91.0161 45.8588,91.7441 45.8588,92.6411" id="Fill-151"></path>
                    <path d="M54.1054,92.6411 C54.1054,93.5381 53.3784,94.2661 52.4804,94.2661 C51.5844,94.2661 50.8564,93.5381 50.8564,92.6411 C50.8564,91.7441 51.5844,91.0161 52.4804,91.0161 C53.3784,91.0161 54.1054,91.7441 54.1054,92.6411" id="Fill-153"></path>
                    <path d="M9.4975,96.7647 C9.4975,97.6617 8.2705,98.3887 7.3735,98.3887 C6.4765,98.3887 5.2485,97.6617 5.2485,96.7647 C5.2485,95.8677 5.7435,95.1397 7.3735,95.1397 C8.8355,95.1397 9.4975,95.8677 9.4975,96.7647" id="Fill-155"></path>
                    <path d="M17.3788,96.7647 C17.3788,97.6617 16.6508,98.3887 15.7538,98.3887 C14.8578,98.3887 14.1298,97.6617 14.1298,96.7647 C14.1298,95.8677 14.8578,95.1397 15.7538,95.1397 C16.6508,95.1397 17.3788,95.8677 17.3788,96.7647" id="Fill-157"></path>
                    <path d="M25.2597,96.7647 C25.2597,97.6617 24.5327,98.3887 23.6347,98.3887 C22.7387,98.3887 22.0107,97.6617 22.0107,96.7647 C22.0107,95.8677 22.7387,95.1397 23.6347,95.1397 C24.5327,95.1397 25.2597,95.8677 25.2597,96.7647" id="Fill-159"></path>
                    <path d="M34.1405,96.7647 C34.1405,97.6617 33.4135,98.3887 32.5165,98.3887 C31.6195,98.3887 30.8915,97.6617 30.8915,96.7647 C30.8915,95.8677 31.6195,95.1397 32.5165,95.1397 C33.4135,95.1397 34.1405,95.8677 34.1405,96.7647" id="Fill-161"></path>
                    <path d="M41.9784,96.7647 C41.9784,97.6617 41.0924,98.3807 40.1954,98.3807 C39.2974,98.3807 38.4124,97.6617 38.4124,96.7647 C38.4124,95.8677 39.2974,95.1477 40.1954,95.1477 C41.0924,95.1477 41.9784,95.8677 41.9784,96.7647" id="Fill-163"></path>
                    <path d="M49.9028,96.7647 C49.9028,97.6617 49.1758,98.3887 48.2778,98.3887 C47.3818,98.3887 46.6538,97.6617 46.6538,96.7647 C46.6538,95.8677 47.3818,95.1397 48.2778,95.1397 C49.1758,95.1397 49.9028,95.8677 49.9028,96.7647" id="Fill-165"></path>
                    <path d="M58.1493,96.7647 C58.1493,97.6617 57.4223,98.3887 56.5253,98.3887 C55.6283,98.3887 54.9003,97.6617 54.9003,96.7647 C54.9003,95.8677 55.6283,95.1397 56.5253,95.1397 C57.4223,95.1397 58.1493,95.8677 58.1493,96.7647" id="Fill-167"></path>
                    <path d="M9.4975,88.4405 C9.4975,89.3375 8.2705,90.0655 7.3735,90.0655 C6.4765,90.0655 5.2485,89.3375 5.2485,88.4405 C5.2485,87.5435 5.7435,86.8165 7.3735,86.8165 C8.8355,86.8165 9.4975,87.5435 9.4975,88.4405" id="Fill-169"></path>
                    <path d="M17.3788,88.4405 C17.3788,89.3375 16.6508,90.0655 15.7538,90.0655 C14.8578,90.0655 14.1298,89.3375 14.1298,88.4405 C14.1298,87.5435 14.8578,86.8165 15.7538,86.8165 C16.6508,86.8165 17.3788,87.5435 17.3788,88.4405" id="Fill-171"></path>
                    <path d="M25.2597,88.4405 C25.2597,89.3375 24.5327,90.0655 23.6347,90.0655 C22.7387,90.0655 22.0107,89.3375 22.0107,88.4405 C22.0107,87.5435 22.7387,86.8165 23.6347,86.8165 C24.5327,86.8165 25.2597,87.5435 25.2597,88.4405" id="Fill-173"></path>
                    <path d="M34.1405,88.4405 C34.1405,89.3375 33.4135,90.0655 32.5165,90.0655 C31.6195,90.0655 30.5945,89.3375 30.5945,88.4405 C30.5945,87.5435 31.6195,86.8165 32.5165,86.8165 C33.4135,86.8165 34.1405,87.5435 34.1405,88.4405" id="Fill-175"></path>
                    <path d="M41.9784,88.4405 C41.9784,89.3375 41.0924,90.0575 40.1954,90.0575 C39.2974,90.0575 38.4124,89.3375 38.4124,88.4405 C38.4124,87.5435 39.2974,86.8245 40.1954,86.8245 C41.0924,86.8245 41.9784,87.5435 41.9784,88.4405" id="Fill-177"></path>
                    <path d="M49.9028,88.4405 C49.9028,89.3375 49.1758,90.0655 48.2778,90.0655 C47.3818,90.0655 46.6538,89.3375 46.6538,88.4405 C46.6538,87.5435 47.3818,86.8165 48.2778,86.8165 C49.1758,86.8165 49.9028,87.5435 49.9028,88.4405" id="Fill-179"></path>
                    <path d="M58.1493,88.4405 C58.1493,89.3375 57.4223,90.0655 56.5253,90.0655 C55.6283,90.0655 54.9003,89.3375 54.9003,88.4405 C54.9003,87.5435 55.6283,86.8165 56.5253,86.8165 C57.4223,86.8165 58.1493,87.5435 58.1493,88.4405" id="Fill-181"></path>
                    <path d="M4.4535,68.4419 C4.4535,69.3389 3.7265,70.0669 2.8285,70.0669 C1.9325,70.0669 1.2045,69.3389 1.2045,68.4419 C1.2045,67.5449 1.9325,66.8169 2.8285,66.8169 C3.7265,66.8169 4.4535,67.5449 4.4535,68.4419" id="Fill-183"></path>
                    <path d="M13.3349,68.4419 C13.3349,69.3389 12.6069,70.0669 11.7099,70.0669 C10.8129,70.0669 10.0859,69.3389 10.0859,68.4419 C10.0859,67.5449 10.8129,66.8169 11.7099,66.8169 C12.6069,66.8169 13.3349,67.5449 13.3349,68.4419" id="Fill-185"></path>
                    <path d="M21.2157,68.4419 C21.2157,69.3389 20.4877,70.0669 19.5907,70.0669 C18.6947,70.0669 17.9667,69.3389 17.9667,68.4419 C17.9667,67.5449 18.6947,66.8169 19.5907,66.8169 C20.4877,66.8169 21.2157,67.5449 21.2157,68.4419" id="Fill-187"></path>
                    <path d="M30.0966,68.4419 C30.0966,69.3389 29.3696,70.0669 28.4726,70.0669 C27.5756,70.0669 26.8476,69.3389 26.8476,68.4419 C26.8476,67.5449 27.5756,66.8169 28.4726,66.8169 C29.3696,66.8169 30.0966,67.5449 30.0966,68.4419" id="Fill-189"></path>
                    <path d="M37.978,68.4419 C37.978,69.3389 37.25,70.0669 36.353,70.0669 C34.91,70.0669 34.328,69.3389 34.328,68.4419 C34.328,67.5449 34.958,66.8169 36.353,66.8169 C37.648,66.8169 37.978,67.5449 37.978,68.4419" id="Fill-191"></path>
                    <path d="M45.8588,68.4419 C45.8588,69.3389 45.1318,70.0669 44.2338,70.0669 C43.3378,70.0669 42.6098,69.3389 42.6098,68.4419 C42.6098,67.5449 43.3378,66.8169 44.2338,66.8169 C45.1318,66.8169 45.8588,67.5449 45.8588,68.4419" id="Fill-193"></path>
                    <path d="M54.4159,68.4419 C54.4159,69.3389 53.7529,70.0669 52.4809,70.0669 C51.5839,70.0669 50.8569,69.3389 50.8569,68.4419 C50.8569,67.5449 51.5839,66.8169 52.4809,66.8169 C53.8479,66.8169 54.4159,67.5449 54.4159,68.4419" id="Fill-195"></path>
                    <path d="M4.4535,76.42 C4.4535,77.317 3.7265,78.044 2.8285,78.044 C1.9325,78.044 1.2045,77.317 1.2045,76.42 C1.2045,75.523 1.9325,74.795 2.8285,74.795 C3.7265,74.795 4.4535,75.523 4.4535,76.42" id="Fill-197"></path>
                    <path d="M13.3349,76.42 C13.3349,77.317 12.6069,78.044 11.7099,78.044 C10.8129,78.044 10.0859,77.317 10.0859,76.42 C10.0859,75.523 10.8129,74.795 11.7099,74.795 C12.6069,74.795 13.3349,75.523 13.3349,76.42" id="Fill-199"></path>
                    <path d="M21.2157,76.42 C21.2157,77.317 20.4877,78.044 19.5907,78.044 C18.6947,78.044 17.9667,77.317 17.9667,76.42 C17.9667,75.523 18.6947,74.795 19.5907,74.795 C20.4877,74.795 21.2157,75.523 21.2157,76.42" id="Fill-201"></path>
                    <path d="M30.0966,76.42 C30.0966,77.317 28.7026,78.044 27.8056,78.044 C26.9086,78.044 25.8476,77.317 25.8476,76.42 C25.8476,75.523 26.4376,74.795 27.8056,74.795 C29.1146,74.795 30.0966,75.523 30.0966,76.42" id="Fill-203"></path>
                    <path d="M37.978,76.42 C37.978,77.317 37.25,78.044 36.353,78.044 C35.457,78.044 34.729,77.317 34.729,76.42 C34.729,75.523 35.457,74.795 36.353,74.795 C37.25,74.795 37.978,75.523 37.978,76.42" id="Fill-205"></path>
                    <path d="M45.8588,76.42 C45.8588,77.317 45.1318,78.044 44.2338,78.044 C43.3378,78.044 42.6098,77.317 42.6098,76.42 C42.6098,75.523 43.3378,74.795 44.2338,74.795 C45.1318,74.795 45.8588,75.523 45.8588,76.42" id="Fill-207"></path>
                    <path d="M54.1054,76.42 C54.1054,77.317 53.3784,78.044 52.4804,78.044 C51.5844,78.044 50.8564,77.317 50.8564,76.42 C50.8564,75.523 51.5844,74.795 52.4804,74.795 C53.3784,74.795 54.1054,75.523 54.1054,76.42" id="Fill-209"></path>
                    <path d="M9.4975,80.543 C9.4975,81.44 8.2705,82.168 7.3735,82.168 C6.4765,82.168 5.2485,81.44 5.2485,80.543 C5.2485,79.646 5.7435,78.918 7.3735,78.918 C8.8355,78.918 9.4975,79.646 9.4975,80.543" id="Fill-211"></path>
                    <path d="M17.3788,80.543 C17.3788,81.44 16.6508,82.168 15.7538,82.168 C14.8578,82.168 14.1298,81.44 14.1298,80.543 C14.1298,79.646 14.8578,78.918 15.7538,78.918 C16.6508,78.918 17.3788,79.646 17.3788,80.543" id="Fill-213"></path>
                    <path d="M25.2597,80.543 C25.2597,81.44 24.5327,82.168 23.6347,82.168 C22.7387,82.168 22.0107,81.44 22.0107,80.543 C22.0107,79.646 22.7387,78.918 23.6347,78.918 C24.5327,78.918 25.2597,79.646 25.2597,80.543" id="Fill-215"></path>
                    <path d="M34.1405,80.543 C34.1405,81.44 33.4135,82.168 32.5165,82.168 C31.6195,82.168 30.8915,81.44 30.8915,80.543 C30.8915,79.646 31.6195,78.918 32.5165,78.918 C33.4135,78.918 34.1405,79.646 34.1405,80.543" id="Fill-217"></path>
                    <path d="M41.9784,80.543 C41.9784,81.44 41.0924,82.16 40.1954,82.16 C39.2974,82.16 38.4124,81.44 38.4124,80.543 C38.4124,79.646 39.2974,78.927 40.1954,78.927 C41.0924,78.927 41.9784,79.646 41.9784,80.543" id="Fill-219"></path>
                    <path d="M49.9028,80.543 C49.9028,81.44 49.1758,82.168 48.2778,82.168 C47.3818,82.168 46.6538,81.44 46.6538,80.543 C46.6538,79.646 47.3818,78.918 48.2778,78.918 C49.1758,78.918 49.9028,79.646 49.9028,80.543" id="Fill-221"></path>
                    <path d="M58.1493,80.543 C58.1493,81.44 57.4223,82.168 56.5253,82.168 C55.6283,82.168 54.9003,81.44 54.9003,80.543 C54.9003,79.646 55.6283,78.918 56.5253,78.918 C57.4223,78.918 58.1493,79.646 58.1493,80.543" id="Fill-223"></path>
                    <path d="M9.4975,72.2193 C9.4975,73.1163 8.2705,73.8443 7.3735,73.8443 C6.4765,73.8443 5.2485,73.1163 5.2485,72.2193 C5.2485,71.3223 5.7435,70.5943 7.3735,70.5943 C8.8355,70.5943 9.4975,71.3223 9.4975,72.2193" id="Fill-225"></path>
                    <path d="M17.3788,72.2193 C17.3788,73.1163 16.6508,73.8443 15.7538,73.8443 C14.8578,73.8443 14.1298,73.1163 14.1298,72.2193 C14.1298,71.3223 14.8578,70.5943 15.7538,70.5943 C16.6508,70.5943 17.3788,71.3223 17.3788,72.2193" id="Fill-227"></path>
                    <path d="M25.2597,72.2193 C25.2597,73.1163 24.5327,73.8443 23.6347,73.8443 C22.7387,73.8443 22.0107,73.1163 22.0107,72.2193 C22.0107,71.3223 22.7387,70.5943 23.6347,70.5943 C24.5327,70.5943 25.2597,71.3223 25.2597,72.2193" id="Fill-229"></path>
                    <path d="M34.1405,72.2193 C34.1405,73.1163 33.4135,73.8443 32.5165,73.8443 C31.6195,73.8443 30.5945,73.1163 30.5945,72.2193 C30.5945,71.3223 31.6195,70.5943 32.5165,70.5943 C33.4135,70.5943 34.1405,71.3223 34.1405,72.2193" id="Fill-231"></path>
                    <path d="M41.9784,72.2193 C41.9784,73.1163 41.0924,73.8363 40.1954,73.8363 C39.2974,73.8363 38.4124,73.1163 38.4124,72.2193 C38.4124,71.3223 39.2974,70.6033 40.1954,70.6033 C41.0924,70.6033 41.9784,71.3223 41.9784,72.2193" id="Fill-233"></path>
                    <path d="M49.9028,72.2193 C49.9028,73.1163 49.1758,73.8443 48.2778,73.8443 C47.3818,73.8443 46.6538,73.1163 46.6538,72.2193 C46.6538,71.3223 47.3818,70.5943 48.2778,70.5943 C49.1758,70.5943 49.9028,71.3223 49.9028,72.2193" id="Fill-235"></path>
                    <path d="M58.1493,72.2193 C58.1493,73.1163 57.4223,73.8443 56.5253,73.8443 C55.6283,73.8443 54.9003,73.1163 54.9003,72.2193 C54.9003,71.3223 55.6283,70.5943 56.5253,70.5943 C57.4223,70.5943 58.1493,71.3223 58.1493,72.2193" id="Fill-237"></path>
                    <path d="M3.2489,51.8208 C3.2489,52.7178 2.5209,53.4458 1.6239,53.4458 C0.7279,53.4458 -0.0001,52.7178 -0.0001,51.8208 C-0.0001,50.9238 0.7279,50.1958 1.6239,50.1958 C2.5209,50.1958 3.2489,50.9238 3.2489,51.8208" id="Fill-239"></path>
                    <path d="M12.1298,51.8208 C12.1298,52.7178 11.4028,53.4458 10.5048,53.4458 C9.6088,53.4458 8.8808,52.7178 8.8808,51.8208 C8.8808,50.9238 9.6088,50.1958 10.5048,50.1958 C11.4028,50.1958 12.1298,50.9238 12.1298,51.8208" id="Fill-242"></path>
                    <path d="M20.0107,51.8208 C20.0107,52.7178 19.2837,53.4458 18.3867,53.4458 C17.4897,53.4458 16.7617,52.7178 16.7617,51.8208 C16.7617,50.9238 17.4897,50.1958 18.3867,50.1958 C19.2837,50.1958 20.0107,50.9238 20.0107,51.8208" id="Fill-244"></path>
                    <path d="M28.892,51.8208 C28.892,52.7178 28.164,53.4458 27.267,53.4458 C26.371,53.4458 25.643,52.7178 25.643,51.8208 C25.643,50.9238 26.371,50.1958 27.267,50.1958 C28.164,50.1958 28.892,50.9238 28.892,51.8208" id="Fill-246"></path>
                    <path d="M36.7729,51.8208 C36.7729,52.7178 36.0459,53.4458 35.1479,53.4458 C34.2519,53.4458 33.5239,52.7178 33.5239,51.8208 C33.5239,50.9238 34.2519,50.1958 35.1479,50.1958 C36.0459,50.1958 36.7729,50.9238 36.7729,51.8208" id="Fill-248"></path>
                    <path d="M44.6537,51.8208 C44.6537,52.7178 43.9267,53.4458 43.0297,53.4458 C42.1327,53.4458 41.4047,52.7178 41.4047,51.8208 C41.4047,50.9238 42.1327,50.1958 43.0297,50.1958 C43.9267,50.1958 44.6537,50.9238 44.6537,51.8208" id="Fill-250"></path>
                    <path d="M53.2109,51.8208 C53.2109,52.7178 52.5479,53.4458 51.2759,53.4458 C50.3789,53.4458 49.6519,52.7178 49.6519,51.8208 C49.6519,50.9238 50.3789,50.1958 51.2759,50.1958 C52.6429,50.1958 53.2109,50.9238 53.2109,51.8208" id="Fill-252"></path>
                    <path d="M3.2489,59.7989 C3.2489,60.6959 2.5209,61.4239 1.6239,61.4239 C0.7279,61.4239 -0.0001,60.6959 -0.0001,59.7989 C-0.0001,58.9019 0.7279,58.1739 1.6239,58.1739 C2.5209,58.1739 3.2489,58.9019 3.2489,59.7989" id="Fill-254"></path>
                    <path d="M12.1298,59.7989 C12.1298,60.6959 11.4028,61.4239 10.5048,61.4239 C9.6088,61.4239 8.8808,60.6959 8.8808,59.7989 C8.8808,58.9019 9.6088,58.1739 10.5048,58.1739 C11.4028,58.1739 12.1298,58.9019 12.1298,59.7989" id="Fill-257"></path>
                    <path d="M20.0107,59.7989 C20.0107,60.6959 19.2837,61.4239 18.3867,61.4239 C17.4897,61.4239 16.7617,60.6959 16.7617,59.7989 C16.7617,58.9019 17.4897,58.1739 18.3867,58.1739 C19.2837,58.1739 20.0107,58.9019 20.0107,59.7989" id="Fill-259"></path>
                    <path d="M28.892,59.7989 C28.892,60.6959 27.498,61.4239 26.601,61.4239 C25.704,61.4239 24.643,60.6959 24.643,59.7989 C24.643,58.9019 25.233,58.1739 26.601,58.1739 C27.91,58.1739 28.892,58.9019 28.892,59.7989" id="Fill-261"></path>
                    <path d="M36.7729,59.7989 C36.7729,60.6959 36.0459,61.4239 35.1479,61.4239 C34.2519,61.4239 33.5239,60.6959 33.5239,59.7989 C33.5239,58.9019 34.2519,58.1739 35.1479,58.1739 C36.0459,58.1739 36.7729,58.9019 36.7729,59.7989" id="Fill-263"></path>
                    <path d="M44.6537,59.7989 C44.6537,60.6959 43.9267,61.4239 43.0297,61.4239 C42.1327,61.4239 41.4047,60.6959 41.4047,59.7989 C41.4047,58.9019 42.1327,58.1739 43.0297,58.1739 C43.9267,58.1739 44.6537,58.9019 44.6537,59.7989" id="Fill-265"></path>
                    <path d="M52.9008,59.7989 C52.9008,60.6959 52.1728,61.4239 51.2758,61.4239 C50.3798,61.4239 49.6518,60.6959 49.6518,59.7989 C49.6518,58.9019 50.3798,58.1739 51.2758,58.1739 C52.1728,58.1739 52.9008,58.9019 52.9008,59.7989" id="Fill-267"></path>
                    <path d="M8.2929,63.9219 C8.2929,64.8189 7.0649,65.5469 6.1679,65.5469 C5.2719,65.5469 4.0439,64.8189 4.0439,63.9219 C4.0439,63.0249 4.5389,62.2979 6.1679,62.2979 C7.6309,62.2979 8.2929,63.0249 8.2929,63.9219" id="Fill-269"></path>
                    <path d="M16.1738,63.9219 C16.1738,64.8189 15.4468,65.5469 14.5488,65.5469 C13.6528,65.5469 12.9248,64.8189 12.9248,63.9219 C12.9248,63.0249 13.6528,62.2979 14.5488,62.2979 C15.4468,62.2979 16.1738,63.0249 16.1738,63.9219" id="Fill-271"></path>
                    <path d="M24.0551,63.9219 C24.0551,64.8189 23.3271,65.5469 22.4301,65.5469 C21.5341,65.5469 20.8061,64.8189 20.8061,63.9219 C20.8061,63.0249 21.5341,62.2979 22.4301,62.2979 C23.3271,62.2979 24.0551,63.0249 24.0551,63.9219" id="Fill-273"></path>
                    <path d="M32.936,63.9219 C32.936,64.8189 32.209,65.5469 31.311,65.5469 C30.415,65.5469 29.687,64.8189 29.687,63.9219 C29.687,63.0249 30.415,62.2979 31.311,62.2979 C32.209,62.2979 32.936,63.0249 32.936,63.9219" id="Fill-275"></path>
                    <path d="M40.7734,63.9219 C40.7734,64.8189 39.8874,65.5389 38.9904,65.5389 C38.0934,65.5389 37.2074,64.8189 37.2074,63.9219 C37.2074,63.0249 38.0934,62.3059 38.9904,62.3059 C39.8874,62.3059 40.7734,63.0249 40.7734,63.9219" id="Fill-277"></path>
                    <path d="M48.6982,63.9219 C48.6982,64.8189 47.9702,65.5469 47.0732,65.5469 C46.1772,65.5469 45.4492,64.8189 45.4492,63.9219 C45.4492,63.0249 46.1772,62.2979 47.0732,62.2979 C47.9702,62.2979 48.6982,63.0249 48.6982,63.9219" id="Fill-279"></path>
                    <path d="M56.9447,63.9219 C56.9447,64.8189 56.2167,65.5469 55.3197,65.5469 C54.4237,65.5469 53.6957,64.8189 53.6957,63.9219 C53.6957,63.0249 54.4237,62.2979 55.3197,62.2979 C56.2167,62.2979 56.9447,63.0249 56.9447,63.9219" id="Fill-281"></path>
                    <path d="M8.2929,55.5982 C8.2929,56.4952 7.0649,57.2232 6.1679,57.2232 C5.2719,57.2232 4.0439,56.4952 4.0439,55.5982 C4.0439,54.7012 4.5389,53.9732 6.1679,53.9732 C7.6309,53.9732 8.2929,54.7012 8.2929,55.5982" id="Fill-283"></path>
                    <path d="M16.1738,55.5982 C16.1738,56.4952 15.4468,57.2232 14.5488,57.2232 C13.6528,57.2232 12.9248,56.4952 12.9248,55.5982 C12.9248,54.7012 13.6528,53.9732 14.5488,53.9732 C15.4468,53.9732 16.1738,54.7012 16.1738,55.5982" id="Fill-285"></path>
                    <path d="M24.0551,55.5982 C24.0551,56.4952 23.3271,57.2232 22.4301,57.2232 C21.5341,57.2232 20.8061,56.4952 20.8061,55.5982 C20.8061,54.7012 21.5341,53.9732 22.4301,53.9732 C23.3271,53.9732 24.0551,54.7012 24.0551,55.5982" id="Fill-287"></path>
                    <path d="M32.936,55.5982 C32.936,56.4952 32.209,57.2232 31.311,57.2232 C30.415,57.2232 29.39,56.4952 29.39,55.5982 C29.39,54.7012 30.415,53.9732 31.311,53.9732 C32.209,53.9732 32.936,54.7012 32.936,55.5982" id="Fill-289"></path>
                    <path d="M40.7734,55.5982 C40.7734,56.4952 39.8874,57.2152 38.9904,57.2152 C38.0934,57.2152 37.2074,56.4952 37.2074,55.5982 C37.2074,54.7012 38.0934,53.9822 38.9904,53.9822 C39.8874,53.9822 40.7734,54.7012 40.7734,55.5982" id="Fill-291"></path>
                    <path d="M48.6982,55.5982 C48.6982,56.4952 47.9702,57.2232 47.0732,57.2232 C46.1772,57.2232 45.4492,56.4952 45.4492,55.5982 C45.4492,54.7012 46.1772,53.9732 47.0732,53.9732 C47.9702,53.9732 48.6982,54.7012 48.6982,55.5982" id="Fill-293"></path>
                    <path d="M56.9447,55.5982 C56.9447,56.4952 56.2167,57.2232 55.3197,57.2232 C54.4237,57.2232 53.6957,56.4952 53.6957,55.5982 C53.6957,54.7012 54.4237,53.9732 55.3197,53.9732 C56.2167,53.9732 56.9447,54.7012 56.9447,55.5982" id="Fill-295"></path>
                    <path d="M3.2489,35.5996 C3.2489,36.4966 2.5209,37.2236 1.6239,37.2236 C0.7279,37.2236 -0.0001,36.4966 -0.0001,35.5996 C-0.0001,34.7026 0.7279,33.9746 1.6239,33.9746 C2.5209,33.9746 3.2489,34.7026 3.2489,35.5996" id="Fill-297"></path>
                    <path d="M12.1298,35.5996 C12.1298,36.4966 11.4028,37.2236 10.5048,37.2236 C9.6088,37.2236 8.8808,36.4966 8.8808,35.5996 C8.8808,34.7026 9.6088,33.9746 10.5048,33.9746 C11.4028,33.9746 12.1298,34.7026 12.1298,35.5996" id="Fill-300"></path>
                    <path d="M20.0107,35.5996 C20.0107,36.4966 19.2837,37.2236 18.3867,37.2236 C17.4897,37.2236 16.7617,36.4966 16.7617,35.5996 C16.7617,34.7026 17.4897,33.9746 18.3867,33.9746 C19.2837,33.9746 20.0107,34.7026 20.0107,35.5996" id="Fill-302"></path>
                    <path d="M28.892,35.5996 C28.892,36.4966 28.164,37.2236 27.267,37.2236 C26.371,37.2236 25.643,36.4966 25.643,35.5996 C25.643,34.7026 26.371,33.9746 27.267,33.9746 C28.164,33.9746 28.892,34.7026 28.892,35.5996" id="Fill-304"></path>
                    <path d="M36.7729,35.5996 C36.7729,36.4966 36.0459,37.2236 35.1479,37.2236 C33.7049,37.2236 33.1229,36.4966 33.1229,35.5996 C33.1229,34.7026 33.7529,33.9746 35.1479,33.9746 C36.4439,33.9746 36.7729,34.7026 36.7729,35.5996" id="Fill-306"></path>
                    <path d="M44.6537,35.5996 C44.6537,36.4966 43.9267,37.2236 43.0297,37.2236 C42.1327,37.2236 41.4047,36.4966 41.4047,35.5996 C41.4047,34.7026 42.1327,33.9746 43.0297,33.9746 C43.9267,33.9746 44.6537,34.7026 44.6537,35.5996" id="Fill-308"></path>
                    <path d="M53.2109,35.5996 C53.2109,36.4966 52.5479,37.2236 51.2759,37.2236 C50.3789,37.2236 49.6519,36.4966 49.6519,35.5996 C49.6519,34.7026 50.3789,33.9746 51.2759,33.9746 C52.6429,33.9746 53.2109,34.7026 53.2109,35.5996" id="Fill-310"></path>
                    <path d="M3.2489,43.5772 C3.2489,44.4742 2.5209,45.2022 1.6239,45.2022 C0.7279,45.2022 -0.0001,44.4742 -0.0001,43.5772 C-0.0001,42.6802 0.7279,41.9532 1.6239,41.9532 C2.5209,41.9532 3.2489,42.6802 3.2489,43.5772" id="Fill-312"></path>
                    <path d="M12.1298,43.5772 C12.1298,44.4742 11.4028,45.2022 10.5048,45.2022 C9.6088,45.2022 8.8808,44.4742 8.8808,43.5772 C8.8808,42.6802 9.6088,41.9532 10.5048,41.9532 C11.4028,41.9532 12.1298,42.6802 12.1298,43.5772" id="Fill-315"></path>
                    <path d="M20.0107,43.5772 C20.0107,44.4742 19.2837,45.2022 18.3867,45.2022 C17.4897,45.2022 16.7617,44.4742 16.7617,43.5772 C16.7617,42.6802 17.4897,41.9532 18.3867,41.9532 C19.2837,41.9532 20.0107,42.6802 20.0107,43.5772" id="Fill-317"></path>
                    <path d="M28.892,43.5772 C28.892,44.4742 27.498,45.2022 26.601,45.2022 C25.704,45.2022 24.643,44.4742 24.643,43.5772 C24.643,42.6802 25.233,41.9532 26.601,41.9532 C27.91,41.9532 28.892,42.6802 28.892,43.5772" id="Fill-319"></path>
                    <path d="M36.7729,43.5772 C36.7729,44.4742 36.0459,45.2022 35.1479,45.2022 C34.2519,45.2022 33.5239,44.4742 33.5239,43.5772 C33.5239,42.6802 34.2519,41.9532 35.1479,41.9532 C36.0459,41.9532 36.7729,42.6802 36.7729,43.5772" id="Fill-321"></path>
                    <path d="M44.6537,43.5772 C44.6537,44.4742 43.9267,45.2022 43.0297,45.2022 C42.1327,45.2022 41.4047,44.4742 41.4047,43.5772 C41.4047,42.6802 42.1327,41.9532 43.0297,41.9532 C43.9267,41.9532 44.6537,42.6802 44.6537,43.5772" id="Fill-323"></path>
                    <path d="M52.9008,43.5772 C52.9008,44.4742 52.1728,45.2022 51.2758,45.2022 C50.3798,45.2022 49.6518,44.4742 49.6518,43.5772 C49.6518,42.6802 50.3798,41.9532 51.2758,41.9532 C52.1728,41.9532 52.9008,42.6802 52.9008,43.5772" id="Fill-325"></path>
                    <path d="M8.2929,47.7007 C8.2929,48.5977 7.0649,49.3257 6.1679,49.3257 C5.2719,49.3257 4.0439,48.5977 4.0439,47.7007 C4.0439,46.8037 4.5389,46.0757 6.1679,46.0757 C7.6309,46.0757 8.2929,46.8037 8.2929,47.7007" id="Fill-327"></path>
                    <path d="M16.1738,47.7007 C16.1738,48.5977 15.4468,49.3257 14.5488,49.3257 C13.6528,49.3257 12.9248,48.5977 12.9248,47.7007 C12.9248,46.8037 13.6528,46.0757 14.5488,46.0757 C15.4468,46.0757 16.1738,46.8037 16.1738,47.7007" id="Fill-329"></path>
                    <path d="M24.0551,47.7007 C24.0551,48.5977 23.3271,49.3257 22.4301,49.3257 C21.5341,49.3257 20.8061,48.5977 20.8061,47.7007 C20.8061,46.8037 21.5341,46.0757 22.4301,46.0757 C23.3271,46.0757 24.0551,46.8037 24.0551,47.7007" id="Fill-331"></path>
                    <path d="M32.936,47.7007 C32.936,48.5977 32.209,49.3257 31.311,49.3257 C30.415,49.3257 29.687,48.5977 29.687,47.7007 C29.687,46.8037 30.415,46.0757 31.311,46.0757 C32.209,46.0757 32.936,46.8037 32.936,47.7007" id="Fill-333"></path>
                    <path d="M40.7734,47.7007 C40.7734,48.5977 39.8874,49.3167 38.9904,49.3167 C38.0934,49.3167 37.2074,48.5977 37.2074,47.7007 C37.2074,46.8037 38.0934,46.0847 38.9904,46.0847 C39.8874,46.0847 40.7734,46.8037 40.7734,47.7007" id="Fill-335"></path>
                    <path d="M48.6982,47.7007 C48.6982,48.5977 47.9702,49.3257 47.0732,49.3257 C46.1772,49.3257 45.4492,48.5977 45.4492,47.7007 C45.4492,46.8037 46.1772,46.0757 47.0732,46.0757 C47.9702,46.0757 48.6982,46.8037 48.6982,47.7007" id="Fill-337"></path>
                    <path d="M56.9447,47.7007 C56.9447,48.5977 56.2167,49.3257 55.3197,49.3257 C54.4237,49.3257 53.6957,48.5977 53.6957,47.7007 C53.6957,46.8037 54.4237,46.0757 55.3197,46.0757 C56.2167,46.0757 56.9447,46.8037 56.9447,47.7007" id="Fill-339"></path>
                    <path d="M8.2929,39.377 C8.2929,40.274 7.0649,41.001 6.1679,41.001 C5.2719,41.001 4.0439,40.274 4.0439,39.377 C4.0439,38.48 4.5389,37.752 6.1679,37.752 C7.6309,37.752 8.2929,38.48 8.2929,39.377" id="Fill-341"></path>
                    <path d="M16.1738,39.377 C16.1738,40.274 15.4468,41.001 14.5488,41.001 C13.6528,41.001 12.9248,40.274 12.9248,39.377 C12.9248,38.48 13.6528,37.752 14.5488,37.752 C15.4468,37.752 16.1738,38.48 16.1738,39.377" id="Fill-343"></path>
                    <path d="M24.0551,39.377 C24.0551,40.274 23.3271,41.001 22.4301,41.001 C21.5341,41.001 20.8061,40.274 20.8061,39.377 C20.8061,38.48 21.5341,37.752 22.4301,37.752 C23.3271,37.752 24.0551,38.48 24.0551,39.377" id="Fill-345"></path>
                    <path d="M32.936,39.377 C32.936,40.274 32.209,41.001 31.311,41.001 C30.415,41.001 29.39,40.274 29.39,39.377 C29.39,38.48 30.415,37.752 31.311,37.752 C32.209,37.752 32.936,38.48 32.936,39.377" id="Fill-347"></path>
                    <path d="M40.7734,39.377 C40.7734,40.274 39.8874,40.993 38.9904,40.993 C38.0934,40.993 37.2074,40.274 37.2074,39.377 C37.2074,38.48 38.0934,37.76 38.9904,37.76 C39.8874,37.76 40.7734,38.48 40.7734,39.377" id="Fill-349"></path>
                    <path d="M48.6982,39.377 C48.6982,40.274 47.9702,41.001 47.0732,41.001 C46.1772,41.001 45.4492,40.274 45.4492,39.377 C45.4492,38.48 46.1772,37.752 47.0732,37.752 C47.9702,37.752 48.6982,38.48 48.6982,39.377" id="Fill-351"></path>
                    <path d="M56.9447,39.377 C56.9447,40.274 56.2167,41.001 55.3197,41.001 C54.4237,41.001 53.6957,40.274 53.6957,39.377 C53.6957,38.48 54.4237,37.752 55.3197,37.752 C56.2167,37.752 56.9447,38.48 56.9447,39.377" id="Fill-353"></path>
                    <path d="M3.2489,18.8462 C3.2489,19.7432 2.5209,20.4702 1.6239,20.4702 C0.7279,20.4702 -0.0001,19.7432 -0.0001,18.8462 C-0.0001,17.9492 0.7279,17.2212 1.6239,17.2212 C2.5209,17.2212 3.2489,17.9492 3.2489,18.8462" id="Fill-355"></path>
                    <path d="M12.1298,18.8462 C12.1298,19.7432 11.4028,20.4702 10.5048,20.4702 C9.6088,20.4702 8.8808,19.7432 8.8808,18.8462 C8.8808,17.9492 9.6088,17.2212 10.5048,17.2212 C11.4028,17.2212 12.1298,17.9492 12.1298,18.8462" id="Fill-358"></path>
                    <path d="M20.0107,18.8462 C20.0107,19.7432 19.2837,20.4702 18.3867,20.4702 C17.4897,20.4702 16.7617,19.7432 16.7617,18.8462 C16.7617,17.9492 17.4897,17.2212 18.3867,17.2212 C19.2837,17.2212 20.0107,17.9492 20.0107,18.8462" id="Fill-360"></path>
                    <path d="M28.892,18.8462 C28.892,19.7432 28.164,20.4702 27.267,20.4702 C26.371,20.4702 25.643,19.7432 25.643,18.8462 C25.643,17.9492 26.371,17.2212 27.267,17.2212 C28.164,17.2212 28.892,17.9492 28.892,18.8462" id="Fill-362"></path>
                    <path d="M36.7729,18.8462 C36.7729,19.7432 36.0459,20.4702 35.1479,20.4702 C34.2519,20.4702 33.5239,19.7432 33.5239,18.8462 C33.5239,17.9492 34.2519,17.2212 35.1479,17.2212 C36.0459,17.2212 36.7729,17.9492 36.7729,18.8462" id="Fill-364"></path>
                    <path d="M44.6537,18.8462 C44.6537,19.7432 43.9267,20.4702 43.0297,20.4702 C42.1327,20.4702 41.4047,19.7432 41.4047,18.8462 C41.4047,17.9492 42.1327,17.2212 43.0297,17.2212 C43.9267,17.2212 44.6537,17.9492 44.6537,18.8462" id="Fill-366"></path>
                    <path d="M53.2109,18.8462 C53.2109,19.7432 52.5479,20.4702 51.2759,20.4702 C50.3789,20.4702 49.6519,19.7432 49.6519,18.8462 C49.6519,17.9492 50.3789,17.2212 51.2759,17.2212 C52.6429,17.2212 53.2109,17.9492 53.2109,18.8462" id="Fill-368"></path>
                    <path d="M3.2489,26.8238 C3.2489,27.7208 2.5209,28.4488 1.6239,28.4488 C0.7279,28.4488 -0.0001,27.7208 -0.0001,26.8238 C-0.0001,25.9268 0.7279,25.1998 1.6239,25.1998 C2.5209,25.1998 3.2489,25.9268 3.2489,26.8238" id="Fill-370"></path>
                    <path d="M12.1298,26.8238 C12.1298,27.7208 11.4028,28.4488 10.5048,28.4488 C9.6088,28.4488 8.8808,27.7208 8.8808,26.8238 C8.8808,25.9268 9.6088,25.1998 10.5048,25.1998 C11.4028,25.1998 12.1298,25.9268 12.1298,26.8238" id="Fill-373"></path>
                    <path d="M20.0107,26.8238 C20.0107,27.7208 19.2837,28.4488 18.3867,28.4488 C17.4897,28.4488 16.7617,27.7208 16.7617,26.8238 C16.7617,25.9268 17.4897,25.1998 18.3867,25.1998 C19.2837,25.1998 20.0107,25.9268 20.0107,26.8238" id="Fill-375"></path>
                    <path d="M28.892,26.8238 C28.892,27.7208 27.498,28.4488 26.601,28.4488 C25.704,28.4488 24.643,27.7208 24.643,26.8238 C24.643,25.9268 25.233,25.1998 26.601,25.1998 C27.91,25.1998 28.892,25.9268 28.892,26.8238" id="Fill-377"></path>
                    <path d="M36.7729,26.8238 C36.7729,27.7208 36.0459,28.4488 35.1479,28.4488 C34.2519,28.4488 33.5239,27.7208 33.5239,26.8238 C33.5239,25.9268 34.2519,25.1998 35.1479,25.1998 C36.0459,25.1998 36.7729,25.9268 36.7729,26.8238" id="Fill-379"></path>
                    <path d="M44.6537,26.8238 C44.6537,27.7208 43.9267,28.4488 43.0297,28.4488 C42.1327,28.4488 41.4047,27.7208 41.4047,26.8238 C41.4047,25.9268 42.1327,25.1998 43.0297,25.1998 C43.9267,25.1998 44.6537,25.9268 44.6537,26.8238" id="Fill-381"></path>
                    <path d="M52.9008,26.8238 C52.9008,27.7208 52.1728,28.4488 51.2758,28.4488 C50.3798,28.4488 49.6518,27.7208 49.6518,26.8238 C49.6518,25.9268 50.3798,25.1998 51.2758,25.1998 C52.1728,25.1998 52.9008,25.9268 52.9008,26.8238" id="Fill-383"></path>
                    <path d="M8.2929,30.9473 C8.2929,31.8443 7.0649,32.5723 6.1679,32.5723 C5.2719,32.5723 4.0439,31.8443 4.0439,30.9473 C4.0439,30.0503 4.5389,29.3223 6.1679,29.3223 C7.6309,29.3223 8.2929,30.0503 8.2929,30.9473" id="Fill-385"></path>
                    <path d="M16.1738,30.9473 C16.1738,31.8443 15.4468,32.5723 14.5488,32.5723 C13.6528,32.5723 12.9248,31.8443 12.9248,30.9473 C12.9248,30.0503 13.6528,29.3223 14.5488,29.3223 C15.4468,29.3223 16.1738,30.0503 16.1738,30.9473" id="Fill-387"></path>
                    <path d="M24.0551,30.9473 C24.0551,31.8443 23.3271,32.5723 22.4301,32.5723 C21.5341,32.5723 20.8061,31.8443 20.8061,30.9473 C20.8061,30.0503 21.5341,29.3223 22.4301,29.3223 C23.3271,29.3223 24.0551,30.0503 24.0551,30.9473" id="Fill-389"></path>
                    <path d="M32.936,30.9473 C32.936,31.8443 32.209,32.5723 31.311,32.5723 C30.415,32.5723 29.687,31.8443 29.687,30.9473 C29.687,30.0503 30.415,29.3223 31.311,29.3223 C32.209,29.3223 32.936,30.0503 32.936,30.9473" id="Fill-391"></path>
                    <path d="M40.7734,30.9473 C40.7734,31.8443 39.8874,32.5643 38.9904,32.5643 C38.0934,32.5643 37.2074,31.8443 37.2074,30.9473 C37.2074,30.0503 38.0934,29.3313 38.9904,29.3313 C39.8874,29.3313 40.7734,30.0503 40.7734,30.9473" id="Fill-393"></path>
                    <path d="M48.6982,30.9473 C48.6982,31.8443 47.9702,32.5723 47.0732,32.5723 C46.1772,32.5723 45.4492,31.8443 45.4492,30.9473 C45.4492,30.0503 46.1772,29.3223 47.0732,29.3223 C47.9702,29.3223 48.6982,30.0503 48.6982,30.9473" id="Fill-395"></path>
                    <path d="M56.9447,30.9473 C56.9447,31.8443 56.2167,32.5723 55.3197,32.5723 C54.4237,32.5723 53.6957,31.8443 53.6957,30.9473 C53.6957,30.0503 54.4237,29.3223 55.3197,29.3223 C56.2167,29.3223 56.9447,30.0503 56.9447,30.9473" id="Fill-397"></path>
                    <path d="M8.2929,22.6236 C8.2929,23.5206 7.0649,24.2486 6.1679,24.2486 C5.2719,24.2486 4.0439,23.5206 4.0439,22.6236 C4.0439,21.7266 4.5389,20.9986 6.1679,20.9986 C7.6309,20.9986 8.2929,21.7266 8.2929,22.6236" id="Fill-399"></path>
                    <path d="M16.1738,22.6236 C16.1738,23.5206 15.4468,24.2486 14.5488,24.2486 C13.6528,24.2486 12.9248,23.5206 12.9248,22.6236 C12.9248,21.7266 13.6528,20.9986 14.5488,20.9986 C15.4468,20.9986 16.1738,21.7266 16.1738,22.6236" id="Fill-401"></path>
                    <path d="M24.0551,22.6236 C24.0551,23.5206 23.3271,24.2486 22.4301,24.2486 C21.5341,24.2486 20.8061,23.5206 20.8061,22.6236 C20.8061,21.7266 21.5341,20.9986 22.4301,20.9986 C23.3271,20.9986 24.0551,21.7266 24.0551,22.6236" id="Fill-403"></path>
                    <path d="M32.936,22.6236 C32.936,23.5206 32.209,24.2486 31.311,24.2486 C30.415,24.2486 29.39,23.5206 29.39,22.6236 C29.39,21.7266 30.415,20.9986 31.311,20.9986 C32.209,20.9986 32.936,21.7266 32.936,22.6236" id="Fill-405"></path>
                    <path d="M40.7734,22.6236 C40.7734,23.5206 39.8874,24.2396 38.9904,24.2396 C38.0934,24.2396 37.2074,23.5206 37.2074,22.6236 C37.2074,21.7266 38.0934,21.0076 38.9904,21.0076 C39.8874,21.0076 40.7734,21.7266 40.7734,22.6236" id="Fill-407"></path>
                    <path d="M48.6982,22.6236 C48.6982,23.5206 47.9702,24.2486 47.0732,24.2486 C46.1772,24.2486 45.4492,23.5206 45.4492,22.6236 C45.4492,21.7266 46.1772,20.9986 47.0732,20.9986 C47.9702,20.9986 48.6982,21.7266 48.6982,22.6236" id="Fill-409"></path>
                    <path d="M56.9447,22.6236 C56.9447,23.5206 56.2167,24.2486 55.3197,24.2486 C54.4237,24.2486 53.6957,23.5206 53.6957,22.6236 C53.6957,21.7266 54.4237,20.9986 55.3197,20.9986 C56.2167,20.9986 56.9447,21.7266 56.9447,22.6236" id="Fill-411"></path>
                    <path d="M3.2489,2.6245 C3.2489,3.5215 2.5209,4.2495 1.6239,4.2495 C0.7279,4.2495 -0.0001,3.5215 -0.0001,2.6245 C-0.0001,1.7275 0.7279,0.9995 1.6239,0.9995 C2.5209,0.9995 3.2489,1.7275 3.2489,2.6245" id="Fill-413"></path>
                    <path d="M12.1298,2.6245 C12.1298,3.5215 11.4028,4.2495 10.5048,4.2495 C9.6088,4.2495 8.8808,3.5215 8.8808,2.6245 C8.8808,1.7275 9.6088,0.9995 10.5048,0.9995 C11.4028,0.9995 12.1298,1.7275 12.1298,2.6245" id="Fill-416"></path>
                    <path d="M20.0107,2.6245 C20.0107,3.5215 19.2837,4.2495 18.3867,4.2495 C17.4897,4.2495 16.7617,3.5215 16.7617,2.6245 C16.7617,1.7275 17.4897,0.9995 18.3867,0.9995 C19.2837,0.9995 20.0107,1.7275 20.0107,2.6245" id="Fill-419"></path>
                    <path d="M28.892,2.6245 C28.892,3.5215 28.164,4.2495 27.267,4.2495 C26.371,4.2495 25.643,3.5215 25.643,2.6245 C25.643,1.7275 26.371,0.9995 27.267,0.9995 C28.164,0.9995 28.892,1.7275 28.892,2.6245" id="Fill-422"></path>
                    <path d="M36.7729,2.6245 C36.7729,3.5215 36.0459,4.2495 35.1479,4.2495 C33.7049,4.2495 33.1229,3.5215 33.1229,2.6245 C33.1229,1.7275 33.7529,0.9995 35.1479,0.9995 C36.4439,0.9995 36.7729,1.7275 36.7729,2.6245" id="Fill-425"></path>
                    <path d="M44.6537,2.6245 C44.6537,3.5215 43.9267,4.2495 43.0297,4.2495 C42.1327,4.2495 41.4047,3.5215 41.4047,2.6245 C41.4047,1.7275 42.1327,0.9995 43.0297,0.9995 C43.9267,0.9995 44.6537,1.7275 44.6537,2.6245" id="Fill-428"></path>
                    <path d="M53.2109,2.6245 C53.2109,3.5215 52.5479,4.2495 51.2759,4.2495 C50.3789,4.2495 49.6519,3.5215 49.6519,2.6245 C49.6519,1.7275 50.3789,0.9995 51.2759,0.9995 C52.6429,0.9995 53.2109,1.7275 53.2109,2.6245" id="Fill-431"></path>
                    <path d="M3.2489,10.6026 C3.2489,11.4996 2.5209,12.2276 1.6239,12.2276 C0.7279,12.2276 -0.0001,11.4996 -0.0001,10.6026 C-0.0001,9.7056 0.7279,8.9776 1.6239,8.9776 C2.5209,8.9776 3.2489,9.7056 3.2489,10.6026" id="Fill-434"></path>
                    <path d="M12.1298,10.6026 C12.1298,11.4996 11.4028,12.2276 10.5048,12.2276 C9.6088,12.2276 8.8808,11.4996 8.8808,10.6026 C8.8808,9.7056 9.6088,8.9776 10.5048,8.9776 C11.4028,8.9776 12.1298,9.7056 12.1298,10.6026" id="Fill-437"></path>
                    <path d="M20.0107,10.6026 C20.0107,11.4996 19.2837,12.2276 18.3867,12.2276 C17.4897,12.2276 16.7617,11.4996 16.7617,10.6026 C16.7617,9.7056 17.4897,8.9776 18.3867,8.9776 C19.2837,8.9776 20.0107,9.7056 20.0107,10.6026" id="Fill-439"></path>
                    <path d="M28.892,10.6026 C28.892,11.4996 27.498,12.2276 26.601,12.2276 C25.704,12.2276 24.643,11.4996 24.643,10.6026 C24.643,9.7056 25.233,8.9776 26.601,8.9776 C27.91,8.9776 28.892,9.7056 28.892,10.6026" id="Fill-441"></path>
                    <path d="M36.7729,10.6026 C36.7729,11.4996 36.0459,12.2276 35.1479,12.2276 C34.2519,12.2276 33.5239,11.4996 33.5239,10.6026 C33.5239,9.7056 34.2519,8.9776 35.1479,8.9776 C36.0459,8.9776 36.7729,9.7056 36.7729,10.6026" id="Fill-443"></path>
                    <path d="M44.6537,10.6026 C44.6537,11.4996 43.9267,12.2276 43.0297,12.2276 C42.1327,12.2276 41.4047,11.4996 41.4047,10.6026 C41.4047,9.7056 42.1327,8.9776 43.0297,8.9776 C43.9267,8.9776 44.6537,9.7056 44.6537,10.6026" id="Fill-445"></path>
                    <path d="M52.9008,10.6026 C52.9008,11.4996 52.1728,12.2276 51.2758,12.2276 C50.3798,12.2276 49.6518,11.4996 49.6518,10.6026 C49.6518,9.7056 50.3798,8.9776 51.2758,8.9776 C52.1728,8.9776 52.9008,9.7056 52.9008,10.6026" id="Fill-447"></path>
                    <path d="M8.2929,14.7261 C8.2929,15.6231 7.0649,16.3501 6.1679,16.3501 C5.2719,16.3501 4.0439,15.6231 4.0439,14.7261 C4.0439,13.8291 4.5389,13.1011 6.1679,13.1011 C7.6309,13.1011 8.2929,13.8291 8.2929,14.7261" id="Fill-449"></path>
                    <path d="M16.1738,14.7261 C16.1738,15.6231 15.4468,16.3501 14.5488,16.3501 C13.6528,16.3501 12.9248,15.6231 12.9248,14.7261 C12.9248,13.8291 13.6528,13.1011 14.5488,13.1011 C15.4468,13.1011 16.1738,13.8291 16.1738,14.7261" id="Fill-451"></path>
                    <path d="M24.0551,14.7261 C24.0551,15.6231 23.3271,16.3501 22.4301,16.3501 C21.5341,16.3501 20.8061,15.6231 20.8061,14.7261 C20.8061,13.8291 21.5341,13.1011 22.4301,13.1011 C23.3271,13.1011 24.0551,13.8291 24.0551,14.7261" id="Fill-453"></path>
                    <path d="M32.936,14.7261 C32.936,15.6231 32.209,16.3501 31.311,16.3501 C30.415,16.3501 29.687,15.6231 29.687,14.7261 C29.687,13.8291 30.415,13.1011 31.311,13.1011 C32.209,13.1011 32.936,13.8291 32.936,14.7261" id="Fill-455"></path>
                    <path d="M40.7734,14.7261 C40.7734,15.6231 39.8874,16.3421 38.9904,16.3421 C38.0934,16.3421 37.2074,15.6231 37.2074,14.7261 C37.2074,13.8291 38.0934,13.1091 38.9904,13.1091 C39.8874,13.1091 40.7734,13.8291 40.7734,14.7261" id="Fill-457"></path>
                    <path d="M48.6982,14.7261 C48.6982,15.6231 47.9702,16.3501 47.0732,16.3501 C46.1772,16.3501 45.4492,15.6231 45.4492,14.7261 C45.4492,13.8291 46.1772,13.1011 47.0732,13.1011 C47.9702,13.1011 48.6982,13.8291 48.6982,14.7261" id="Fill-459"></path>
                    <path d="M56.9447,14.7261 C56.9447,15.6231 56.2167,16.3501 55.3197,16.3501 C54.4237,16.3501 53.6957,15.6231 53.6957,14.7261 C53.6957,13.8291 54.4237,13.1011 55.3197,13.1011 C56.2167,13.1011 56.9447,13.8291 56.9447,14.7261" id="Fill-461"></path>
                    <path d="M8.2929,6.4019 C8.2929,7.2989 7.0649,8.0269 6.1679,8.0269 C5.2719,8.0269 4.0439,7.2989 4.0439,6.4019 C4.0439,5.5049 4.5389,4.7779 6.1679,4.7779 C7.6309,4.7779 8.2929,5.5049 8.2929,6.4019" id="Fill-463"></path>
                    <path d="M16.1738,6.4019 C16.1738,7.2989 15.4468,8.0269 14.5488,8.0269 C13.6528,8.0269 12.9248,7.2989 12.9248,6.4019 C12.9248,5.5049 13.6528,4.7779 14.5488,4.7779 C15.4468,4.7779 16.1738,5.5049 16.1738,6.4019" id="Fill-465"></path>
                    <path d="M24.0551,6.4019 C24.0551,7.2989 23.3271,8.0269 22.4301,8.0269 C21.5341,8.0269 20.8061,7.2989 20.8061,6.4019 C20.8061,5.5049 21.5341,4.7779 22.4301,4.7779 C23.3271,4.7779 24.0551,5.5049 24.0551,6.4019" id="Fill-467"></path>
                    <path d="M32.936,6.4019 C32.936,7.2989 32.209,8.0269 31.311,8.0269 C30.415,8.0269 29.39,7.2989 29.39,6.4019 C29.39,5.5049 30.415,4.7779 31.311,4.7779 C32.209,4.7779 32.936,5.5049 32.936,6.4019" id="Fill-469"></path>
                    <path d="M40.7734,6.4019 C40.7734,7.2989 39.8874,8.0189 38.9904,8.0189 C38.0934,8.0189 37.2074,7.2989 37.2074,6.4019 C37.2074,5.5049 38.0934,4.7859 38.9904,4.7859 C39.8874,4.7859 40.7734,5.5049 40.7734,6.4019" id="Fill-471"></path>
                    <path d="M48.6982,6.4019 C48.6982,7.2989 47.9702,8.0269 47.0732,8.0269 C46.1772,8.0269 45.4492,7.2989 45.4492,6.4019 C45.4492,5.5049 46.1772,4.7779 47.0732,4.7779 C47.9702,4.7779 48.6982,5.5049 48.6982,6.4019" id="Fill-473"></path>
                    <path d="M56.9447,6.4019 C56.9447,7.2989 56.2167,8.0269 55.3197,8.0269 C54.4237,8.0269 53.6957,7.2989 53.6957,6.4019 C53.6957,5.5049 54.4237,4.7779 55.3197,4.7779 C56.2167,4.7779 56.9447,5.5049 56.9447,6.4019" id="Fill-475"></path>
                </g>
            </g>
        </g>
    </g>
</svg>