<svg class="sc-xh5ra9-8 jtBmaq" xmlns="http://www.w3.org/2000/svg" width="366" height="316" viewBox="0 0 183 158"><path fill="#eeeef0" d="M182.922 83.638c.247 1.891-.739 3.207-2.384 3.946-1.726.74-3.452 1.48-4.85 2.96-.904.987-2.302.904-3.371.329-1.561-.904-3.123-.658-4.768-.329-18.332 3.288-36.5 7.728-54.669 12.003-5.919 1.397-11.756 3.452-17.428 5.672-2.548.986-5.015 2.137-7.81 1.891-1.808-.165-2.795.74-3.7 2.055-1.726 2.548-3.616 5.097-5.178 7.81-6.413 10.687-12.578 21.374-16.771 33.13-.987 2.96-2.549 4.193-4.686 4.028-2.22-.164-4.028-2.137-4.44-4.932-.164-1.644-.164-3.289-.081-4.933.328-10.934.575-21.785.904-32.719 0-1.069-.082-2.055 0-3.124.164-1.809-.822-2.22-2.466-2.055-3.453.329-6.906.411-10.277.822-4.439.493-8.878.74-13.4.658-4.274 0-8.385.493-12.413 1.726-1.315.411-2.63.74-3.946.904-4.686.494-6.906-.986-8.139-5.672C1.57 102.053.501 96.134.501 90.133V61.03h.246l-.74-25.074c-.082-4.192-.164-8.385.74-12.495.576-2.302 1.562-2.878 3.37-1.398 1.563 1.233 2.55.329 3.618-.082a200.959 200.959 0 0 1 39.132-9.372c14.55-1.973 29.102-3.535 43.653-4.768 19.647-1.644 39.295-3.37 58.943-5.097 2.056-.247 4.193-.329 6.248-.411 1.316-.082 2.467-.082 3.617-1.233 1.973-1.891 3.371-1.48 4.275 1.15 1.891 5.509 3.946 10.934 5.097 16.689 1.727 8.96 2.467 18.086 3.371 27.129.986 10.358 2.466 20.717 3.946 31.075.329 2.22.822 3.946 3.699 3.864 1.644-.082 2.96.904 3.206 2.63zm-15.29-5.59c-1.973-12.66-3.042-25.485-3.782-38.31-.576-10.11-1.398-20.223-4.028-30.088-.494-1.973-1.069-2.795-3.289-2.301-3.206.657-6.494.904-9.783 1.233-29.759 2.63-59.601 4.274-89.36 7.152-16.853 1.644-33.46 4.521-49.737 8.96-2.138.658-2.877 1.398-2.63 3.7.821 7.892 1.397 15.784 1.972 23.676.905 11.92.822 23.923 1.069 35.843.164 4.933.986 9.783 1.973 14.716.493 2.137 1.233 3.041 3.7 2.219 4.768-1.562 9.7-1.808 14.633-1.808 4.357 0 8.632-.247 12.989-.658 4.357-.329 8.632-.575 12.989-.493 3.699 0 4.603 1.397 4.11 5.097-.082.74-.247 1.48-.164 2.219.986 9.29.986 18.662 2.137 28.445 2.466-4.522 4.933-9.043 7.481-13.565 3.288-5.919 6.823-11.591 10.934-16.935 1.644-2.219 3.535-4.192 6.494-4.275 2.878-.082 5.508-1.151 8.14-2.219 4.932-2.056 10.029-3.864 15.29-5.097 18.415-4.357 36.912-8.797 55.491-12.496 4.028-.822 4.028-.74 3.371-5.015z"></path><path fill="#eeeef0" d="M34.536 45.09c-1.15-.164-2.22-.164-3.206-.41-.904-.165-1.727-.576-1.644-1.727.082-1.069.822-1.644 1.726-1.809 2.055-.246 4.193 0 6.166-.41 30.5-6.824 61.492-10.03 92.567-12.907 2.631-.247 5.344-.247 8.057-.247a13.6 13.6 0 0 1 2.63.247c1.48.41 3.124 1.068 2.96 2.795-.165 1.315-1.727 2.055-3.124 2.22-5.508.575-11.016 1.068-16.442 1.644-15.866 1.644-31.733 3.452-47.599 5.097-12.742 1.315-25.485 2.712-38.145 5.014-1.398.247-2.713.33-3.946.494zM145.105 53.886c-7.481 2.795-14.88 3.617-22.278 4.686-17.1 2.549-34.2 5.673-51.299 7.892-9.618 1.233-19.237 2.22-28.855 3.946a18.66 18.66 0 0 1-7.974-.246c-.493-.165-1.069-.576-1.151-1.234-.082-.74.493-1.068.986-1.315.411-.164.822-.246 1.316-.41 20.223-4.522 40.693-7.893 61.163-11.1 10.03-1.561 20.06-3.123 30.253-3.616 5.837-.247 11.592.74 17.839 1.397z"></path></svg>