<svg color="purple" class="sc-xh5ra9-11 hXERxW" xmlns="http://www.w3.org/2000/svg" width="422" height="14" viewBox="0 0 211 7"><path fill="#00bc87" d="M80.196-.05c1.044-.018 2.088-.042 3.132-.06.365-.007.73-.013 1.095-.015 5.756-.033 11.51-.06 17.266-.09 1.096-.006 2.192-.025 3.288-.02 2.453.008 4.908.04 7.361.058 3.303.024 6.604.047 9.907.068 1.187.008 2.375.015 3.562.02.47.003.94-.006 1.41.004 4.987.109 9.974.233 14.961.351 2.311.056 4.622.105 6.932.172 1.28.039 2.56.098 3.84.147 5.182.2 10.367.393 15.55.604.64.026 1.28.07 1.92.106 1.28.07 2.56.143 3.84.21.143.009.286.014.43.017 2.493.065 4.987.124 7.48.187 1.894.048 3.786.098 5.68.145l.665.012c1.387.028 3.702.066 5.13.109.731.022 1.465.017 2.194.08.294.026.604.045.863.185.175.093.162.446.359.472 1.568.206 3.158.18 4.74.2.113.002.2-.116.311-.134.388-.062.781-.125 1.174-.102.232.013.442.152.668.209a1.39 1.39 0 0 0 .314.039c1.517.026 2.467-.013 3.876.037.292.01 1.046.05 1.411.112.185.032.382.04.55.123.274.139.567.288.75.533.096.128.134.381.007.477-1.448 1.092-2.552.67-4.339.62a1324.474 1324.474 0 0 1-11.046-.38c-1.11-.043-2.22-.076-3.33-.132-2.586-.129-5.17-.282-7.756-.421-4.689-.252-9.374-.554-14.065-.754-1.2-.05-2.401 0-3.602.003-4.503.006-9.005.005-13.507.02-2.427.008-4.855.035-7.282.05-1.827.01-3.654.02-5.481.026-9.578.037-19.158.074-28.736.106-1.997.007-3.994-.01-5.99.011-.6.007-1.2.048-1.8.067-2.962.092-5.924.167-8.885.264-1.657.055-3.313.13-4.97.194-2.765.108-5.53.21-8.297.322-4.854.2-8.878.409-13.85.633-2.901.13-7.44.318-10.449.436-.613.025-1.225.046-1.84.067-2.66.092-5.321.181-7.982.275-.835.03-1.67.061-2.505.097a760.25 760.25 0 0 0-10.055.518c-1.319.076-2.635.162-3.952.247-.782.05-1.57.054-2.347.16-.17.023-.296.197-.467.223-.1.014-1.51-.057-1.646-.11-.124-.048-.266-.191-.239-.323.029-.13.218-.172.35-.199.45-.09.912-.102 1.369-.147.74-.075 2.407-.214 2.972-.255 2.164-.157 4.328-.315 6.494-.451 1.636-.103 7.215-.425 9.977-.54 4.558-.188 4.903-.162 9.822-.384 4.591-.209 9.182-.435 13.772-.654 1.84-.087 3.733.183 5.517-.265 1.52-.382-3.13.04-4.696.06-5.312.067-10.622.127-15.933.203-4.632.066-9.264.135-13.896.22-1.775.032-3.55.088-5.323.132-2.152.056-4.306.105-6.458.17-4.67.14-9.34.294-14.01.438-2.48.078-4.958.153-7.437.225-1.056.032-2.113.057-3.17.084-.548.014-1.096.026-1.643.043-.288.01-.575.02-.862.032-.364.015-.731.054-1.096.014a6.772 6.772 0 0 1-.666-.1c-.083-.016-.18-.022-.236-.083-.282-.305-.84-.581-.757-.988.085-.409.686-.508 1.088-.622.696-.194 1.432-.206 2.15-.287 1.414-.16 3.059-.252 4.459-.339A831.06 831.06 0 0 1 17.66 2.2C25.9 1.78 35.132 1.316 43.406.983 51.89.64 58.226.44 66.457.19c.574-.017 1.148-.032 1.722-.043.795-.015 1.592-.018 2.387-.03 3.21-.053 6.42-.109 9.63-.167zm-17.12 2.192c2.975-.016 5.91-.054 8.885-.092 4.816-.061 9.67-.101 14.486-.14 4.305-.034 8.573-.045 12.84-.056l12.686-.032 12.762-.032c-2.544-.01-5.129-.043-7.674-.053l-9.515-.075c-1.214-.006-2.389-.035-3.602-.02l-16.717.084c-1.292.016-2.623.012-3.955.03-2.74.034-5.479.09-8.219.125-2.31.03-4.58.08-6.889.11-.588.03-1.215.037-1.84.066-1.057.014-2.114.049-3.248.085z"></path></svg>