
<svg width="149" height="163" viewBox="0 0 149 163" fill="none" xmlns="http://www.w3.org/2000/svg">
<path d="M67.7322 27.1724C67.5002 30.7698 68.0294 34.2577 68.7539 37.7978C69.2398 39.4964 69.8494 41.1235 70.459 42.7507C71.1923 44.3065 71.7305 45.81 72.4638 47.3658C73.5924 50.1776 74.8449 52.9181 75.9021 55.6063C77.0499 58.737 78.3213 61.7963 79.5405 65.0507C81.998 71.8783 84.6507 78.7581 87.1082 85.5856C88.256 88.7163 89.2801 91.9185 90.3042 95.1206C91.3283 98.3227 92.3001 101.72 93.3242 104.922C94.2769 108 95.0345 111.026 95.8635 114.176C96.6733 117.007 97.3594 119.91 98.1169 122.936C98.8745 125.962 99.5084 129.06 100.708 131.995C101.909 134.931 103.304 137.918 105.07 140.692C105.497 137.147 105.605 133.621 105.2 130.062C104.961 128.22 104.599 126.45 104.237 124.68C103.803 122.786 103.37 120.893 102.812 119.07C101.278 112.699 99.6201 106.4 97.6434 100.119C95.7189 93.6436 93.7944 87.168 91.4988 80.9066C89.3269 74.5738 87.1551 68.2411 84.8595 61.9798C82.5639 55.7184 80.216 49.6521 77.7967 43.4621C77.2776 42.2775 76.8109 40.8977 76.2919 39.7131C75.5586 38.1573 74.6301 36.5492 73.7731 35.0648C72.1828 32.0247 70.0456 29.4652 67.7322 27.1724C67.8559 27.101 67.8559 27.101 67.7322 27.1724Z" fill="#FFA800"/>
<path d="M67.7322 27.1724C67.5002 30.7698 68.0294 34.2577 68.7539 37.7978C69.2398 39.4964 69.8494 41.1235 70.459 42.7507C71.1923 44.3065 71.7305 45.81 72.4638 47.3658C73.5924 50.1776 74.8449 52.9181 75.9021 55.6063C77.0499 58.737 78.3213 61.7963 79.5405 65.0507C81.998 71.8783 84.6507 78.7581 87.1082 85.5856C88.256 88.7163 89.2801 91.9185 90.3042 95.1206C91.3283 98.3227 92.3001 101.72 93.3242 104.922C94.2769 108 95.0345 111.026 95.8635 114.176C96.6733 117.007 97.3594 119.91 98.1169 122.936C98.8745 125.962 99.5084 129.06 100.708 131.995C101.909 134.931 103.304 137.918 105.07 140.692C105.497 137.147 105.605 133.621 105.2 130.062C104.961 128.22 104.599 126.45 104.237 124.68C103.803 122.786 103.37 120.893 102.812 119.07C101.278 112.699 99.6201 106.4 97.6434 100.119C95.7189 93.6436 93.7944 87.168 91.4988 80.9066C89.3269 74.5738 87.1551 68.2411 84.8595 61.9798C82.5639 55.7184 80.216 49.6521 77.7967 43.4621C77.2776 42.2775 76.8109 40.8977 76.2919 39.7131C75.5586 38.1573 74.6301 36.5492 73.7731 35.0648C72.1828 32.0247 70.0456 29.4652 67.7322 27.1724ZM67.7322 27.1724C67.8559 27.101 67.8559 27.101 67.7322 27.1724Z" stroke="#FFA800"/>
<path d="M40.8263 24.5635C41.3799 29.5216 42.4995 34.3178 44.628 38.8614C46.7565 43.405 48.6899 47.8964 50.8183 52.44C51.7136 54.562 52.804 56.7363 53.6993 58.8583C54.7374 61.2276 55.7755 63.597 56.885 66.0901C58.8184 70.5814 60.5567 75.0204 62.4901 79.5117C63.4567 81.7574 64.176 84.1459 65.1426 86.3916C65.9142 88.585 66.7572 90.9021 67.5287 93.0955C68.9291 97.2349 70.3293 101.374 71.6059 105.585C73.1873 110.609 74.7689 115.634 76.2789 120.535C76.9982 122.923 77.5937 125.383 78.313 127.772C78.9609 130.036 79.5373 132.177 80.0614 134.514C80.4951 136.407 80.9811 138.106 81.6621 139.857C82.7385 142.864 84.0622 145.728 85.3859 148.592C85.3706 145.138 85.2314 141.754 84.7735 138.39C84.4445 136.106 83.7966 133.842 83.2202 131.7C82.1195 127.223 80.9667 122.941 79.6187 118.606C76.7415 109.052 73.9357 99.622 70.8112 90.2109C69.268 85.8241 67.9201 81.4895 66.2532 77.1742C64.3721 72.4877 62.6861 67.8535 60.6814 63.2385C58.8003 58.552 56.6717 54.0084 54.667 49.3934C52.8242 45.3446 50.9099 41.172 49.1908 37.0517C47.1146 32.313 44.244 28.1978 40.8263 24.5635Z" fill="#FFA800" stroke="#FFA800"/>
<path d="M54.4869 105.078C53.3736 105.72 52.3318 106.487 51.29 107.253C48.9066 109.124 46.6659 111.242 44.887 113.589C47.9323 113.15 50.887 112.269 53.8226 111.069C56.8818 109.797 59.7269 108.155 62.5005 106.388C67.4484 103.532 72.2726 100.746 77.2918 98.0135C77.1682 98.0849 76.9207 98.2277 76.797 98.2992C79.7135 96.7803 82.7536 95.1901 85.6701 93.6712C91.0796 91.0428 96.489 88.4143 101.775 85.8573C104.268 84.7478 106.689 83.5146 109.111 82.2814C110.914 81.4053 112.718 80.5292 114.449 79.5294C115.686 78.8152 116.923 78.101 117.965 77.3346C120.12 75.9254 121.937 74.2166 123.755 72.5077C120.338 73.1607 116.941 74.1325 113.687 75.3517C111.246 76.2661 108.824 77.4993 106.526 78.6611C103.857 80.0371 101.24 81.2181 98.4999 82.4704C95.7594 83.7228 93.1427 84.9037 90.4737 86.2797C87.8569 87.4607 85.1879 88.8367 82.6425 90.1413C79.8498 91.5887 76.9333 93.1078 74.1406 94.5552C68.6265 97.5738 63.1648 100.397 57.6507 103.416C56.9085 103.844 56.1663 104.273 55.4241 104.701C54.9816 104.792 54.7343 104.935 54.4869 105.078Z" fill="#FFA800" stroke="#FFA800"/>
<path d="M35.9487 82.9604C32.1856 85.298 28.9937 88.6251 26.2635 92.1806C29.6276 91.7227 33.0962 90.8746 36.3506 89.6554C38.9151 88.6695 41.3889 87.2413 43.7392 85.8844C44.3576 85.5273 44.9761 85.1703 45.5946 84.8132C52.0268 81.0995 58.4067 77.5809 64.9104 73.991C68.4453 72.115 72.1039 70.1677 75.6388 68.2918C78.9264 66.5587 82.0902 64.8968 85.3777 63.1637C88.789 61.3591 92.2716 59.6783 95.6828 57.8738C99.5888 55.7836 103.047 52.6324 106.044 49.253C102.29 49.6063 98.5021 50.4735 95.0003 51.8356C92.5595 52.75 90.3332 54.0355 88.0353 55.1973C82.8209 57.878 77.6064 60.5587 72.5871 63.2917C72.8345 63.1488 73.0819 63.006 73.2056 62.9346C66.7543 66.3294 60.3029 69.7241 53.8516 73.1189C51.1825 74.4949 48.4612 76.0661 45.8636 77.5659C44.0081 78.6371 42.2764 79.637 40.3495 80.5845C39.3599 81.1559 38.3703 81.7272 37.3808 82.2985C36.9383 82.3891 36.4435 82.6748 35.9487 82.9604Z" fill="#FFA800" stroke="#FFA800"/>
</svg>
