
<?xml version="1.0" encoding="UTF-8"?>
<svg width="280px" height="276px" viewBox="0 0 280 276" version="1.1" xmlns="http://www.w3.org/2000/svg" xmlns:xlink="http://www.w3.org/1999/xlink">
    <!-- Generator: Sketch 52.6 (67491) - http://www.bohemiancoding.com/sketch -->
    <title>Group 8</title>
    <desc>Created with Sketch.</desc>
    <g id="Page-1" stroke="none" stroke-width="1" fill="none" fill-rule="evenodd">
        <g id="Homepage" transform="translate(-263.000000, -1153.000000)">
            <g id="getting-started" transform="translate(135.000000, 1078.000000)">
                <g id="Group-8" transform="translate(73.000000, 69.000000)">
                    <path d="M127.650756,15.2639579 C161.592435,0.0833405281 260.726121,48.4340699 258.533061,119.165518 C258.088626,133.499587 251.695946,147.892512 254.466426,162.137663 C255.683508,168.395608 265.703525,172.68532 270.049637,178.38102 C290.89108,205.694308 297.763771,241.069441 270.5163,267.219805 C248.099776,288.733739 205.1078,302.000823 166.875448,310.39907 C112.687943,322.302079 57.2303424,255.837607 80.5879863,196.498292 C108.511429,125.559718 93.7090773,30.4445752 127.650756,15.2639579 Z" id="blob" fill="#96D6E8" transform="translate(181.760566, 162.131916) rotate(-116.000000) translate(-181.760566, -162.131916) "></path>
                    <g id="small-dots" transform="translate(189.500000, 35.500000) rotate(-78.000000) translate(-189.500000, -35.500000) translate(180.000000, 26.000000)" fill="#08242A">
                        <path d="M3,18.1703077 C4,18.1703077 7,18.1703077 7,14.1703077 C7,13.1153676 6.58389056,12.8850107 6,12.1703077 C5.36117153,11.3883588 4,10.6591593 3,11.1703077 C1.2706881,12.0542427 0,11.9611687 0,14.1703077 C0,16.3794467 2,18.1703077 3,18.1703077 Z" id="Oval"></path>
                        <path d="M9,7 C10,7 11,6.82969228 11,4 C11,2.94505984 10.5838906,2.71470294 10,2 C9.36117153,1.2180511 7.80638586,0.193614141 7,1 C6,2 5,1.790861 5,4 C5,6.209139 8,7 9,7 Z" id="Oval"></path>
                        <path d="M16.1428571,12 C18.2857143,12 19,11 19,9.09058078 C19,8.37872845 18.702779,8.22328827 18.2857143,7.74102115 C17.8294082,7.21337782 16.1428571,6.60640852 15.4285714,6.95132113 C14.1933486,7.5477826 14,8.53072118 14,9.09058078 C14,9.65044038 14,12 16.1428571,12 Z" id="Oval"></path>
                    </g>
                    <path d="M82,227 C145.208873,194 174,101 152,67 C145.208873,56.5046213 128.227103,40 110,46 C96.2941423,50.5116959 92.3848144,73.1084904 101.28854,81.8608679 C107.418289,87.8864209 120.523515,90.2677386 128.227103,90.7653319 C141.364555,91.6139116 154.57954,92.4467259 167.713795,91.5500165 C176.619642,90.9419914 186.323105,84.6657603 192.694058,79.0018867 C215.458729,58.7637491 211.587701,27.2664908 243.684908,12.713099 C248.762248,10.4109513 254.236941,8.71082661 259.788,8.19604521 C273.494491,6.92496417 305,20 321,37" id="looper" stroke="#08242A" stroke-width="3"></path>
                </g>
            </g>
        </g>
    </g>
</svg>