
<svg xmlns="http://www.w3.org/2000/svg" width="51" height="53" viewBox="0 0 51 53"><g><g transform="rotate(-9.66 26 26.5)"><g><path fill="#d00090" d="M5.78-2.81c.067 1.345.202 2.69.538 4.035.134.74.336 1.48.538 2.153.202.605.47 1.143.673 1.748 1.008 2.69 2.084 5.313 3.16 8.004 1.01 2.421 2.018 4.842 3.094 7.263.942 2.287 1.95 4.574 2.96 6.86 1.21 2.758 2.488 5.516 3.766 8.273a227.412 227.412 0 0 1 3.094 7.13l.807 1.815c.47 1.076.941 2.085 1.48 3.161.336.606.672 1.21 1.076 1.749.672 1.009 1.48 1.95 2.286 2.825a27.076 27.076 0 0 0-1.277-5.112c-.471-1.21-1.01-2.42-1.547-3.632-.606-1.277-1.076-2.623-1.682-3.9l-1.614-3.834c-.942-2.287-2.018-4.506-3.027-6.793-1.076-2.556-2.152-5.044-3.228-7.6-2.085-5.112-4.17-10.156-6.12-15.267-.605-1.547-1.143-3.161-1.95-4.64C7.999-.188 6.923-1.6 5.78-2.81z"/><path fill="none" stroke="#d00090" stroke-miterlimit="20" d="M5.78-2.81c.067 1.345.202 2.69.538 4.035.134.74.336 1.48.538 2.153.202.605.47 1.143.673 1.748 1.008 2.69 2.084 5.313 3.16 8.004 1.01 2.421 2.018 4.842 3.094 7.263.942 2.287 1.95 4.574 2.96 6.86 1.21 2.758 2.488 5.516 3.766 8.273a227.412 227.412 0 0 1 3.094 7.13l.807 1.815c.47 1.076.941 2.085 1.48 3.161.336.606.672 1.21 1.076 1.749.672 1.009 1.48 1.95 2.286 2.825a27.076 27.076 0 0 0-1.277-5.112c-.471-1.21-1.01-2.42-1.547-3.632-.606-1.277-1.076-2.623-1.682-3.9l-1.614-3.834c-.942-2.287-2.018-4.506-3.027-6.793-1.076-2.556-2.152-5.044-3.228-7.6-2.085-5.112-4.17-10.156-6.12-15.267-.605-1.547-1.143-3.161-1.95-4.64C7.999-.188 6.923-1.6 5.78-2.81z"/></g><g><path fill="#d00090" d="M29.86 2.44c-1.277.874-2.488 1.816-3.564 2.96-.942 1.008-1.749 2.151-2.556 3.295-.807 1.143-1.614 2.22-2.354 3.363l-2.421 3.631c-.807 1.413-1.681 2.758-2.489 4.17-.268.404-.47.875-.74 1.345-.47.875-.94 1.75-1.479 2.623l-3.632 6.659c-1.278 2.488-2.623 4.977-3.9 7.398-.337.605-.606 1.278-1.01 1.883a31.965 31.965 0 0 0-1.143 2.085c-.605 1.143-1.076 2.421-1.412 3.632a13.56 13.56 0 0 1-.471 1.547v-.067c-.067.269-.202.538-.269.74 1.412-.808 2.623-2.018 3.564-3.363.875-1.144 1.48-2.354 2.153-3.632 1.278-2.489 2.488-4.977 3.766-7.398 1.345-2.556 2.69-5.18 4.035-7.735.74-1.412 1.547-2.757 2.287-4.17.606-1.143 1.278-2.22 1.95-3.363.337-.538.673-1.143 1.01-1.681.74-1.143 1.546-2.354 2.286-3.497l2.22-3.229c.269-.336.47-.672.74-1.008a21.326 21.326 0 0 0 1.546-2.422c.807-1.076 1.413-2.354 1.883-3.766z"/><path fill="none" stroke="#d00090" stroke-miterlimit="20" d="M29.86 2.44c-1.277.874-2.488 1.816-3.564 2.96-.942 1.008-1.749 2.151-2.556 3.295-.807 1.143-1.614 2.22-2.354 3.363l-2.421 3.631c-.807 1.413-1.681 2.758-2.489 4.17-.268.404-.47.875-.74 1.345-.47.875-.94 1.75-1.479 2.623l-3.632 6.659c-1.278 2.488-2.623 4.977-3.9 7.398-.337.605-.606 1.278-1.01 1.883a31.965 31.965 0 0 0-1.143 2.085c-.605 1.143-1.076 2.421-1.412 3.632a13.56 13.56 0 0 1-.471 1.547v-.067c-.067.269-.202.538-.269.74 1.412-.808 2.623-2.018 3.564-3.363.875-1.144 1.48-2.354 2.153-3.632 1.278-2.489 2.488-4.977 3.766-7.398 1.345-2.556 2.69-5.18 4.035-7.735.74-1.412 1.547-2.757 2.287-4.17.606-1.143 1.278-2.22 1.95-3.363.337-.538.673-1.143 1.01-1.681.74-1.143 1.546-2.354 2.286-3.497l2.22-3.229c.269-.336.47-.672.74-1.008a21.326 21.326 0 0 0 1.546-2.422c.807-1.076 1.413-2.354 1.883-3.766z"/></g><g><path fill="#d00090" d="M49.633 8.557c.337 0 .673.135.875.47.067.135.202.27.269.472.067.134.134.269.134.403.067.27.068.471.068.74v.807c0 1.076 0 2.22-.068 3.296l-.202 4.035c0 .538 0 1.076-.067 1.614-.067.673-.134 1.413-.202 2.153-.067.47-.067.941-.134 1.412-.067.673-.202 1.412-.27 2.085-.066.672-.2 1.345-.268 1.95-.067.538-.202 1.01-.269 1.48-.336 1.95-.74 3.9-1.21 5.784-.404 1.412-.808 2.892-1.346 4.304v.068c0 1.076.067 2.152.135 3.228 0 .74.067 1.48.067 2.22-.067.672-.067 1.277-.135 1.95a35.28 35.28 0 0 1-.605 3.699 20.503 20.503 0 0 1-1.345-4.506c-.135-.74-.202-1.48-.269-2.22-.202.336-.404.606-.605.942-.471.672-.942 1.345-1.547 1.95-.538.538-1.144 1.076-1.816 1.48-.404.202-.807.403-1.278.538-.404.134-.807.269-1.21.336-.875.135-1.682.202-2.556.135-.538-.068-1.01-.135-1.48-.337a5.965 5.965 0 0 1-1.143-.538c-.337-.201-.606-.47-.875-.74-.269-.336-.538-.672-.74-1.008-.874-1.547-1.614-3.161-1.681-4.91 0-.874.067-1.816.202-2.69.067-.807.202-1.614.403-2.354.404-1.682.942-3.363 1.884-4.843.941-1.546 2.017-2.959 3.497-3.968 1.412-1.008 3.094-1.681 4.842-1.48.471 0 .942.135 1.345.337.404.202.808.403 1.077.672.269.27.538.606.74.942.201.404.336.74.403 1.143a4.548 4.548 0 0 1-.27 2.489 6.309 6.309 0 0 1-.94 1.749c.067-.875.066-1.816-.068-2.69-.067-.337-.202-.673-.336-1.01l-.404-.605c-.202-.134-.403-.336-.605-.47-.202-.068-.404-.202-.605-.27-.202-.067-.404-.134-.673-.134s-.605 0-.874.067c-.471.135-.875.27-1.278.47-.605.337-1.143.674-1.682 1.144-.74.74-1.412 1.48-1.95 2.354a20.593 20.593 0 0 0-1.48 3.296c-.47 1.681-.807 3.43-.874 5.179 0 .47.067 1.008.135 1.48.134.672.403 1.344.74 2.017.268.47.537.941.874 1.345.201.134.336.269.538.404.269.201.538.336.807.403.336.067.672.135 1.009.135.605 0 1.143 0 1.748-.135.471-.134.942-.269 1.413-.47.403-.27.74-.539 1.076-.808.807-.74 1.48-1.614 2.085-2.556a22.828 22.828 0 0 0 1.748-3.362c.068-.202.202-.404.27-.606v-.672-1.95c0-.539.067-1.077.067-1.615.067-1.21.067-2.421.134-3.632 0-.874.067-1.748.135-2.623 0-.336 0-.74.067-1.076.134-1.412.27-2.892.404-4.371 0-.404.067-.74.134-1.144.067-.874.202-1.749.336-2.623.135-1.143.404-2.286.606-3.43.134-.74.269-1.547.47-2.287.202-.874.404-1.748.673-2.623.134-.336.202-.807.404-1.143.067-.202.201-.403.336-.538.134-.134.202-.27.336-.404a.876.876 0 0 1 .874-.336zM47.01 30.012c.135-.404.202-.807.27-1.21.134-.404.201-.808.268-1.211.135-.74.202-1.413.337-2.152.067-.606.202-1.211.269-1.816.067-.538.067-1.144.134-1.682.068-.672.135-1.278.202-1.95.067-.673.067-1.278.135-1.883 0-.471.067-1.01.067-1.547-.135.538-.202 1.076-.337 1.614-.269 1.143-.403 2.354-.537 3.497a15.701 15.701 0 0 0-.27 1.749c-.067.47-.067 1.009-.134 1.48-.135 1.21-.269 2.354-.336 3.564 0 .538-.068 1.076-.068 1.547z"/><path fill="none" stroke="#d00090" stroke-miterlimit="20" d="M49.633 8.557c.337 0 .673.135.875.47.067.135.202.27.269.472.067.134.134.269.134.403.067.27.068.471.068.74v.807c0 1.076 0 2.22-.068 3.296l-.202 4.035c0 .538 0 1.076-.067 1.614-.067.673-.134 1.413-.202 2.153-.067.47-.067.941-.134 1.412-.067.673-.202 1.412-.27 2.085-.066.672-.2 1.345-.268 1.95-.067.538-.202 1.01-.269 1.48-.336 1.95-.74 3.9-1.21 5.784-.404 1.412-.808 2.892-1.346 4.304v.068c0 1.076.067 2.152.135 3.228 0 .74.067 1.48.067 2.22-.067.672-.067 1.277-.135 1.95a35.28 35.28 0 0 1-.605 3.699 20.503 20.503 0 0 1-1.345-4.506c-.135-.74-.202-1.48-.269-2.22-.202.336-.404.606-.605.942-.471.672-.942 1.345-1.547 1.95-.538.538-1.144 1.076-1.816 1.48-.404.202-.807.403-1.278.538-.404.134-.807.269-1.21.336-.875.135-1.682.202-2.556.135-.538-.068-1.01-.135-1.48-.337a5.965 5.965 0 0 1-1.143-.538c-.337-.201-.606-.47-.875-.74-.269-.336-.538-.672-.74-1.008-.874-1.547-1.614-3.161-1.681-4.91 0-.874.067-1.816.202-2.69.067-.807.202-1.614.403-2.354.404-1.682.942-3.363 1.884-4.843.941-1.546 2.017-2.959 3.497-3.968 1.412-1.008 3.094-1.681 4.842-1.48.471 0 .942.135 1.345.337.404.202.808.403 1.077.672.269.27.538.606.74.942.201.404.336.74.403 1.143a4.548 4.548 0 0 1-.27 2.489 6.309 6.309 0 0 1-.94 1.749c.067-.875.066-1.816-.068-2.69-.067-.337-.202-.673-.336-1.01l-.404-.605c-.202-.134-.403-.336-.605-.47-.202-.068-.404-.202-.605-.27-.202-.067-.404-.134-.673-.134s-.605 0-.874.067c-.471.135-.875.27-1.278.47-.605.337-1.143.674-1.682 1.144-.74.74-1.412 1.48-1.95 2.354a20.593 20.593 0 0 0-1.48 3.296c-.47 1.681-.807 3.43-.874 5.179 0 .47.067 1.008.135 1.48.134.672.403 1.344.74 2.017.268.47.537.941.874 1.345.201.134.336.269.538.404.269.201.538.336.807.403.336.067.672.135 1.009.135.605 0 1.143 0 1.748-.135.471-.134.942-.269 1.413-.47.403-.27.74-.539 1.076-.808.807-.74 1.48-1.614 2.085-2.556a22.828 22.828 0 0 0 1.748-3.362c.068-.202.202-.404.27-.606v-.672-1.95c0-.539.067-1.077.067-1.615.067-1.21.067-2.421.134-3.632 0-.874.067-1.748.135-2.623 0-.336 0-.74.067-1.076.134-1.412.27-2.892.404-4.371 0-.404.067-.74.134-1.144.067-.874.202-1.749.336-2.623.135-1.143.404-2.286.606-3.43.134-.74.269-1.547.47-2.287.202-.874.404-1.748.673-2.623.134-.336.202-.807.404-1.143.067-.202.201-.403.336-.538.134-.134.202-.27.336-.404a.876.876 0 0 1 .874-.336zM47.01 30.012c.135-.404.202-.807.27-1.21.134-.404.201-.808.268-1.211.135-.74.202-1.413.337-2.152.067-.606.202-1.211.269-1.816.067-.538.067-1.144.134-1.682.068-.672.135-1.278.202-1.95.067-.673.067-1.278.135-1.883 0-.471.067-1.01.067-1.547-.135.538-.202 1.076-.337 1.614-.269 1.143-.403 2.354-.537 3.497a15.701 15.701 0 0 0-.27 1.749c-.067.47-.067 1.009-.134 1.48-.135 1.21-.269 2.354-.336 3.564 0 .538-.068 1.076-.068 1.547z"/></g></g></g></svg>